{"glyphs":{"0":{"ha":876,"x_min":27,"x_max":852,"o":"m 268 970 l 275 970 q 400 894 319 961 l 459 894 q 538 878 475 894 q 608 924 585 924 l 614 924 q 670 878 645 924 l 677 874 q 733 884 716 884 l 763 884 q 809 864 801 884 l 809 825 q 799 742 809 798 l 809 726 l 809 703 q 772 640 809 688 q 786 557 780 640 q 783 524 786 553 q 852 488 827 511 l 852 481 l 848 481 q 783 508 806 508 q 766 448 766 477 q 795 422 774 448 q 792 419 792 422 q 753 439 764 439 q 720 396 753 437 l 720 389 q 763 333 763 344 l 756 330 q 703 382 712 382 q 618 350 665 363 l 618 343 q 730 214 730 236 q 802 188 741 204 q 829 149 829 168 l 829 142 q 720 83 829 83 q 694 85 717 83 q 572 46 628 56 q 475 0 531 0 q 390 50 427 0 l 387 50 q 235 46 359 50 q 126 165 218 55 q 110 297 110 191 q 37 347 37 319 q 27 389 31 347 q 64 452 27 410 q 93 481 64 475 l 93 508 q 103 528 95 528 q 225 409 212 409 l 241 409 l 275 412 l 275 419 q 172 501 208 466 q 133 554 156 517 l 126 557 q 100 551 114 551 l 90 551 l 90 557 q 130 577 130 568 q 116 623 127 623 q 43 620 93 623 l 43 627 q 100 637 75 637 l 123 637 q 176 785 123 699 q 192 861 184 785 q 268 970 236 970 m 202 828 q 218 814 218 819 l 218 812 q 142 646 142 715 q 182 623 142 635 l 185 617 l 179 614 q 149 620 154 620 l 146 614 l 146 594 q 172 574 146 574 q 185 564 185 572 q 159 554 159 561 q 195 515 159 522 l 205 515 l 205 505 l 195 505 l 195 498 q 340 416 278 416 q 549 425 517 425 q 581 386 549 386 l 597 370 l 608 370 q 684 399 648 370 q 657 422 657 420 l 664 425 q 696 409 677 421 l 700 409 q 733 442 723 425 l 733 446 q 700 462 730 455 l 700 465 l 703 472 q 736 462 736 467 q 760 511 753 467 q 707 528 711 524 q 717 534 717 531 l 740 531 l 763 531 q 766 557 766 549 q 749 633 766 633 q 690 614 749 621 q 644 686 653 614 q 601 719 629 686 l 555 719 q 505 785 514 719 q 528 861 505 798 q 446 878 470 878 l 436 878 q 377 871 410 878 q 370 884 370 879 q 374 894 374 890 q 271 950 299 950 q 202 828 240 950 m 677 854 l 680 814 l 680 812 q 730 768 697 812 q 776 759 740 768 l 779 759 q 795 838 790 768 q 792 851 792 844 l 792 861 q 756 867 769 867 q 677 854 708 867 m 248 633 q 264 610 264 629 q 245 570 264 580 q 218 594 218 574 q 248 633 225 633 m 367 538 l 383 538 q 420 508 409 538 q 390 481 409 481 q 351 511 358 492 q 367 538 351 528 m 363 515 q 390 495 363 504 q 406 505 406 499 l 406 511 q 377 528 406 522 l 374 528 q 363 515 366 528 m 595 528 q 611 515 610 522 l 611 498 q 591 465 611 479 l 581 465 q 565 492 565 473 q 595 528 577 528 m 113 488 q 149 419 113 450 q 162 363 162 389 q 126 300 162 342 l 126 294 q 169 145 126 172 q 212 89 212 96 l 222 89 q 218 99 222 92 l 222 115 q 202 386 212 298 l 116 488 l 113 488 m 40 389 l 40 379 q 96 317 53 317 l 110 317 q 142 366 142 334 q 100 446 142 412 q 90 469 96 458 q 64 425 77 469 q 40 389 48 425 m 258 389 l 238 389 q 232 382 232 388 q 252 66 240 66 l 255 66 q 374 76 357 66 l 370 109 q 469 287 370 221 q 482 300 474 287 q 475 307 482 307 l 443 307 q 433 333 433 309 l 433 340 q 450 366 433 357 l 469 363 q 479 366 475 366 l 479 359 l 475 343 l 459 343 q 452 336 452 342 l 452 330 q 459 323 454 323 q 469 327 466 327 q 479 323 475 323 q 535 373 507 373 l 532 389 l 532 402 l 519 402 q 258 389 458 402 m 558 376 l 558 359 q 515 343 558 356 q 499 310 499 324 q 551 294 499 294 l 588 271 l 597 271 q 614 310 612 271 q 572 376 614 326 l 558 376 m 363 373 l 370 373 q 406 350 406 354 l 410 330 q 380 303 410 303 l 367 303 q 357 347 357 303 l 357 366 q 363 373 358 373 m 294 356 l 328 356 q 337 320 334 356 q 340 317 340 320 q 330 303 336 303 l 321 303 l 307 313 l 304 313 q 291 297 304 304 q 284 307 284 305 l 284 313 q 291 323 291 321 l 291 333 l 284 333 l 284 347 q 294 356 284 351 m 439 350 l 439 347 l 446 347 l 446 350 l 439 350 m 380 343 l 377 336 l 377 333 l 380 317 l 387 317 l 390 333 q 380 343 390 338 m 304 336 l 304 333 l 311 333 l 311 336 l 304 336 m 393 112 q 469 20 408 20 l 496 20 q 604 138 557 20 q 611 191 611 166 q 532 277 611 254 l 509 277 q 400 161 450 277 q 393 112 393 131 m 710 109 l 710 102 q 736 99 713 102 q 812 142 812 99 q 749 184 805 184 l 740 184 q 730 145 733 184 q 710 109 720 121 z "},"1":{"ha":1385,"x_min":27,"x_max":1357,"o":"m 262 970 q 380 886 380 919 l 526 886 q 588 970 575 970 l 595 970 q 692 914 641 970 q 810 956 769 956 l 824 956 q 865 804 850 956 q 872 789 872 804 l 865 741 q 921 595 891 705 q 1018 568 1018 587 l 1018 561 q 935 575 970 575 l 913 575 l 913 513 q 962 498 941 498 l 962 478 q 913 492 918 492 q 928 437 928 467 l 928 401 q 817 291 928 347 l 803 284 l 810 270 l 810 243 q 775 180 810 216 q 782 118 782 142 l 817 153 l 859 153 q 879 125 879 153 q 831 76 879 99 q 872 56 838 56 l 921 56 l 921 83 q 1018 326 921 157 q 1066 381 1018 381 l 1073 381 q 1107 340 1085 381 l 1149 332 l 1156 332 q 1225 381 1197 381 q 1267 298 1260 381 q 1357 97 1357 168 q 1240 0 1357 0 l 1101 0 q 941 35 984 0 l 879 28 q 796 76 796 41 l 782 76 q 699 0 758 0 l 533 0 q 346 7 443 0 q 249 0 313 0 q 208 35 220 9 q 304 125 208 107 q 380 312 304 152 l 380 326 q 193 374 267 340 q 152 340 193 366 l 145 353 q 180 388 154 353 q 138 437 144 437 q 96 422 110 422 l 96 429 q 131 457 96 437 q 111 526 111 523 q 27 506 100 526 l 27 519 q 111 541 90 541 l 111 595 q 193 789 111 705 l 186 831 q 262 970 186 926 m 540 804 q 581 769 540 769 q 630 789 630 776 l 630 797 l 609 825 l 609 845 q 623 859 611 859 l 650 859 q 658 852 658 859 q 678 866 678 859 q 602 949 659 949 l 595 949 q 540 804 540 897 m 214 852 l 214 810 q 235 797 235 810 q 131 575 131 718 l 131 547 l 180 547 l 180 534 l 138 534 l 138 526 q 180 464 138 464 l 180 450 l 165 450 l 165 444 q 214 401 185 401 q 228 416 216 416 l 235 416 l 235 409 l 221 388 q 498 347 326 347 q 588 409 498 381 l 609 409 q 658 374 658 409 l 685 381 l 713 374 q 747 388 735 388 q 755 381 747 381 l 755 395 q 741 437 741 418 q 886 534 741 498 l 886 575 l 859 575 l 824 568 l 824 582 l 886 595 l 886 616 q 844 713 870 713 q 768 658 801 658 l 747 658 q 692 728 736 658 q 637 762 637 744 l 602 755 l 553 755 q 526 783 543 755 l 526 866 l 443 866 l 374 859 q 270 942 328 928 l 256 942 q 214 852 214 911 m 692 886 q 755 845 692 871 l 762 831 l 775 838 l 803 838 l 838 831 l 838 838 q 803 935 838 935 q 692 886 778 935 m 623 845 l 623 831 q 637 817 625 817 l 644 831 l 644 845 l 623 845 m 650 797 l 650 776 q 692 741 650 764 q 747 797 747 748 q 720 845 747 834 l 699 845 q 650 797 650 845 m 768 817 q 762 797 768 810 q 789 769 772 797 l 789 755 q 768 734 789 745 q 741 741 744 741 q 720 734 727 734 q 775 672 720 672 q 852 783 852 731 l 852 797 q 810 817 844 817 l 768 817 m 762 776 l 755 762 l 755 755 l 775 755 l 775 762 q 762 776 775 776 m 290 575 l 297 575 q 318 554 307 575 l 318 526 q 297 506 318 517 l 290 506 q 270 526 280 506 l 270 554 q 290 575 270 564 m 713 568 l 727 568 q 747 547 736 568 l 747 541 q 727 498 747 505 l 720 498 q 699 519 710 498 l 699 554 q 713 568 701 568 m 762 444 l 762 422 q 886 492 829 492 q 872 506 886 506 l 852 506 q 762 444 762 478 m 484 498 l 498 498 l 498 485 q 477 457 477 485 l 464 457 l 464 478 q 484 498 464 488 m 519 498 l 526 498 q 547 464 542 498 l 519 444 l 491 444 q 477 457 477 444 q 533 471 533 457 q 519 492 519 488 l 519 498 m 775 401 q 782 381 775 395 q 775 332 775 353 q 796 304 785 304 q 907 429 907 359 q 886 471 900 471 l 879 471 q 775 401 775 453 m 526 347 l 526 332 q 637 367 563 367 l 644 367 l 644 381 l 609 388 l 595 388 q 526 347 554 388 m 734 367 q 720 347 734 347 q 678 360 697 360 l 665 340 l 665 312 q 685 256 665 291 q 762 298 758 298 l 755 347 l 755 367 l 734 367 m 941 90 q 1128 21 941 21 l 1219 21 q 1329 90 1329 21 q 1240 298 1329 189 l 1240 353 q 1225 360 1225 353 q 1184 312 1207 360 l 1135 319 l 1094 319 q 1066 360 1085 319 q 1025 270 1040 360 q 941 90 956 176 m 540 312 q 616 250 565 250 l 650 250 l 665 256 q 644 326 644 292 l 644 347 l 595 347 q 540 312 545 347 m 408 326 q 332 138 408 302 l 332 118 q 526 21 332 21 l 616 21 q 630 41 630 21 q 616 201 630 87 l 588 201 l 602 180 l 602 159 q 574 132 602 149 l 568 132 l 533 138 q 471 76 533 121 l 450 76 q 394 173 394 76 l 394 194 q 464 304 394 304 l 464 326 l 408 326 m 484 326 l 484 319 q 595 222 484 233 l 602 222 l 602 229 q 491 326 572 229 l 484 326 m 699 243 q 755 208 717 208 q 789 250 789 208 q 768 291 789 286 q 699 243 699 254 m 408 208 l 422 201 l 498 201 q 464 284 491 284 q 408 208 408 279 m 1128 263 l 1170 263 q 1260 173 1260 241 l 1260 118 q 1253 111 1260 111 l 1260 97 l 1260 76 q 1225 49 1257 62 l 1212 56 q 1128 41 1164 41 q 1018 138 1018 52 l 1018 153 q 1128 263 1031 263 m 1053 208 l 1053 201 l 1066 208 l 1073 208 q 1087 194 1087 205 l 1087 180 q 1073 166 1087 166 l 1066 166 l 1038 187 l 1031 138 q 1135 56 1031 67 q 1204 111 1204 56 q 1246 146 1246 111 l 1246 153 q 1163 250 1237 250 l 1156 250 q 1053 208 1075 250 m 512 229 l 512 187 q 526 173 514 173 q 547 208 526 185 l 547 215 q 512 229 534 215 m 630 229 l 630 215 l 644 215 q 658 229 658 215 l 630 229 m 1122 235 l 1128 235 q 1149 215 1139 235 q 1128 194 1149 205 l 1122 194 q 1107 208 1107 194 l 1107 222 q 1122 235 1110 235 m 1122 222 l 1122 208 l 1135 208 l 1135 222 l 1122 222 m 1184 229 l 1191 229 q 1204 215 1204 227 l 1204 201 l 1184 215 l 1184 201 l 1198 201 l 1198 187 l 1184 187 q 1170 201 1170 187 l 1170 215 q 1184 229 1173 229 m 650 187 l 650 180 q 755 104 713 104 l 755 153 q 685 208 755 208 q 650 187 650 203 m 540 180 l 547 146 l 568 146 q 588 166 577 146 l 588 173 q 568 194 588 183 l 553 194 q 540 180 540 192 m 1059 194 l 1059 180 l 1073 180 l 1073 194 l 1059 194 m 408 187 l 408 180 q 456 90 408 90 q 519 138 505 123 l 519 146 q 498 187 498 168 l 408 187 m 1128 180 l 1149 180 q 1170 146 1165 180 q 1122 111 1160 111 l 1101 146 q 1128 180 1114 177 m 1122 153 l 1122 146 q 1135 132 1124 132 l 1149 132 q 1156 153 1149 139 l 1135 166 q 1122 153 1122 164 m 1204 173 l 1219 173 q 1232 159 1232 171 l 1232 146 q 1219 132 1232 132 l 1212 132 q 1198 146 1198 132 l 1198 159 l 1219 146 l 1219 159 l 1204 159 l 1204 173 m 644 153 l 658 28 l 713 28 q 747 83 747 45 l 747 90 q 644 153 715 90 m 810 118 l 810 97 l 831 97 q 852 118 841 97 l 852 132 l 824 132 q 810 118 810 130 m 1059 138 l 1073 138 q 1087 125 1087 136 l 1087 118 q 1066 97 1087 108 q 1046 118 1056 97 l 1046 125 q 1059 138 1048 138 m 1059 125 l 1059 118 l 1073 118 l 1073 125 l 1059 125 m 1212 97 l 1212 83 q 1225 69 1214 69 l 1240 69 l 1240 90 q 1212 97 1215 97 m 235 62 l 235 28 q 262 21 262 28 l 277 28 l 346 28 l 346 35 q 304 90 313 90 l 297 90 q 235 62 244 90 z "},"2":{"ha":1030,"x_min":27,"x_max":1013,"o":"m 577 970 l 592 970 q 684 916 629 970 q 821 962 762 962 q 867 794 842 918 l 859 756 q 913 604 913 667 l 936 604 l 1013 595 l 1013 581 l 920 588 l 913 588 q 905 527 913 569 q 959 511 944 511 l 959 496 l 898 496 q 882 458 898 483 q 966 412 966 423 q 959 405 959 412 q 875 435 898 435 q 821 382 863 435 q 867 328 858 328 q 882 344 869 344 l 898 344 q 920 321 909 344 l 920 298 q 890 275 920 290 q 943 145 943 162 q 676 0 722 0 q 669 7 669 0 l 615 0 l 508 0 q 378 7 437 0 q 264 0 345 0 l 249 0 q 218 54 218 12 q 317 115 243 115 l 317 130 q 378 298 317 155 l 378 328 l 363 328 q 195 366 281 328 q 165 336 195 355 l 157 336 l 157 344 l 180 374 l 180 382 l 142 428 q 96 412 117 412 l 96 420 l 126 450 q 111 511 111 499 l 104 511 q 27 496 88 511 q 104 527 35 527 l 104 572 q 180 794 104 675 l 180 802 q 172 832 180 819 q 249 962 199 962 q 378 886 283 962 l 524 886 q 577 970 553 970 m 531 802 q 577 771 538 771 q 623 779 617 779 l 623 810 q 600 825 600 810 l 600 848 q 615 863 602 863 l 638 863 q 646 855 646 863 q 669 863 661 863 q 592 947 653 947 l 585 947 q 531 802 553 947 m 203 848 l 203 802 q 226 787 226 802 q 126 565 126 718 l 126 550 q 157 534 126 534 l 157 519 l 134 519 q 157 450 134 505 l 172 458 l 187 458 l 187 443 l 172 443 l 172 428 q 203 397 172 416 l 210 397 l 233 412 l 233 405 q 226 382 226 390 q 493 344 226 361 q 837 428 713 344 l 837 450 l 821 450 l 821 466 q 875 511 875 466 l 837 511 l 837 527 q 890 581 890 527 q 867 588 876 588 l 829 581 l 829 595 l 882 604 l 882 626 q 837 726 882 692 q 760 665 808 665 l 745 665 q 669 733 687 733 q 631 764 631 753 l 592 756 l 547 756 q 516 787 534 756 l 516 863 l 439 863 l 363 855 q 256 939 336 897 q 203 848 215 939 m 692 886 l 692 871 q 753 840 719 871 l 829 840 l 829 855 q 798 939 817 939 q 692 886 748 939 m 646 817 l 646 779 q 676 748 646 767 l 707 748 q 737 779 719 748 l 737 825 q 699 855 737 836 q 646 817 652 840 m 615 848 l 615 825 l 623 825 q 638 840 638 825 l 638 848 l 615 848 m 760 810 l 760 794 q 783 779 783 794 l 783 756 q 768 741 783 741 l 730 748 l 714 726 q 753 680 725 694 l 775 680 q 844 787 844 736 l 844 802 q 798 825 837 825 l 775 825 q 760 810 760 823 m 753 779 l 753 756 l 768 756 l 768 779 l 753 779 m 287 572 l 294 572 q 317 527 317 565 l 317 519 q 302 504 317 504 l 287 504 q 264 527 276 504 q 287 572 269 572 m 714 572 l 730 572 q 745 557 745 570 l 745 527 q 722 504 745 516 q 699 527 711 504 l 699 557 q 714 572 701 572 m 500 504 q 547 481 547 499 l 547 466 q 524 443 547 455 l 493 443 q 477 458 477 443 l 493 458 q 500 450 500 458 q 531 458 514 458 l 531 473 q 500 489 531 489 l 500 504 m 477 489 l 486 489 q 477 458 477 475 l 463 458 l 463 473 q 477 489 465 489 m 791 374 l 791 359 q 806 344 793 344 l 814 344 l 814 359 q 798 374 814 374 l 791 374 m 600 244 q 699 77 663 116 l 714 77 q 867 160 858 160 l 867 168 q 783 260 867 220 l 791 290 q 768 351 786 351 q 600 244 600 271 m 547 275 l 547 260 l 577 260 q 707 336 688 336 l 707 344 l 692 344 q 547 275 669 344 m 798 321 l 814 290 q 806 260 806 277 q 844 237 844 260 l 859 237 q 875 260 875 237 l 829 336 l 798 321 m 416 328 q 340 130 410 290 q 500 23 340 23 q 646 31 524 23 q 608 122 646 45 l 554 115 q 401 244 401 167 q 470 290 401 290 l 470 321 l 416 328 m 493 305 q 516 275 505 275 q 577 305 559 305 l 577 328 l 508 328 q 493 305 493 328 m 875 313 l 875 298 l 905 298 l 905 313 q 890 328 905 328 q 875 313 875 326 m 425 244 q 554 138 425 176 q 592 153 592 138 q 585 237 585 220 l 577 237 l 538 229 q 463 267 538 248 l 447 267 q 425 244 436 267 m 867 222 q 890 160 890 183 q 692 54 802 97 l 615 168 l 615 153 q 692 23 661 23 q 920 168 920 137 l 890 229 q 867 222 876 222 m 241 46 q 249 23 249 31 l 317 23 l 355 31 l 317 92 q 241 46 241 79 z "},"3":{"ha":939,"x_min":27,"x_max":922,"o":"m 578 970 l 591 970 q 678 838 635 970 q 701 788 678 804 q 762 656 739 739 q 827 634 762 640 q 849 618 849 621 q 843 612 849 612 q 773 629 793 629 q 762 581 762 629 l 762 578 q 807 548 762 574 l 807 545 l 802 545 q 765 556 768 556 l 762 556 q 748 526 748 547 q 798 494 748 522 q 815 478 815 481 q 810 472 815 472 l 807 472 q 748 506 791 486 l 737 506 q 687 456 688 456 l 687 453 q 720 380 720 416 l 723 380 q 807 431 807 421 q 860 486 807 461 l 894 486 q 922 441 922 473 q 857 380 922 387 q 787 313 847 380 q 712 232 712 239 q 718 207 718 214 l 718 201 q 623 145 718 182 q 608 134 610 140 l 614 125 l 614 115 q 547 42 614 64 l 446 8 q 343 0 387 0 q 201 125 201 0 l 201 154 q 203 210 201 172 q 164 260 164 242 l 164 282 q 201 307 176 307 l 206 307 q 251 288 216 307 l 259 288 q 292 330 271 291 l 292 332 q 231 355 292 338 l 184 380 q 102 324 157 375 l 100 324 q 94 330 94 324 q 167 391 120 363 l 167 394 q 136 433 136 428 l 130 433 q 83 414 125 433 l 80 419 q 122 453 122 450 q 102 498 117 471 q 30 464 58 482 l 27 469 l 27 472 q 97 514 34 486 l 100 520 l 100 573 q 105 623 105 622 q 69 688 69 662 l 69 690 q 80 721 69 703 q 64 822 64 765 q 109 861 64 861 q 139 863 118 863 q 209 861 149 863 q 264 908 227 908 q 351 852 298 908 q 474 886 397 872 q 578 970 524 946 m 363 830 q 379 766 379 794 q 307 710 379 710 l 273 710 q 239 679 248 679 l 239 648 q 184 593 234 593 q 130 609 159 593 l 125 609 l 119 576 l 119 539 q 127 523 121 523 l 175 523 l 189 520 l 189 511 q 130 500 130 509 l 130 492 q 150 458 138 458 q 189 464 171 464 l 189 458 q 161 444 189 455 l 159 439 q 195 406 168 416 q 229 414 220 414 q 234 408 234 413 l 209 391 q 357 352 272 352 q 536 402 428 352 q 566 444 558 402 q 628 475 591 475 q 667 469 634 475 q 712 511 696 485 l 712 514 q 675 528 712 518 l 675 531 q 681 536 676 536 l 692 536 q 718 531 699 536 q 734 562 734 536 q 695 576 695 571 q 718 581 712 581 q 726 578 723 578 q 743 590 743 584 l 743 621 q 732 629 743 625 l 690 621 q 684 629 684 627 q 737 646 686 636 l 740 651 q 640 822 740 724 l 640 825 l 656 836 q 600 947 656 883 l 586 950 q 494 872 541 937 q 388 847 479 863 q 363 830 363 833 m 220 805 q 231 802 225 802 l 237 802 q 264 813 252 813 q 292 780 292 802 q 276 752 292 777 l 276 730 l 290 726 q 357 749 343 726 l 357 783 q 290 880 357 827 q 267 888 270 888 q 217 808 228 888 q 220 805 217 805 m 80 816 q 97 735 86 768 q 153 771 153 744 q 201 808 171 795 q 203 827 201 824 q 178 841 203 841 l 109 841 q 80 816 87 841 m 251 796 l 251 791 q 271 771 251 787 q 276 777 276 771 l 276 780 q 259 800 276 795 q 251 796 254 796 m 161 738 q 201 690 161 701 l 209 690 q 256 735 256 696 l 256 741 q 209 788 247 788 q 161 738 161 776 m 89 688 q 184 609 89 642 q 220 646 212 609 l 220 668 q 214 673 220 673 l 201 673 q 172 656 183 660 q 144 676 153 656 l 144 685 q 150 707 144 687 q 142 726 150 716 q 89 688 89 715 m 159 688 l 159 679 q 172 671 159 673 q 181 673 178 673 l 181 676 q 161 688 176 688 l 159 688 m 628 634 l 642 634 q 659 606 659 623 l 659 590 q 640 578 654 578 l 636 578 q 617 621 617 587 q 628 634 623 633 m 499 551 l 505 551 q 525 526 525 540 q 491 498 513 498 l 474 498 q 460 511 471 498 l 460 526 q 499 551 476 551 m 471 523 q 488 509 473 509 q 511 531 511 512 q 503 536 504 536 l 488 536 q 471 523 486 536 m 279 531 l 292 531 q 309 498 309 521 l 309 486 q 298 475 309 482 l 284 475 q 267 503 267 486 l 267 520 q 279 531 267 524 m 575 414 l 575 411 q 600 383 575 388 q 640 352 612 383 l 659 349 q 701 386 701 360 l 701 391 q 636 456 686 456 l 620 456 q 575 414 575 447 m 178 269 q 209 229 178 250 l 214 229 q 239 271 214 241 q 197 291 225 291 q 178 269 186 288 m 323 235 q 376 154 323 165 l 382 154 q 424 201 410 154 q 441 218 428 201 q 410 252 441 236 q 323 235 390 249 m 222 148 l 220 142 l 220 129 q 349 17 220 17 l 357 17 q 508 62 508 30 q 519 90 511 62 q 491 134 515 134 q 363 112 412 112 l 354 112 q 222 148 296 112 m 530 120 q 536 98 536 110 q 530 59 536 88 q 533 56 533 59 q 597 115 597 73 l 591 134 q 530 120 530 127 z "},"4":{"ha":885,"x_min":27,"x_max":865,"o":"m 223 980 l 236 980 q 330 926 277 970 q 387 958 372 958 l 391 958 q 441 910 418 958 q 454 907 447 907 l 486 907 q 593 895 506 907 q 701 958 655 958 l 732 958 q 770 866 770 926 l 770 854 l 764 797 q 821 645 821 720 l 827 639 q 865 629 865 637 q 859 623 865 623 l 827 623 q 811 575 821 623 q 862 550 811 567 l 865 544 l 859 541 q 817 550 852 541 l 811 550 q 789 503 789 528 q 805 493 805 498 q 760 471 770 493 q 615 408 721 432 l 615 405 q 625 398 616 405 l 634 398 q 663 405 642 398 q 691 367 686 405 q 716 319 691 353 l 716 310 q 663 259 716 271 l 653 259 l 621 262 l 618 256 l 618 234 q 609 120 618 208 q 634 79 621 120 l 634 60 q 536 9 634 9 q 454 0 488 0 q 271 47 271 0 q 267 76 267 64 l 267 114 q 242 158 259 158 q 189 186 189 168 l 189 202 q 214 231 193 231 q 255 228 216 231 l 258 243 q 210 256 258 248 q 182 310 182 281 q 189 345 189 322 l 189 363 q 208 382 189 368 l 217 382 l 236 379 q 293 405 288 405 l 293 408 q 223 430 291 414 q 179 449 189 449 q 141 417 157 433 l 138 417 l 138 427 q 170 458 138 431 q 125 506 136 506 q 90 493 100 493 l 87 499 q 122 525 122 519 l 125 525 q 106 585 116 545 q 31 566 89 585 l 27 572 q 100 597 42 589 l 103 604 l 103 607 q 141 771 103 698 q 122 825 122 821 l 122 831 q 172 879 122 861 q 223 980 172 920 m 195 895 l 195 885 q 236 873 195 880 q 252 866 236 866 q 309 891 272 891 q 318 904 315 904 q 239 958 286 943 l 229 958 q 195 895 204 932 m 590 873 q 451 888 550 888 q 448 885 451 885 l 454 828 q 397 774 454 774 l 349 784 l 343 784 q 280 759 316 759 q 223 702 248 703 l 220 702 q 153 749 189 702 q 122 639 122 710 l 122 610 q 128 604 123 604 l 144 604 q 179 594 179 604 l 172 591 l 147 591 l 125 585 q 147 528 136 528 q 176 534 168 534 l 179 534 q 185 528 185 533 l 151 515 l 151 509 q 185 474 151 498 l 214 490 l 217 484 q 201 468 201 471 l 201 462 q 476 420 283 420 l 498 420 q 754 496 688 420 q 729 509 754 503 l 729 512 l 735 515 l 767 515 q 786 553 778 519 q 767 563 783 563 l 748 563 l 748 572 l 786 572 q 798 620 798 572 l 798 623 q 789 626 795 623 q 739 620 744 620 l 739 623 q 798 642 739 631 l 798 654 q 732 809 798 715 l 732 816 q 751 857 751 816 q 720 942 751 917 l 713 942 q 606 885 666 942 q 590 873 606 876 m 261 629 q 283 607 283 629 l 283 591 q 264 569 283 569 q 245 594 245 576 l 245 604 q 261 629 245 621 m 650 620 q 672 594 668 620 q 647 559 672 559 q 634 572 642 559 l 634 607 q 650 620 635 614 m 451 559 l 460 559 q 489 541 477 559 l 489 537 q 473 512 489 520 l 435 512 q 419 528 431 512 l 419 531 q 451 559 419 555 m 429 534 q 457 518 429 521 q 479 534 477 525 q 457 550 470 550 q 429 534 437 550 m 805 493 l 814 493 l 814 487 l 811 487 q 805 493 805 487 m 290 379 q 334 303 317 319 q 394 357 394 330 l 394 379 q 359 405 380 405 l 343 405 q 290 379 311 398 m 444 398 l 444 382 q 492 322 452 322 l 495 322 q 543 363 543 322 l 543 392 q 533 401 543 397 l 460 401 l 444 398 m 593 389 l 593 386 q 602 373 597 373 l 606 379 l 606 382 q 600 389 606 389 l 593 389 m 606 351 l 606 319 q 644 272 606 272 l 666 272 q 704 313 699 272 q 682 357 704 322 q 663 389 682 382 l 656 389 q 606 351 608 370 m 198 303 q 242 266 207 266 l 264 266 l 280 256 q 309 291 297 256 q 312 294 312 291 l 312 300 q 267 376 280 367 q 198 303 198 343 m 552 281 l 552 275 q 558 269 553 269 l 568 269 q 574 278 574 269 q 571 288 571 284 l 558 288 q 552 281 552 287 m 425 278 l 425 272 q 435 262 425 267 l 444 262 l 448 278 l 441 281 l 425 278 m 296 243 l 296 240 l 302 240 l 302 243 l 296 243 m 349 228 l 359 212 q 347 190 359 195 l 328 190 l 315 199 q 302 168 302 184 q 404 101 302 126 q 441 145 437 101 q 378 240 419 240 l 375 240 q 349 228 349 240 m 315 231 l 315 224 q 340 205 328 205 l 340 209 q 318 231 340 213 l 315 231 m 204 205 l 204 193 q 233 177 204 183 l 242 177 q 248 183 248 177 l 248 209 q 217 215 229 215 q 204 205 204 210 m 545 101 q 555 76 555 99 l 555 63 q 552 32 552 45 q 558 28 558 32 q 615 66 615 33 l 615 70 q 587 111 615 104 q 545 101 545 109 m 290 107 l 286 101 l 286 70 q 334 28 286 28 q 482 19 334 22 q 536 70 536 27 l 536 73 q 520 104 536 95 l 505 101 l 457 101 q 404 82 415 82 q 330 104 385 82 q 290 107 292 107 z "},"5":{"ha":1392,"x_min":27,"x_max":1359,"o":"m 265 972 q 391 889 303 972 q 447 892 429 892 l 533 892 q 576 962 537 892 q 602 972 592 972 l 618 972 q 692 916 646 972 l 695 916 q 830 962 781 962 q 863 856 863 911 l 863 833 l 873 800 l 873 797 q 863 747 873 779 q 913 615 913 688 q 956 591 913 591 q 1029 572 1029 585 l 1022 568 l 960 582 l 916 582 q 909 519 909 526 l 909 515 q 969 489 969 498 q 962 483 969 483 q 920 496 935 496 l 920 492 q 933 443 933 453 l 933 407 q 821 294 933 355 q 810 281 812 294 l 814 241 q 774 185 814 210 q 787 119 781 176 l 787 113 l 794 113 q 837 155 794 138 l 857 155 q 880 136 880 142 l 880 125 q 837 79 880 96 l 837 66 q 886 53 861 53 l 893 53 q 930 63 930 53 l 930 90 q 1015 298 930 170 l 1029 357 q 1068 380 1043 380 q 1112 340 1100 380 q 1161 334 1118 338 q 1204 377 1176 334 l 1227 380 q 1267 314 1267 380 q 1359 116 1359 170 l 1359 76 q 1290 7 1341 7 l 1211 0 q 1168 3 1189 3 l 1088 3 q 939 39 1002 3 q 900 33 916 33 l 870 33 q 794 79 833 33 l 791 79 q 718 7 753 7 q 616 0 700 0 l 513 0 q 381 13 418 0 q 288 3 307 3 l 258 3 q 212 43 220 3 q 304 116 212 116 q 318 172 311 121 q 384 324 384 283 q 378 334 381 334 q 199 377 301 334 l 196 377 l 159 347 l 153 347 l 153 354 q 186 387 153 356 l 186 390 q 143 439 149 438 l 140 439 q 100 427 134 439 l 96 433 q 136 456 97 437 l 117 529 l 96 529 q 31 509 86 529 l 27 515 q 113 545 54 532 l 113 568 q 196 790 113 711 l 193 813 l 193 856 q 262 972 193 918 l 265 972 m 216 820 l 219 813 l 225 817 l 232 817 q 239 810 239 815 l 239 803 q 136 602 136 716 q 133 559 133 602 q 143 549 133 554 l 163 549 q 199 538 199 549 l 193 536 l 146 536 q 140 529 140 534 q 163 463 153 463 q 182 469 174 469 l 205 469 l 205 460 l 193 460 l 170 453 l 170 443 q 202 407 185 418 l 212 407 l 239 423 q 245 416 245 422 q 225 397 241 416 q 493 347 225 363 q 530 383 498 347 q 606 413 566 413 q 665 377 665 405 l 695 380 l 724 377 q 745 387 728 387 l 758 387 l 758 393 q 745 436 745 433 q 844 526 745 488 l 877 529 l 877 526 q 893 562 893 532 l 893 575 q 886 582 893 582 l 873 582 l 824 572 l 821 578 q 893 602 832 589 l 893 605 q 850 721 893 679 q 768 658 801 658 q 701 730 734 658 q 639 767 674 730 q 583 757 608 757 l 576 757 q 526 806 526 757 q 533 863 526 818 q 470 873 523 873 l 463 873 q 374 866 383 866 q 269 949 310 949 l 262 949 q 216 869 229 928 l 216 820 m 701 896 l 701 880 l 751 853 l 768 840 l 821 840 l 837 836 l 840 843 l 840 863 q 814 942 833 937 l 810 942 q 701 896 759 926 m 298 578 q 318 536 318 578 q 295 512 318 512 q 275 536 275 512 l 275 562 q 298 578 285 578 m 722 572 l 734 572 q 751 538 745 572 q 734 506 751 519 l 722 506 q 705 532 705 514 l 705 545 q 722 572 705 564 m 837 503 q 844 496 838 496 l 870 496 l 870 503 l 837 503 m 516 503 q 546 483 534 503 q 510 446 546 446 q 467 479 467 453 q 516 503 477 503 m 480 473 q 510 456 480 460 q 536 479 536 463 l 516 492 q 480 473 480 489 m 814 486 l 814 483 l 821 483 l 821 486 l 814 486 m 791 473 l 791 466 l 804 466 l 804 469 q 791 473 796 469 m 781 410 l 781 400 q 794 370 794 385 l 781 363 q 804 314 787 314 q 907 433 907 357 l 907 436 q 893 473 907 460 q 781 410 829 473 m 768 439 l 768 436 l 774 436 l 774 439 l 768 439 m 576 380 q 583 374 577 374 l 642 374 l 642 380 l 576 380 m 728 351 q 705 360 720 351 l 695 360 q 665 321 665 360 q 688 261 665 311 q 771 304 699 261 l 754 370 l 748 370 q 728 351 746 370 m 556 363 l 556 360 l 563 360 l 563 363 l 556 363 m 1048 324 q 1052 311 1048 322 q 992 208 1017 246 q 956 76 956 142 l 956 69 q 1068 30 956 45 l 1105 30 l 1115 23 q 1158 26 1129 23 q 1200 23 1160 26 l 1297 37 l 1310 37 q 1326 56 1310 44 q 1333 92 1333 83 q 1240 304 1333 182 q 1244 330 1240 313 q 1234 354 1240 354 l 1227 354 q 1204 317 1204 354 l 1174 311 q 1151 314 1161 314 l 1144 311 q 1085 324 1136 317 l 1082 340 l 1082 351 l 1065 354 l 1062 354 q 1048 324 1048 349 m 549 317 q 612 258 572 258 q 625 251 612 255 q 662 258 630 254 l 639 328 q 642 340 642 333 l 609 347 q 549 317 549 339 m 334 122 q 427 30 355 30 q 530 23 446 23 l 579 23 q 609 26 591 23 l 616 23 q 635 33 635 28 q 612 201 627 201 l 602 201 q 595 195 595 201 q 606 175 606 192 l 606 165 q 579 132 606 146 l 563 132 l 539 139 q 496 99 539 123 q 454 76 496 79 q 397 175 397 76 l 397 212 q 467 307 397 295 q 470 311 467 311 q 420 330 470 330 q 404 284 408 330 q 334 122 334 166 m 493 324 l 490 317 l 490 314 q 543 235 495 273 q 576 224 572 224 l 602 224 l 602 231 q 523 301 568 231 q 493 324 509 324 m 705 248 l 705 245 q 754 212 729 212 l 768 212 q 794 251 794 224 q 777 291 785 291 l 774 291 q 705 248 705 252 m 414 218 q 417 208 417 212 l 440 208 q 454 205 448 208 q 467 208 459 208 l 496 208 l 496 235 q 467 284 496 271 l 460 284 q 414 222 427 284 l 414 218 m 1144 271 q 1267 192 1240 271 q 1270 178 1270 186 l 1270 122 q 1263 109 1263 114 q 1270 90 1270 98 l 1270 79 q 1230 50 1270 64 l 1207 53 q 1158 39 1194 47 l 1121 39 l 1072 56 q 1022 125 1022 93 l 1022 162 q 1144 271 1022 250 m 635 224 l 635 215 q 665 224 642 215 l 665 231 l 642 231 q 635 224 635 231 m 519 228 l 519 178 l 530 178 q 549 212 530 190 l 549 215 l 519 228 m 652 189 l 652 182 q 758 109 712 113 l 761 109 l 761 122 q 724 198 761 198 l 705 212 l 698 212 q 652 189 668 212 m 543 172 q 559 149 549 151 l 576 149 q 589 162 581 149 l 589 172 q 572 195 589 189 l 559 195 q 543 172 551 193 m 414 185 l 414 155 q 454 92 414 102 l 460 92 q 496 125 479 92 q 523 149 523 125 q 496 192 509 163 l 420 192 q 414 185 414 191 m 1128 149 q 1138 136 1133 136 l 1147 136 q 1158 145 1152 136 l 1158 152 q 1141 165 1156 159 q 1128 149 1128 162 m 648 145 q 659 30 659 71 l 665 26 l 701 26 q 758 79 735 26 q 701 109 758 89 l 655 149 l 648 145 m 810 106 q 827 96 821 96 q 857 119 850 105 l 857 132 l 840 139 q 810 106 810 122 m 235 50 q 249 26 235 32 l 288 26 q 348 37 348 26 q 304 92 315 92 q 235 50 235 92 z "},"6":{"ha":632,"x_min":34,"x_max":610,"o":"m 286 970 q 316 942 299 970 q 330 920 327 942 l 326 913 l 328 909 q 314 887 328 899 l 312 887 q 290 901 298 901 l 290 893 q 336 794 328 804 q 369 765 350 791 q 442 789 414 789 q 464 707 453 779 q 466 704 466 707 q 462 676 462 685 q 489 603 479 664 l 493 601 l 499 601 q 545 589 545 597 l 541 587 l 538 587 q 495 595 502 595 q 486 562 486 595 q 515 546 515 550 q 513 544 513 546 l 486 550 q 473 524 473 536 q 487 518 482 518 q 549 562 507 525 q 560 566 555 566 l 566 566 q 610 495 595 566 l 610 483 q 564 408 604 408 q 515 439 551 408 q 484 452 488 452 l 481 452 l 481 432 q 444 394 481 411 q 418 385 418 389 q 428 339 422 376 q 450 337 441 337 l 464 337 q 469 326 469 335 l 469 302 q 486 272 469 272 q 509 248 495 272 q 507 241 507 245 q 523 207 523 222 l 523 201 q 479 181 523 192 l 479 179 q 530 163 530 173 l 530 156 q 509 113 530 134 l 499 113 l 499 98 q 452 73 476 76 l 438 75 q 367 2 376 2 q 353 0 353 2 l 343 2 l 277 2 q 271 0 271 2 l 260 2 l 93 2 q 87 8 90 2 l 87 215 q 113 258 87 239 l 140 294 q 129 313 129 304 q 176 349 135 349 q 182 376 180 352 q 215 459 215 436 q 160 469 211 465 l 121 485 q 101 469 117 485 q 97 473 97 469 q 113 491 113 485 q 89 517 95 517 q 75 511 84 517 l 69 511 l 69 513 l 85 526 q 67 564 80 564 l 34 552 l 34 554 q 71 570 37 562 l 73 570 l 73 576 q 115 698 73 657 l 113 722 l 113 726 q 144 791 113 765 q 150 792 148 792 q 210 757 176 786 l 212 757 l 269 897 q 249 907 269 907 l 235 905 q 229 922 230 911 q 241 938 229 938 l 241 948 q 256 964 246 959 l 264 964 q 275 956 273 956 l 277 956 q 286 970 277 964 m 275 873 l 275 871 l 278 871 l 278 873 l 275 873 m 284 863 l 284 861 l 288 861 l 288 863 l 284 863 m 294 846 l 294 842 l 296 842 l 296 846 l 294 846 m 302 822 l 302 816 l 306 816 l 306 822 l 302 822 m 255 820 l 255 816 l 258 816 q 255 820 258 820 m 304 806 l 304 800 l 306 800 l 306 806 l 304 806 m 249 798 l 249 794 l 251 794 l 251 798 l 249 798 m 125 724 q 138 707 125 707 q 109 676 138 705 q 85 603 85 634 l 85 574 l 105 574 l 115 572 l 115 566 l 93 566 q 87 562 88 562 q 103 528 94 528 q 115 532 109 532 l 121 532 l 121 528 q 103 520 103 524 q 125 498 103 514 q 136 507 126 498 q 140 503 140 506 l 132 495 q 233 473 162 473 l 251 473 l 271 471 q 300 507 289 495 l 314 507 q 340 498 320 507 q 341 500 341 498 l 351 498 q 381 511 362 498 q 387 509 383 511 q 404 511 397 511 l 418 511 q 434 505 424 511 q 450 517 441 505 l 450 520 q 436 528 436 523 q 438 530 438 528 l 452 528 l 456 528 q 469 552 463 528 q 446 558 467 555 l 446 559 q 450 564 446 564 l 469 564 q 475 585 475 564 l 475 589 q 471 593 475 593 q 442 587 459 593 l 440 591 q 473 603 440 595 l 475 607 l 475 609 q 454 664 475 639 q 410 633 429 633 l 406 633 q 375 670 391 642 q 343 688 361 673 q 314 682 319 682 q 284 713 288 682 q 208 731 227 720 q 184 765 203 746 q 150 781 157 781 q 125 724 128 772 m 375 749 q 401 735 375 743 q 410 726 401 733 l 420 728 l 438 728 q 440 726 440 728 q 446 728 444 728 l 446 735 q 430 779 446 772 q 375 749 375 760 m 255 777 l 255 770 l 256 770 l 256 777 l 255 777 m 316 772 q 328 769 324 769 q 334 772 328 772 l 334 777 l 319 777 q 316 772 316 776 m 336 770 l 336 769 l 341 761 l 341 759 l 336 759 l 336 755 q 340 751 336 751 l 343 751 q 345 765 343 757 l 336 770 m 229 767 l 229 757 l 231 757 l 231 767 l 229 767 m 310 767 l 310 761 l 314 761 l 314 767 l 310 767 m 357 757 q 351 747 357 747 q 345 749 347 749 l 343 745 l 361 743 l 361 745 q 359 757 359 755 l 357 757 m 310 753 q 318 745 312 745 l 318 739 l 316 735 l 319 733 l 321 733 q 328 747 326 733 q 310 753 321 752 m 334 747 l 334 745 l 341 745 l 341 747 l 334 747 m 302 739 l 302 729 l 300 726 l 304 724 q 310 737 306 731 l 308 741 q 302 739 304 739 m 381 729 l 381 728 l 387 728 l 387 729 l 381 729 m 365 726 q 367 715 367 722 l 369 715 l 369 726 l 365 726 m 385 726 l 381 718 l 385 715 l 391 715 q 395 720 395 715 l 395 722 q 385 726 390 722 m 321 724 l 316 700 l 319 698 l 323 698 l 328 700 l 323 707 q 326 709 323 709 q 323 724 323 718 l 321 724 m 361 722 l 361 718 l 363 718 l 363 722 l 361 722 m 355 713 l 355 698 l 359 698 l 359 713 l 355 713 m 375 711 l 377 707 q 359 692 377 694 l 359 690 q 375 688 368 690 l 379 690 l 382 688 q 397 700 392 688 l 397 704 l 391 704 q 385 694 391 694 l 382 694 q 379 698 379 694 l 379 711 l 375 711 m 414 711 l 414 707 l 424 707 q 428 711 428 707 l 414 711 m 434 711 l 446 704 l 446 688 l 448 688 q 452 692 452 688 l 452 702 q 446 711 446 708 l 434 711 m 428 696 l 428 680 l 420 670 q 430 668 427 670 l 428 664 l 428 661 l 430 661 q 442 672 435 661 l 442 676 q 432 682 432 676 l 434 696 l 428 696 m 393 668 l 393 663 q 399 661 395 663 l 399 663 q 397 668 397 666 l 393 668 m 410 666 l 412 663 q 401 656 410 656 q 404 652 401 652 l 418 652 q 414 664 414 661 q 416 666 416 664 l 410 666 m 164 587 l 172 587 q 182 572 182 581 q 170 554 182 562 l 168 554 q 158 564 165 554 l 158 576 q 164 587 159 587 m 387 587 l 395 587 q 403 574 403 584 l 403 570 q 393 554 403 559 l 389 554 q 381 562 386 554 l 381 581 q 387 587 381 585 m 529 489 q 562 418 532 418 l 568 418 q 602 479 593 418 l 602 483 q 564 558 596 545 q 529 498 529 549 l 529 489 m 284 552 q 298 536 298 548 l 298 534 q 277 522 292 522 q 258 532 267 522 l 258 540 q 284 552 264 552 m 264 538 l 264 536 q 269 528 269 531 l 284 528 q 292 536 288 528 l 292 538 q 284 546 292 541 l 278 546 q 264 538 268 546 m 430 495 l 430 483 q 464 467 430 467 q 525 448 518 448 q 519 489 519 466 q 521 526 519 495 q 430 495 492 506 m 377 500 l 375 487 l 375 483 q 381 467 375 469 l 385 467 l 387 477 l 387 481 l 385 500 l 377 500 m 395 500 l 393 487 l 393 481 q 397 465 393 473 q 404 477 404 467 l 404 491 l 403 500 l 395 500 m 410 493 q 412 467 412 476 l 418 467 q 422 471 422 467 l 422 491 l 420 500 l 416 500 q 410 493 414 500 m 300 495 l 300 491 q 312 481 300 488 l 321 481 q 326 485 326 481 l 326 493 q 314 498 323 498 l 304 498 q 300 495 300 498 m 336 491 l 336 481 q 340 477 336 477 l 363 477 q 367 481 367 477 l 367 487 q 363 491 367 491 l 336 491 m 278 461 q 300 424 290 435 l 302 424 q 332 453 325 437 q 302 475 328 475 q 294 483 302 478 l 290 483 q 278 461 286 483 m 336 432 q 399 396 336 401 l 412 396 q 471 432 471 405 l 471 450 q 462 459 471 452 l 456 459 l 460 435 q 395 408 460 408 q 349 433 368 408 l 349 444 q 355 467 349 450 l 351 467 q 336 432 336 467 m 355 444 q 401 414 355 420 l 412 414 q 452 433 435 414 l 452 437 q 432 463 452 452 l 426 463 q 401 457 423 460 q 393 459 397 459 l 379 457 l 369 463 l 367 463 q 355 444 359 463 m 235 457 l 235 455 l 239 455 l 239 457 l 235 457 m 251 439 q 255 435 252 435 l 256 435 l 256 439 l 251 439 m 245 418 l 249 416 l 251 416 q 249 422 249 420 q 245 418 245 421 m 280 422 q 278 418 280 418 q 273 420 275 420 l 273 416 l 278 416 q 282 420 282 416 l 282 422 l 280 422 m 351 396 l 349 392 q 359 306 357 357 q 367 304 363 306 q 410 331 403 304 l 412 341 l 412 357 q 391 389 412 389 q 351 396 357 392 m 302 385 l 302 380 l 304 380 l 304 385 l 302 385 m 310 378 l 306 372 l 306 370 l 308 370 q 314 372 312 372 q 316 370 314 370 l 318 374 q 310 378 315 374 m 140 319 l 140 315 q 154 302 140 302 q 199 309 199 304 q 180 337 193 314 l 172 337 q 140 319 149 337 m 422 319 l 422 317 l 432 315 q 440 323 435 315 q 434 326 436 326 q 422 319 422 323 m 452 311 l 450 298 q 452 292 452 294 l 450 292 q 452 286 452 288 q 450 280 450 282 l 454 280 l 456 290 l 456 307 l 458 311 l 452 311 m 334 290 q 316 280 316 290 l 326 278 l 406 278 q 428 207 414 278 l 430 207 q 436 260 436 248 l 436 296 q 430 302 436 298 l 414 302 q 347 290 382 290 l 334 290 m 149 284 q 193 280 158 280 l 201 280 q 210 278 206 280 q 217 280 213 280 l 233 280 q 241 288 236 280 l 241 292 l 237 292 q 215 296 235 292 q 149 284 149 290 m 203 227 l 203 159 q 208 156 204 156 l 239 156 q 255 168 255 156 l 255 219 q 304 284 255 237 l 304 286 q 300 290 304 290 l 267 290 q 203 227 255 290 m 442 209 l 442 201 l 452 199 q 495 250 495 224 q 466 270 495 260 q 442 209 442 262 m 111 239 l 111 237 l 125 235 l 188 235 q 217 264 191 235 l 219 264 q 215 268 219 268 l 203 268 q 197 266 197 268 l 188 268 l 144 268 q 119 246 137 268 q 111 239 115 246 m 282 241 l 282 239 l 296 237 q 302 239 298 237 q 343 235 323 235 q 347 239 344 239 q 351 235 348 235 l 357 235 q 389 264 368 239 l 389 266 l 381 266 q 373 268 376 266 q 365 266 370 266 l 347 268 q 341 266 345 268 q 319 268 328 268 l 318 268 q 282 241 301 268 m 401 258 q 381 229 401 254 q 382 224 381 224 l 381 201 l 381 179 l 382 165 l 385 165 l 420 189 q 404 258 414 203 l 401 258 m 499 231 q 464 193 499 222 l 467 191 q 513 207 513 199 l 513 209 q 501 231 507 231 l 499 231 m 103 221 l 105 217 l 105 215 l 101 215 l 101 161 q 105 159 105 161 l 115 161 q 149 159 127 161 q 160 161 159 161 q 188 159 172 159 l 190 170 l 190 185 q 188 219 190 195 q 190 221 190 219 l 188 221 q 144 222 170 221 q 103 221 122 221 m 269 221 q 271 219 269 219 q 269 203 269 208 q 271 183 269 194 q 269 161 269 173 q 275 158 275 159 q 282 161 282 159 l 302 159 l 359 159 q 363 163 363 159 l 363 178 q 365 221 363 191 q 357 222 361 221 q 326 221 337 221 l 308 221 q 290 222 301 221 q 284 221 286 221 l 280 222 l 269 221 m 430 178 q 442 163 431 163 q 456 178 456 163 q 438 189 456 189 q 430 178 430 187 m 464 172 l 464 159 q 493 128 467 159 l 507 124 q 521 158 521 144 q 464 172 517 168 m 373 146 l 300 146 q 292 144 296 146 q 284 146 289 146 l 269 146 q 229 144 256 146 l 229 146 l 225 144 l 223 144 q 221 146 221 144 l 217 144 l 111 144 q 99 138 99 142 l 99 102 q 103 98 100 98 l 365 98 q 367 96 367 98 q 424 156 391 113 l 420 170 l 414 170 q 373 146 381 146 m 434 144 q 454 83 438 83 q 487 109 487 94 q 456 156 487 120 q 434 144 434 156 m 381 75 q 382 73 381 73 l 381 63 l 381 50 l 382 35 l 387 35 q 410 67 387 39 q 416 87 416 83 q 414 100 414 94 q 420 116 420 111 l 420 130 q 387 95 418 130 q 381 75 381 95 m 203 83 l 203 24 l 205 14 l 251 14 q 255 18 255 14 l 255 81 q 249 87 255 83 l 208 87 q 203 83 203 86 m 271 85 l 269 75 l 269 53 q 271 45 269 49 q 269 37 269 42 l 269 20 q 273 16 269 16 l 332 16 q 340 18 336 16 q 347 16 343 16 l 361 16 q 363 28 361 17 q 361 53 361 52 q 363 75 363 66 q 347 85 363 83 l 340 81 q 328 85 333 85 l 271 85 m 101 81 l 101 16 l 188 16 l 188 35 q 190 37 188 37 l 188 41 l 188 61 q 190 63 188 63 l 188 67 l 188 71 q 190 73 188 73 q 188 83 188 76 l 180 81 q 130 83 168 81 q 101 81 111 81 z "},"7":{"ha":962,"x_min":34,"x_max":936,"o":"m 547 972 q 623 923 580 972 l 626 923 q 729 963 705 963 l 745 963 q 784 829 765 963 q 787 826 787 829 l 787 805 q 781 771 787 802 q 827 644 827 715 q 909 629 833 637 q 927 616 927 621 l 924 610 q 833 623 878 623 q 823 571 823 612 l 823 565 q 875 544 875 550 q 869 538 875 538 q 821 550 862 538 q 802 504 802 515 q 872 465 863 477 q 866 458 872 458 l 863 458 q 799 486 812 486 l 790 486 q 659 410 749 433 q 635 404 643 404 l 635 395 q 648 392 642 395 q 677 401 671 401 q 714 361 706 401 l 718 361 q 739 401 724 361 q 893 452 798 442 l 930 361 q 936 325 930 346 l 936 316 q 863 292 936 297 q 790 279 843 283 q 745 304 766 281 l 739 304 q 699 255 739 276 l 675 255 q 642 261 646 261 l 638 261 l 638 249 q 632 125 638 172 q 659 76 659 104 q 544 9 659 9 q 465 0 527 0 l 450 0 q 307 15 357 0 l 258 15 q 106 12 212 15 l 106 15 l 101 12 q 89 21 89 17 l 89 207 q 143 300 89 256 q 176 316 143 316 l 207 316 q 304 392 235 360 q 307 395 307 392 q 237 413 307 401 q 198 431 208 424 l 192 431 q 153 401 172 421 q 146 407 146 401 l 176 440 l 176 444 l 140 486 l 98 471 l 95 477 l 131 504 q 110 562 115 561 l 98 562 q 46 544 79 562 l 40 544 q 34 550 34 544 q 106 580 42 567 l 110 586 l 110 637 q 180 805 110 721 q 174 841 174 833 q 237 966 174 925 l 241 966 q 350 896 277 966 q 416 899 395 899 l 480 899 q 511 954 488 903 q 547 972 528 972 m 198 829 q 204 823 199 823 q 216 826 210 826 l 222 817 q 131 637 131 735 l 131 592 q 137 586 132 586 l 180 586 q 189 577 184 586 q 182 571 189 571 q 165 574 180 571 q 137 562 137 574 q 159 513 149 513 q 192 516 179 516 l 195 516 q 201 510 201 515 q 165 495 165 499 q 195 462 165 487 q 219 474 206 462 l 225 474 q 231 468 231 473 l 216 450 q 444 413 281 413 q 753 483 692 413 q 760 498 760 487 q 735 510 735 502 l 741 513 l 775 513 q 793 555 785 513 q 753 565 753 558 q 769 574 753 570 q 790 571 781 571 q 805 616 805 571 l 799 620 l 787 620 q 745 614 777 620 l 741 620 q 802 641 741 631 l 802 677 q 769 744 802 704 l 766 744 q 696 690 722 690 q 638 750 661 690 q 578 783 593 763 q 520 774 532 774 q 474 826 481 774 q 477 871 477 852 q 459 878 467 878 l 414 878 q 340 871 345 871 q 241 945 278 943 q 198 847 198 920 l 198 829 m 632 893 q 675 871 632 884 q 696 853 675 867 l 702 857 l 753 857 l 753 878 q 739 941 753 899 l 720 941 q 632 893 632 912 m 617 853 l 617 847 l 620 847 l 620 853 l 617 853 m 268 614 l 280 614 q 298 583 290 614 q 274 553 292 553 q 252 586 258 553 q 268 614 252 605 m 654 614 l 669 614 q 684 586 676 614 q 659 553 679 553 q 642 568 647 557 l 642 602 q 654 614 642 606 m 450 550 l 484 550 q 502 526 502 542 l 502 519 q 484 501 502 515 l 456 501 q 429 526 429 501 q 450 550 429 539 m 441 526 q 465 510 444 510 l 486 516 l 486 528 q 468 538 484 538 q 441 526 448 538 m 790 413 l 790 407 q 817 300 790 400 q 887 319 887 308 q 863 382 884 319 q 842 425 846 423 l 790 413 m 866 407 l 866 404 l 875 404 l 875 407 l 866 407 m 878 407 l 878 404 q 884 398 879 398 l 887 398 q 878 407 887 402 m 578 395 l 578 340 q 517 300 557 300 q 450 382 450 311 l 438 392 l 432 392 l 432 382 q 438 358 432 380 l 438 343 q 347 264 438 308 q 340 255 344 255 q 353 195 347 255 l 353 127 q 389 119 353 120 q 541 125 441 119 q 553 158 546 158 l 559 158 q 566 152 566 157 l 566 131 q 578 127 572 131 q 614 158 614 127 q 617 210 617 181 l 617 222 q 608 271 617 271 q 581 249 604 249 q 556 279 556 257 q 581 304 556 295 q 608 282 608 294 l 611 282 l 611 292 q 581 395 597 372 l 578 395 m 319 370 q 359 300 339 315 l 362 300 q 410 340 410 326 l 414 340 l 414 364 q 395 386 401 386 l 368 386 q 319 370 355 386 m 468 386 q 502 325 479 325 q 505 322 502 322 l 526 322 q 559 376 559 322 q 553 386 553 376 l 547 386 q 538 382 538 386 l 523 386 l 468 386 m 626 343 l 626 340 q 659 279 626 279 q 684 273 659 275 q 714 292 704 273 l 714 298 q 681 292 685 292 l 663 292 q 642 322 642 302 l 642 328 q 690 358 661 358 q 693 368 693 364 q 671 382 689 382 l 665 382 q 632 361 632 368 q 626 343 626 351 m 905 364 l 905 358 l 909 358 l 909 364 l 905 364 m 225 288 q 252 255 225 271 q 286 258 265 255 l 301 249 l 313 249 q 328 277 328 258 l 338 286 q 292 361 323 321 l 286 361 q 225 288 225 331 m 893 361 q 897 352 897 355 l 899 352 l 899 358 l 893 361 m 502 361 l 508 361 l 508 358 l 502 358 l 502 361 m 899 331 l 899 328 l 905 328 l 905 331 l 899 331 m 903 319 l 903 316 l 909 316 l 909 319 l 903 319 m 462 294 q 486 267 481 294 q 468 243 486 251 l 462 243 q 435 271 435 247 q 462 294 435 289 m 572 277 q 578 271 572 271 l 584 271 q 589 277 589 271 q 584 282 589 282 l 578 282 q 572 277 572 281 m 453 271 q 456 258 456 265 l 468 258 l 471 273 l 459 273 l 453 271 m 110 231 l 110 228 l 125 224 l 258 224 l 280 228 l 280 237 q 204 255 262 237 l 153 255 l 137 267 l 134 267 q 110 231 110 250 m 316 234 l 316 228 l 328 228 l 328 234 l 316 234 m 116 197 l 113 191 l 113 185 q 119 191 119 185 q 128 189 125 189 l 134 189 l 134 191 q 116 197 126 191 m 213 195 l 213 191 l 219 191 l 219 195 l 213 195 m 316 195 l 316 191 l 322 191 l 322 195 l 316 195 m 313 182 l 313 176 l 316 176 q 322 182 322 176 l 313 182 m 113 179 l 113 173 l 116 173 l 116 179 l 113 179 m 280 179 l 280 176 l 286 176 l 286 179 l 280 179 m 137 164 q 110 127 123 127 l 110 49 q 106 45 110 45 q 110 33 110 40 q 268 37 220 37 l 307 37 l 328 39 l 328 88 q 332 115 328 99 q 292 149 332 120 q 258 127 265 127 q 222 164 253 127 q 186 115 202 120 l 171 115 q 143 164 160 115 l 137 164 m 174 149 l 174 146 l 180 146 l 180 149 l 174 149 m 578 103 q 584 85 584 94 l 584 67 q 578 39 584 59 l 584 37 l 599 37 q 642 73 632 37 l 642 79 q 611 113 635 113 q 578 103 578 113 m 149 109 l 153 109 q 155 106 155 109 l 161 109 q 182 97 178 109 l 182 85 q 174 64 174 74 q 180 58 180 63 q 174 52 180 52 q 165 67 167 52 l 155 67 l 143 52 q 137 58 137 52 q 143 94 138 94 l 140 100 q 149 109 140 104 m 207 109 l 229 109 q 235 103 235 109 q 222 97 227 97 q 213 100 216 100 l 207 91 l 207 88 q 213 85 213 88 l 219 88 l 229 88 q 235 82 235 87 q 207 73 235 77 l 207 70 q 216 64 207 64 l 231 67 l 235 61 q 225 52 235 56 l 204 52 q 195 79 195 52 q 207 109 197 109 m 262 109 l 274 109 q 298 94 290 109 l 298 70 q 256 52 298 57 q 250 76 250 71 q 262 109 252 109 m 456 100 l 353 100 l 350 64 l 350 31 q 377 24 370 24 l 511 24 q 566 73 566 33 q 553 103 562 92 q 456 100 488 100 m 149 91 l 149 88 l 155 79 q 174 91 174 85 l 174 94 l 159 97 l 155 97 q 149 91 149 96 m 262 91 l 262 67 l 274 64 q 289 94 288 64 l 283 97 l 268 97 q 262 91 262 96 z "},"8":{"ha":1577,"x_min":68,"x_max":1505,"o":"m 728 1109 l 735 1109 q 793 1063 772 1109 q 795 1061 793 1061 q 794 1057 795 1059 q 795 1046 795 1048 q 757 991 795 1009 q 737 987 747 987 l 734 987 q 675 1036 692 987 q 673 1048 673 1047 q 715 1107 673 1090 q 728 1109 722 1109 m 903 1103 q 928 1084 918 1103 q 930 1071 930 1080 q 957 1094 947 1094 q 981 1072 971 1094 q 962 1040 981 1065 q 973 993 973 998 q 952 972 969 972 l 951 972 q 928 994 935 972 q 920 1015 922 1015 q 913 991 918 1013 q 894 981 903 981 l 891 981 q 890 983 890 981 l 888 981 q 869 1006 869 991 l 869 1008 q 888 1096 882 1096 q 903 1103 895 1102 m 576 1082 l 580 1082 q 610 1034 603 1082 q 618 1016 614 1016 q 638 1020 631 1020 q 660 991 660 1013 q 646 973 660 984 q 595 962 606 962 q 566 1017 574 962 q 555 1061 555 1053 q 576 1082 559 1082 m 1047 1069 l 1048 1069 q 1073 1046 1065 1069 l 1073 1044 q 1053 980 1073 1036 q 1029 951 1045 951 l 1028 951 q 1004 966 1009 951 q 1002 976 1002 966 l 1002 979 q 1035 1065 1027 1065 q 1047 1069 1042 1069 m 721 1044 q 732 1036 725 1036 l 734 1036 q 747 1051 747 1039 q 736 1061 747 1058 q 721 1044 724 1061 l 721 1044 m 460 1042 l 465 1042 q 490 1017 479 1042 q 505 983 503 984 l 506 983 q 530 989 526 989 q 553 968 542 989 l 553 966 q 551 966 553 966 l 553 964 q 519 934 553 941 q 492 924 502 924 l 492 926 l 490 924 l 488 924 q 471 940 476 928 l 448 996 q 441 1020 441 1012 l 441 1021 q 460 1042 445 1042 m 1118 1042 l 1120 1042 q 1187 1010 1133 1039 q 1198 989 1198 1001 l 1198 987 q 1198 987 1198 987 l 1198 985 q 1185 968 1195 973 q 1179 966 1179 966 q 1175 968 1175 968 l 1172 966 l 1165 970 q 1151 949 1158 970 q 1127 915 1136 917 l 1122 914 l 1118 914 q 1094 939 1100 914 l 1094 942 q 1116 994 1094 947 q 1097 1019 1103 994 q 1118 1042 1101 1042 m 387 1004 q 410 987 400 1004 q 412 978 412 983 l 412 973 q 403 959 408 964 q 418 947 414 959 q 412 939 418 945 l 414 939 q 424 942 419 942 l 429 942 q 450 924 441 942 q 452 918 452 921 q 452 915 452 917 l 452 913 q 407 877 452 901 q 389 869 400 869 q 361 896 374 869 q 326 959 326 949 q 353 987 326 975 q 387 1004 378 1004 m 1230 981 q 1280 951 1238 981 q 1303 920 1303 937 l 1303 919 q 1278 898 1303 901 q 1266 903 1272 899 l 1265 903 q 1250 888 1259 903 q 1217 856 1231 856 q 1192 873 1198 856 q 1190 882 1190 879 q 1215 924 1190 892 q 1221 935 1219 929 q 1207 959 1207 945 q 1230 981 1207 979 m 407 937 l 397 930 q 409 936 408 936 l 409 937 l 407 937 m 281 928 q 328 884 294 928 q 353 850 351 863 l 353 844 q 331 824 353 829 l 330 824 q 329 825 329 824 q 326 824 327 824 q 302 846 320 824 l 298 846 q 292 840 292 842 l 292 837 q 309 810 309 819 l 309 810 q 298 789 309 795 q 284 785 292 785 q 241 825 272 785 q 213 867 213 854 q 232 890 213 886 l 237 890 q 264 869 247 890 l 266 869 l 273 877 l 273 878 q 258 907 258 895 q 281 928 258 927 m 1331 905 q 1352 884 1352 899 q 1344 855 1352 878 l 1345 855 q 1373 862 1369 862 l 1375 862 q 1394 842 1388 862 l 1394 838 q 1356 817 1394 822 q 1329 804 1337 814 q 1306 787 1314 787 l 1299 787 q 1276 808 1283 787 l 1276 817 q 1303 848 1276 824 q 1321 902 1314 902 q 1331 905 1324 904 m 865 839 q 932 791 901 839 q 1030 818 996 818 l 1038 818 q 1082 757 1069 818 q 1080 755 1082 755 q 1091 732 1084 732 q 1106 694 1106 716 l 1106 692 q 1087 625 1106 657 l 1087 623 q 1112 538 1112 560 q 1116 536 1116 538 l 1122 538 l 1141 538 q 1143 536 1143 538 q 1143 538 1143 536 q 1181 522 1175 538 l 1181 521 q 1156 513 1181 513 l 1141 513 q 1139 513 1139 513 l 1137 513 l 1135 513 q 1131 513 1133 513 q 1127 513 1129 513 l 1127 513 q 1113 503 1113 513 l 1110 469 q 1164 449 1157 464 q 1153 441 1164 441 q 1109 444 1147 441 q 1093 413 1103 444 q 1089 404 1092 413 q 1141 368 1141 382 q 1135 359 1139 361 q 1082 378 1117 363 q 1078 380 1082 380 l 1075 380 q 1009 328 1040 343 q 958 309 982 315 q 957 308 958 308 q 956 309 956 308 q 930 302 951 307 l 930 302 q 907 295 907 298 l 919 250 q 962 260 932 256 q 1053 196 1021 260 q 1061 154 1061 179 q 1004 64 1061 92 q 964 55 996 60 q 962 56 962 55 q 919 54 941 54 l 917 53 q 914 54 915 54 l 910 53 q 909 54 909 53 l 903 53 l 884 53 q 884 54 884 53 l 882 53 l 844 53 q 840 52 842 53 q 837 53 838 53 q 836 52 836 53 l 831 53 l 829 53 q 819 52 825 53 l 817 53 q 813 52 815 52 q 812 53 812 52 l 810 52 l 796 52 q 782 53 789 52 q 779 52 781 53 q 759 53 768 53 l 749 53 q 745 54 747 53 q 745 53 745 54 l 734 54 l 720 54 l 713 55 q 713 54 713 55 q 699 56 703 56 l 697 55 q 688 57 693 57 l 686 56 q 682 57 684 57 q 678 56 680 57 q 677 57 677 56 l 673 56 q 667 57 672 56 l 664 56 q 660 57 663 57 q 656 56 658 57 q 652 57 654 57 l 648 56 l 646 57 q 643 56 643 57 q 543 83 567 56 q 530 123 530 102 q 582 176 530 160 q 627 189 627 184 q 673 275 627 200 q 684 308 684 295 q 642 321 655 315 l 640 319 q 589 342 605 334 l 557 365 q 501 334 547 365 q 498 333 500 334 q 485 347 487 333 q 532 384 485 357 l 534 387 q 515 418 534 391 l 511 420 q 498 416 501 418 l 496 418 q 471 412 488 414 q 461 424 461 418 q 501 445 461 434 q 503 448 503 448 q 490 489 495 489 l 488 488 l 486 489 q 437 484 439 484 l 437 485 l 435 484 q 426 492 431 484 l 426 500 q 490 515 426 509 q 492 521 492 519 q 490 526 492 524 q 524 641 490 581 q 511 703 511 682 q 546 796 511 759 q 568 801 559 801 l 574 801 q 678 770 608 801 q 686 768 678 768 q 772 777 728 777 l 787 777 q 800 795 793 777 q 865 839 831 839 m 941 764 q 957 755 941 755 q 987 734 974 749 l 989 734 q 1036 744 1016 744 l 1051 744 q 1053 746 1053 744 l 1053 747 q 1035 793 1049 793 q 941 765 994 793 l 941 764 m 534 701 q 543 668 534 689 l 544 668 q 555 673 552 673 q 563 665 559 673 q 540 626 563 660 q 515 519 515 572 l 515 519 q 547 511 515 514 q 557 505 557 507 l 557 500 q 545 496 555 496 q 523 496 539 496 q 517 492 518 494 q 532 451 523 451 q 553 454 551 454 q 561 446 561 454 l 561 445 q 539 435 559 441 l 538 432 l 538 431 q 563 399 552 399 q 591 407 587 407 q 597 399 595 407 q 579 385 595 394 l 578 382 q 709 332 616 349 q 829 321 774 321 l 840 321 q 1040 386 972 321 q 1046 395 1046 393 q 1031 410 1031 404 l 1031 411 q 1040 416 1034 416 q 1056 413 1043 416 q 1076 452 1065 413 q 1059 460 1076 454 q 1056 465 1056 463 q 1068 472 1056 471 l 1080 472 q 1087 508 1084 472 q 1084 515 1086 515 q 1052 511 1080 515 q 1044 517 1047 513 l 1044 522 q 1084 534 1044 528 q 1086 538 1086 538 q 1065 605 1086 568 l 1063 605 q 1021 584 1042 584 l 1015 584 q 956 631 980 584 q 954 631 954 631 q 939 629 948 629 q 890 654 911 629 q 842 643 857 643 l 833 643 q 775 696 787 643 q 774 709 775 701 q 780 749 775 726 l 778 751 l 755 751 q 683 742 724 751 l 681 742 q 631 764 677 742 q 574 778 591 778 q 536 713 543 778 q 534 701 534 703 m 1390 730 q 1405 717 1400 730 q 1398 711 1404 711 l 1390 713 q 1377 699 1377 711 l 1377 694 q 1385 690 1380 694 q 1436 724 1407 724 l 1444 724 q 1485 688 1467 724 q 1489 667 1489 677 q 1470 635 1487 654 q 1493 597 1493 621 q 1480 576 1487 581 q 1451 565 1474 570 q 1451 566 1451 565 l 1445 565 l 1442 565 q 1425 567 1426 567 q 1411 559 1417 559 l 1411 561 q 1396 543 1408 561 q 1364 524 1384 531 q 1325 553 1333 524 l 1324 559 l 1325 562 q 1324 563 1325 563 l 1325 568 l 1325 569 q 1323 572 1325 572 l 1312 572 q 1284 587 1299 572 q 1269 623 1269 606 l 1269 628 q 1308 671 1269 658 q 1322 673 1313 673 l 1324 673 q 1341 671 1336 673 q 1344 680 1341 672 q 1330 687 1338 686 q 1314 673 1325 687 l 1312 673 q 1305 681 1310 673 l 1305 683 q 1326 702 1305 699 l 1329 702 q 1354 690 1339 702 q 1363 694 1358 694 l 1362 699 q 1390 730 1365 730 m 1350 666 q 1371 647 1350 650 l 1371 647 q 1388 666 1384 647 q 1369 685 1385 685 q 1350 666 1350 682 m 1371 637 q 1394 586 1382 605 q 1405 576 1404 576 l 1409 576 q 1413 578 1411 576 l 1413 584 q 1390 645 1411 606 l 1388 645 q 1371 637 1379 639 m 642 508 l 648 508 q 667 489 662 508 l 667 475 q 648 450 667 454 l 641 450 q 623 475 623 454 l 623 479 q 642 508 626 508 m 947 507 l 952 507 q 972 481 970 507 l 972 479 q 952 449 972 454 l 949 449 q 928 475 928 452 l 928 479 q 947 507 931 507 m 798 456 l 804 456 q 837 431 832 456 l 837 426 q 806 403 833 403 q 768 422 776 403 q 768 430 768 424 q 798 456 768 452 m 783 429 l 783 426 q 804 416 790 416 q 821 428 821 418 q 806 441 821 437 l 800 441 q 783 429 783 440 m 168 403 q 192 390 180 403 q 207 397 192 393 l 210 397 q 239 369 230 397 l 241 363 q 230 340 239 351 l 230 338 q 237 308 237 326 q 216 267 233 285 q 182 249 205 256 q 180 245 180 247 l 180 233 q 218 250 199 250 l 222 250 q 258 229 258 245 l 258 215 q 239 182 256 201 q 216 171 230 176 q 214 172 214 171 l 207 171 q 178 176 196 171 q 170 171 178 174 q 161 176 161 174 q 131 170 143 171 q 98 184 110 174 q 79 230 79 205 q 89 245 79 241 q 111 250 99 250 l 115 250 q 155 229 136 250 l 157 229 l 157 249 q 135 258 155 251 q 104 317 104 285 q 109 342 104 326 q 100 368 100 358 l 100 371 q 128 397 100 393 l 129 397 q 146 390 134 397 q 168 403 153 403 m 1415 391 q 1438 378 1428 391 q 1453 385 1447 385 q 1489 357 1477 385 q 1476 329 1489 341 q 1483 304 1483 309 q 1470 262 1483 283 q 1430 237 1452 243 q 1427 232 1428 237 l 1427 231 l 1428 224 q 1427 222 1427 224 l 1430 222 q 1464 239 1444 239 l 1468 239 q 1505 218 1495 239 q 1504 217 1505 217 l 1505 212 l 1505 210 q 1489 173 1505 192 q 1453 159 1472 159 l 1451 159 q 1426 165 1440 159 q 1417 159 1426 162 q 1406 165 1412 159 l 1405 165 q 1382 159 1394 159 l 1375 159 q 1342 176 1358 161 l 1337 176 q 1318 142 1335 160 q 1285 125 1308 134 q 1284 121 1284 124 l 1284 111 l 1285 111 q 1324 127 1304 127 q 1361 110 1346 127 q 1362 102 1361 106 q 1318 49 1362 60 q 1308 47 1312 47 q 1283 53 1300 47 q 1274 47 1276 47 q 1261 53 1271 47 q 1238 47 1247 47 l 1234 47 q 1193 71 1212 47 q 1181 104 1183 87 q 1196 123 1181 119 q 1213 127 1206 127 l 1219 127 q 1259 106 1241 127 l 1259 106 l 1259 127 q 1224 150 1244 127 q 1207 193 1207 173 q 1213 222 1208 207 q 1202 245 1202 231 q 1231 273 1202 270 l 1234 273 q 1248 267 1240 273 q 1272 279 1257 279 l 1274 279 q 1295 267 1284 279 q 1309 273 1301 273 l 1314 273 q 1342 252 1329 273 q 1344 247 1342 250 l 1344 236 q 1356 239 1351 239 l 1361 239 q 1402 217 1385 239 l 1403 217 l 1403 239 q 1369 258 1388 241 q 1350 304 1350 284 q 1356 331 1352 318 q 1346 359 1346 345 q 1373 385 1352 385 l 1373 385 q 1392 378 1385 385 q 1415 391 1399 391 l 1415 391 m 842 300 l 842 298 q 888 264 867 264 q 878 300 884 291 q 874 300 876 300 l 871 300 q 842 300 862 300 m 359 289 q 382 276 370 289 q 397 283 382 280 l 401 283 q 429 260 416 283 q 431 248 431 252 q 421 227 431 241 l 420 224 l 425 212 q 424 211 425 211 q 426 199 425 210 q 409 156 426 178 q 372 135 395 141 l 370 133 l 370 121 l 372 121 q 408 136 389 136 l 414 136 q 448 112 448 132 q 409 59 448 73 q 393 57 405 57 q 372 62 382 57 q 359 57 370 62 q 350 62 350 60 q 319 57 334 57 q 277 85 297 57 q 269 110 269 100 l 269 121 q 298 136 269 132 l 306 136 q 346 115 326 136 l 346 137 q 310 159 331 137 q 294 203 294 182 q 300 229 294 214 q 289 255 289 244 q 315 283 294 283 l 317 283 q 336 275 328 283 q 357 289 336 286 l 359 289 m 743 264 q 770 264 761 264 l 796 264 l 801 262 l 801 264 q 770 276 789 276 l 770 276 q 743 264 754 276 m 1249 247 q 1240 260 1246 247 q 1229 262 1236 262 q 1213 245 1213 259 q 1227 227 1213 235 q 1228 224 1228 224 q 1219 195 1219 210 l 1219 191 q 1257 144 1219 159 q 1268 142 1263 142 l 1274 142 q 1323 182 1309 142 q 1324 191 1324 187 l 1324 197 q 1314 224 1324 210 q 1325 234 1314 227 q 1329 245 1329 240 q 1314 262 1325 262 l 1310 262 q 1295 247 1303 262 l 1293 247 q 1283 264 1289 247 q 1271 269 1276 269 q 1253 248 1258 269 q 1249 247 1251 248 m 163 254 l 163 186 q 166 184 164 184 l 168 184 l 168 254 l 163 254 m 730 249 q 726 239 730 248 l 728 239 q 815 236 760 236 q 813 247 815 238 q 730 249 749 249 m 1411 243 l 1411 173 l 1413 173 q 1415 175 1415 173 l 1415 243 l 1411 243 m 90 233 l 90 226 q 123 188 90 197 q 131 186 128 186 q 153 195 153 191 l 153 197 q 123 239 153 227 q 111 239 113 239 q 90 233 103 239 m 178 199 q 201 186 182 186 q 243 228 243 193 l 243 231 q 220 239 243 236 q 180 205 191 239 q 178 199 180 201 m 924 222 q 935 87 935 159 q 943 85 941 85 q 1025 129 1007 85 q 1031 157 1031 144 q 979 233 1031 214 q 960 235 968 235 q 924 222 937 235 m 1337 220 l 1337 217 q 1373 175 1337 184 l 1377 175 q 1400 182 1387 175 l 1400 189 q 1364 228 1400 218 l 1358 228 q 1337 220 1337 224 m 1426 182 q 1449 175 1440 175 q 1489 208 1478 175 l 1489 222 q 1467 228 1476 228 q 1426 191 1435 228 l 1426 182 m 840 210 q 854 194 843 194 l 859 194 q 872 207 872 197 l 872 212 q 855 226 872 224 q 840 210 844 226 m 720 222 q 718 211 718 212 l 718 210 l 728 210 q 818 208 771 210 l 818 220 q 817 220 817 220 l 810 220 q 726 222 758 222 l 726 222 l 720 222 m 713 188 l 713 172 q 749 112 713 130 q 768 108 756 108 l 768 108 q 806 131 789 108 q 829 152 829 134 l 829 153 q 818 173 829 161 l 818 184 q 713 188 772 188 m 555 125 l 555 118 q 593 87 555 95 q 617 85 602 85 l 622 85 q 643 87 629 85 q 620 154 620 111 l 620 156 l 621 158 l 620 158 q 557 132 568 158 q 555 125 555 128 m 355 140 l 355 71 l 357 71 q 359 73 359 71 l 359 140 l 355 140 m 1267 130 l 1267 66 l 1268 61 l 1270 61 q 1272 64 1272 61 l 1272 130 q 1270 132 1272 132 l 1269 132 q 1267 130 1267 132 m 279 119 l 279 115 q 312 74 279 84 l 319 73 q 343 79 329 73 l 343 87 q 315 123 343 111 q 303 125 308 125 q 279 119 293 125 m 369 81 q 393 73 369 76 q 431 102 418 73 q 433 113 433 106 l 433 119 q 408 125 420 125 q 369 91 380 125 l 369 81 m 1193 108 l 1193 106 q 1232 64 1193 71 l 1234 64 q 1257 72 1257 67 l 1257 78 q 1223 116 1257 104 l 1215 116 q 1193 108 1201 116 m 1283 79 l 1283 72 q 1306 64 1283 67 q 1346 104 1346 71 l 1346 110 q 1324 116 1334 116 l 1323 116 q 1285 87 1296 116 q 1283 79 1283 84 m 401 2 l 410 2 q 412 0 412 2 l 412 -9 q 410 -12 412 -12 l 401 -12 q 399 -9 399 -12 l 399 0 q 401 2 399 2 m 431 2 l 441 2 q 443 0 443 2 l 443 -90 q 441 -92 443 -92 l 431 -92 q 429 -90 429 -92 l 429 0 q 431 2 429 2 m 579 2 l 589 2 q 591 0 591 2 l 591 -90 q 589 -92 591 -92 l 579 -92 q 577 -87 577 -92 q 561 -94 568 -94 l 555 -94 q 530 -62 530 -90 l 530 -58 q 555 -22 533 -22 l 564 -22 q 577 -27 568 -22 l 577 0 q 579 2 577 2 m 837 2 l 846 2 q 848 0 848 2 l 848 -90 q 846 -92 848 -92 l 837 -92 q 835 -87 835 -92 q 819 -94 826 -94 l 813 -94 q 787 -62 787 -90 l 787 -58 q 814 -22 791 -22 l 820 -22 q 835 -27 827 -22 l 835 0 q 837 2 836 2 m 1266 2 l 1276 2 q 1278 0 1278 2 l 1278 -9 q 1276 -12 1278 -12 l 1266 -12 q 1264 -9 1264 -12 l 1264 0 q 1266 2 1264 2 m 1480 2 l 1489 2 q 1491 0 1491 2 l 1491 -90 q 1489 -92 1491 -92 l 1480 -92 q 1478 -87 1478 -92 q 1462 -94 1469 -94 l 1455 -94 q 1430 -62 1430 -90 l 1430 -58 q 1457 -22 1434 -22 l 1463 -22 q 1478 -27 1470 -22 l 1478 0 q 1480 2 1478 2 m 1113 -7 l 1122 -7 q 1124 -9 1124 -7 l 1124 -24 l 1133 -24 q 1135 -26 1135 -24 l 1135 -31 q 1133 -33 1135 -33 l 1124 -33 l 1124 -75 q 1130 -83 1124 -83 q 1137 -85 1137 -83 l 1137 -92 q 1134 -94 1137 -94 l 1122 -94 q 1111 -80 1111 -94 l 1111 -33 l 1105 -33 q 1103 -31 1103 -33 l 1103 -26 q 1105 -24 1103 -24 l 1111 -24 l 1111 -9 q 1113 -7 1112 -7 m 100 -22 l 106 -22 q 130 -42 124 -22 l 130 -44 l 119 -44 q 106 -33 113 -33 l 100 -33 q 83 -56 86 -33 l 83 -61 q 100 -84 86 -84 l 106 -84 q 119 -73 114 -84 l 130 -73 l 130 -73 q 106 -94 130 -90 l 100 -94 q 70 -61 73 -94 l 70 -56 q 100 -22 73 -22 m 173 -22 q 201 -58 198 -22 l 201 -59 q 173 -94 198 -94 l 167 -94 q 136 -61 140 -94 l 136 -57 q 166 -22 140 -22 l 173 -22 m 243 -22 l 251 -22 q 265 -33 260 -22 l 266 -33 q 283 -22 277 -22 l 291 -22 q 308 -46 308 -25 l 308 -90 q 306 -92 308 -92 l 296 -92 q 294 -90 294 -92 l 294 -44 q 289 -33 294 -36 l 284 -33 q 268 -43 275 -33 l 268 -90 q 266 -92 268 -92 l 256 -92 q 254 -90 254 -92 l 254 -43 q 249 -33 252 -33 l 241 -33 q 228 -43 235 -33 l 228 -90 q 226 -92 228 -92 l 216 -92 q 214 -90 214 -92 l 214 -26 q 216 -24 214 -24 l 226 -24 q 228 -31 228 -24 q 243 -22 237 -22 m 353 -22 l 361 -22 q 386 -57 382 -22 l 386 -60 q 359 -94 381 -94 l 353 -94 q 338 -90 346 -94 l 338 -117 q 336 -119 338 -119 l 327 -119 q 325 -117 325 -119 l 325 -26 q 327 -24 326 -24 l 336 -24 q 338 -31 338 -24 l 340 -31 q 353 -22 340 -26 m 484 -22 l 490 -22 q 521 -56 517 -22 l 521 -59 q 519 -61 521 -61 l 469 -61 l 469 -62 q 486 -84 469 -81 l 494 -84 q 509 -73 500 -84 l 519 -73 l 519 -75 q 494 -94 519 -90 l 487 -94 q 456 -66 456 -90 q 456 -59 456 -66 l 456 -58 q 484 -22 459 -22 m 665 -22 l 677 -22 q 701 -50 701 -22 l 701 -90 q 699 -92 701 -92 l 690 -92 q 688 -87 688 -92 q 669 -94 678 -94 l 661 -94 q 640 -73 640 -92 q 673 -50 644 -50 l 688 -50 l 688 -42 q 678 -33 686 -33 l 667 -33 q 654 -44 658 -33 l 644 -44 l 642 -43 q 665 -22 642 -26 m 749 -22 l 755 -22 q 775 -48 775 -22 l 775 -90 q 773 -92 775 -92 l 764 -92 q 761 -90 761 -92 l 761 -43 q 753 -33 761 -33 l 747 -33 q 732 -46 732 -37 l 732 -90 q 730 -92 732 -92 l 720 -92 q 718 -90 718 -92 l 718 -26 q 720 -24 718 -24 l 730 -24 q 732 -31 732 -24 q 749 -22 741 -22 m 993 -22 l 1000 -22 q 1030 -56 1026 -22 l 1030 -59 q 1028 -61 1030 -61 l 979 -61 l 979 -62 q 995 -84 979 -81 l 1002 -84 q 1017 -73 1009 -84 l 1028 -73 l 1028 -75 q 1004 -94 1028 -90 l 996 -94 q 966 -66 966 -90 q 964 -59 964 -66 l 964 -58 q 993 -22 968 -22 m 1065 -22 l 1075 -22 q 1099 -42 1099 -27 l 1099 -44 l 1088 -44 l 1080 -33 l 1074 -33 l 1068 -33 q 1052 -56 1055 -33 l 1052 -61 q 1068 -84 1055 -84 l 1074 -84 q 1087 -73 1082 -84 l 1099 -73 l 1099 -73 q 1075 -94 1099 -90 l 1069 -94 q 1038 -61 1042 -94 l 1038 -56 q 1065 -22 1043 -22 m 1172 -22 l 1177 -22 q 1207 -56 1204 -22 l 1207 -59 q 1179 -94 1204 -94 l 1172 -94 q 1141 -61 1145 -94 l 1141 -56 q 1172 -22 1145 -22 m 1247 -22 l 1255 -22 q 1257 -24 1257 -22 l 1257 -33 q 1255 -35 1257 -35 l 1246 -35 q 1234 -43 1239 -35 l 1234 -90 q 1231 -92 1234 -92 l 1221 -92 q 1219 -90 1219 -92 l 1219 -26 q 1221 -24 1220 -24 l 1231 -24 q 1234 -31 1234 -24 q 1247 -22 1242 -22 m 1385 -22 l 1392 -22 q 1422 -56 1418 -22 l 1422 -59 q 1420 -61 1422 -61 l 1371 -61 l 1371 -62 q 1387 -84 1371 -81 l 1394 -84 q 1409 -73 1402 -84 l 1420 -73 l 1420 -75 q 1396 -94 1420 -90 l 1388 -94 q 1358 -66 1358 -90 q 1356 -59 1356 -66 l 1356 -58 q 1385 -22 1360 -22 m 401 -24 l 410 -24 q 412 -26 412 -24 l 412 -90 q 410 -92 412 -92 l 401 -92 q 399 -90 399 -92 l 399 -26 q 401 -24 399 -24 m 896 -24 l 907 -24 q 926 -76 911 -26 l 928 -76 q 947 -24 943 -24 l 956 -24 q 958 -26 958 -24 q 932 -92 936 -87 l 922 -92 q 896 -24 920 -92 m 1266 -24 l 1276 -24 q 1278 -26 1278 -24 l 1278 -90 q 1276 -92 1278 -92 l 1266 -92 q 1264 -90 1264 -92 l 1264 -26 q 1266 -24 1264 -24 m 1293 -24 l 1346 -24 q 1348 -26 1348 -24 l 1348 -33 l 1306 -81 l 1306 -82 l 1348 -82 q 1350 -84 1350 -82 l 1350 -90 q 1348 -92 1350 -92 l 1290 -92 q 1288 -90 1288 -92 l 1288 -83 l 1330 -35 l 1293 -35 q 1290 -33 1290 -35 l 1290 -26 q 1293 -24 1291 -24 m 150 -56 l 150 -61 q 166 -84 153 -84 l 172 -84 q 188 -57 188 -84 q 173 -33 188 -36 l 166 -33 q 150 -56 153 -33 m 338 -43 l 338 -77 q 353 -84 345 -84 l 359 -84 q 372 -58 372 -84 q 359 -33 372 -33 l 353 -33 q 338 -43 347 -33 m 469 -52 l 507 -52 q 492 -33 503 -33 l 485 -33 q 469 -52 473 -33 m 543 -57 l 543 -62 q 557 -84 543 -84 l 562 -84 q 577 -73 569 -84 l 577 -40 q 562 -33 570 -33 l 557 -33 q 543 -57 543 -33 m 801 -57 l 801 -62 q 815 -84 801 -84 l 820 -84 q 835 -73 827 -84 l 835 -40 q 820 -33 828 -33 l 815 -33 q 801 -57 801 -33 m 979 -52 l 1016 -52 q 1000 -33 1012 -33 l 994 -33 q 979 -52 982 -33 m 1156 -56 l 1156 -61 q 1171 -84 1158 -84 l 1177 -84 q 1193 -57 1193 -84 q 1179 -33 1193 -36 l 1171 -33 q 1156 -56 1158 -33 m 1371 -52 l 1408 -52 q 1392 -33 1404 -33 l 1386 -33 q 1371 -52 1374 -33 m 1444 -56 l 1444 -62 q 1458 -84 1444 -84 l 1463 -84 q 1478 -73 1470 -84 l 1478 -40 q 1463 -33 1471 -33 l 1458 -33 q 1444 -56 1444 -35 m 654 -73 l 654 -75 q 663 -84 655 -84 l 673 -84 q 688 -73 688 -81 l 688 -60 q 654 -73 654 -60 m 917 -104 q 922 -113 922 -109 l 922 -130 q 909 -146 922 -146 q 890 -151 890 -146 q 873 -231 890 -231 l 869 -231 q 863 -229 867 -231 q 852 -231 857 -231 l 850 -231 q 846 -227 848 -231 q 844 -201 846 -214 q 848 -147 846 -191 l 846 -145 l 842 -145 q 814 -136 814 -145 q 812 -125 812 -136 q 829 -111 812 -111 q 917 -104 854 -104 m 1030 -104 q 1034 -113 1034 -109 l 1034 -130 q 1021 -146 1034 -146 q 1002 -151 1002 -146 q 985 -231 1002 -231 l 983 -231 q 975 -229 979 -231 q 964 -231 970 -231 l 962 -231 q 958 -227 961 -231 q 956 -201 958 -214 q 962 -147 959 -191 l 958 -145 l 955 -145 q 926 -136 926 -145 q 924 -125 925 -136 q 943 -111 924 -111 q 1030 -104 967 -104 m 1445 -107 l 1453 -107 q 1476 -134 1476 -115 q 1461 -149 1476 -140 q 1451 -141 1459 -149 l 1444 -141 q 1438 -151 1438 -144 q 1467 -157 1439 -157 q 1489 -182 1489 -166 l 1489 -184 q 1455 -231 1489 -218 l 1446 -231 q 1411 -208 1430 -231 q 1402 -195 1402 -201 q 1424 -179 1415 -179 q 1443 -191 1439 -191 l 1446 -191 q 1453 -186 1453 -191 q 1415 -168 1451 -184 q 1407 -149 1407 -160 l 1407 -144 q 1445 -107 1407 -123 m 100 -109 l 104 -109 q 109 -116 109 -110 l 109 -120 q 113 -140 109 -140 q 127 -116 121 -120 l 129 -116 q 155 -115 138 -116 q 166 -145 159 -117 q 169 -149 168 -149 l 170 -149 q 180 -111 173 -149 l 182 -109 l 184 -109 q 214 -120 214 -114 q 192 -229 214 -137 q 186 -231 188 -231 l 152 -231 q 146 -202 148 -231 l 142 -194 q 129 -222 138 -194 q 117 -231 123 -231 l 98 -231 q 85 -212 85 -231 q 68 -117 68 -149 q 100 -109 68 -113 m 275 -109 l 294 -109 q 329 -142 315 -109 q 331 -160 331 -151 q 292 -227 331 -210 q 277 -229 283 -229 l 268 -229 q 239 -213 247 -224 q 222 -158 222 -196 q 275 -109 222 -116 m 393 -109 l 412 -109 q 446 -142 431 -109 q 448 -160 448 -151 q 409 -227 448 -210 q 393 -229 401 -229 l 385 -229 q 355 -213 363 -224 q 338 -158 338 -196 q 393 -109 338 -116 m 477 -109 l 501 -109 q 549 -124 532 -113 q 572 -165 572 -142 l 572 -170 q 553 -210 562 -210 q 500 -231 534 -231 q 481 -231 490 -231 q 473 -231 473 -231 q 462 -231 467 -231 l 456 -229 q 460 -170 458 -179 q 458 -147 458 -151 l 460 -137 q 458 -120 458 -131 q 477 -109 458 -109 m 758 -109 l 798 -109 q 808 -156 804 -109 q 795 -220 802 -220 q 766 -231 773 -231 l 738 -231 q 692 -205 703 -231 q 686 -179 686 -187 l 686 -172 q 692 -116 688 -122 q 719 -109 696 -109 l 721 -109 q 732 -126 732 -109 q 724 -168 724 -164 l 724 -170 q 736 -197 724 -191 q 751 -182 744 -197 q 755 -149 755 -161 q 754 -142 755 -146 q 755 -128 755 -135 l 755 -115 q 758 -109 755 -109 m 1183 -109 l 1213 -109 q 1238 -119 1232 -109 q 1250 -143 1250 -138 l 1250 -160 q 1228 -189 1250 -174 l 1227 -191 q 1240 -219 1240 -216 l 1240 -221 q 1215 -238 1225 -238 q 1198 -208 1211 -234 q 1188 -201 1192 -201 l 1186 -201 l 1185 -206 l 1185 -210 q 1187 -227 1185 -213 q 1181 -236 1187 -233 l 1179 -236 q 1146 -223 1146 -233 l 1146 -212 q 1145 -208 1146 -209 q 1147 -186 1145 -206 q 1145 -144 1145 -167 l 1145 -137 q 1154 -111 1145 -111 q 1183 -109 1172 -109 m 627 -109 l 644 -109 q 667 -126 660 -109 q 671 -142 669 -128 q 663 -164 668 -164 l 640 -164 q 629 -147 637 -163 q 619 -141 623 -141 q 600 -174 600 -150 l 600 -177 q 616 -195 602 -195 l 619 -195 q 644 -177 630 -195 l 650 -176 q 680 -181 680 -176 q 661 -219 680 -197 q 629 -231 644 -231 l 621 -231 q 584 -203 600 -231 q 577 -175 579 -191 q 591 -128 582 -140 q 627 -109 612 -111 m 1111 -109 l 1126 -109 q 1132 -132 1132 -109 q 1103 -146 1132 -142 q 1087 -158 1087 -149 l 1087 -160 q 1090 -163 1087 -161 l 1103 -163 q 1116 -162 1108 -163 q 1122 -181 1122 -162 q 1091 -193 1120 -184 l 1090 -195 l 1090 -198 q 1095 -201 1090 -200 q 1126 -198 1109 -198 q 1131 -220 1129 -201 q 1109 -229 1131 -228 q 1046 -238 1078 -233 q 1042 -234 1044 -234 q 1044 -204 1044 -216 q 1042 -181 1044 -200 l 1044 -179 q 1042 -151 1042 -169 l 1042 -135 q 1054 -119 1042 -119 q 1111 -109 1086 -109 m 1371 -109 l 1386 -109 q 1392 -132 1392 -109 q 1364 -146 1392 -142 q 1347 -158 1347 -149 l 1347 -160 q 1350 -163 1347 -161 l 1364 -163 q 1375 -162 1369 -163 q 1383 -181 1383 -162 q 1352 -193 1380 -184 l 1350 -195 l 1350 -198 q 1356 -201 1350 -200 q 1386 -198 1369 -198 q 1392 -220 1390 -201 q 1369 -229 1392 -228 q 1306 -238 1337 -233 q 1303 -234 1304 -234 q 1305 -204 1305 -216 q 1303 -181 1305 -200 l 1304 -179 q 1302 -151 1302 -169 l 1302 -135 q 1314 -119 1302 -119 q 1371 -109 1346 -109 m 505 -147 q 506 -170 506 -163 l 506 -191 q 509 -194 506 -192 l 515 -194 q 534 -170 530 -194 l 534 -165 q 520 -143 534 -151 q 505 -147 511 -144 m 1181 -163 q 1184 -168 1182 -168 q 1215 -158 1211 -168 q 1190 -143 1215 -148 q 1181 -163 1183 -143 m 258 -166 q 277 -197 262 -197 l 279 -197 q 298 -176 290 -197 l 298 -168 q 275 -144 298 -151 q 258 -166 258 -146 m 376 -166 q 393 -197 379 -197 l 397 -197 q 414 -176 408 -197 l 414 -168 q 391 -144 414 -151 q 376 -166 376 -146 m 1265 -197 l 1288 -197 q 1293 -201 1290 -197 q 1286 -231 1291 -231 l 1264 -231 q 1261 -227 1262 -231 l 1261 -214 q 1259 -204 1261 -210 q 1265 -197 1262 -197 z "},"9":{"ha":1577,"x_min":68,"x_max":1505,"o":"m 728 1109 l 735 1109 q 793 1063 772 1109 q 795 1061 793 1061 q 794 1057 795 1059 q 795 1046 795 1048 q 757 991 795 1009 q 737 987 747 987 l 734 987 q 675 1036 692 987 q 673 1048 673 1047 q 715 1107 673 1090 q 728 1109 722 1109 m 903 1103 q 928 1084 918 1103 q 930 1071 930 1080 q 957 1094 947 1094 q 981 1072 971 1094 q 962 1040 981 1065 q 973 993 973 998 q 952 972 969 972 l 951 972 q 928 994 935 972 q 920 1015 922 1015 q 913 991 918 1013 q 894 981 903 981 l 891 981 q 890 983 890 981 l 888 981 q 869 1006 869 991 l 869 1008 q 888 1096 882 1096 q 903 1103 895 1102 m 576 1082 l 580 1082 q 610 1034 603 1082 q 618 1016 614 1016 q 638 1020 631 1020 q 660 991 660 1013 q 646 973 660 984 q 595 962 606 962 q 566 1017 574 962 q 555 1061 555 1053 q 576 1082 559 1082 m 1047 1069 l 1048 1069 q 1073 1046 1065 1069 l 1073 1044 q 1053 980 1073 1036 q 1029 951 1045 951 l 1028 951 q 1004 966 1009 951 q 1002 976 1002 966 l 1002 979 q 1035 1065 1027 1065 q 1047 1069 1042 1069 m 721 1044 q 732 1036 725 1036 l 734 1036 q 747 1051 747 1039 q 736 1061 747 1058 q 721 1044 724 1061 l 721 1044 m 460 1042 l 465 1042 q 490 1017 479 1042 q 505 983 503 984 l 506 983 q 530 989 526 989 q 553 968 542 989 l 553 966 q 551 966 553 966 l 553 964 q 519 934 553 941 q 492 924 502 924 l 492 926 l 490 924 l 488 924 q 471 940 476 928 l 448 996 q 441 1020 441 1012 l 441 1021 q 460 1042 445 1042 m 1118 1042 l 1120 1042 q 1187 1010 1133 1039 q 1198 989 1198 1001 l 1198 987 q 1198 987 1198 987 l 1198 985 q 1185 968 1195 973 q 1179 966 1179 966 q 1175 968 1175 968 l 1172 966 l 1165 970 q 1151 949 1158 970 q 1127 915 1136 917 l 1122 914 l 1118 914 q 1094 939 1100 914 l 1094 942 q 1116 994 1094 947 q 1097 1019 1103 994 q 1118 1042 1101 1042 m 387 1004 q 410 987 400 1004 q 412 978 412 983 l 412 973 q 403 959 408 964 q 418 947 414 959 q 412 939 418 945 l 414 939 q 424 942 419 942 l 429 942 q 450 924 441 942 q 452 918 452 921 q 452 915 452 917 l 452 913 q 407 877 452 901 q 389 869 400 869 q 361 896 374 869 q 326 959 326 949 q 353 987 326 975 q 387 1004 378 1004 m 1230 981 q 1280 951 1238 981 q 1303 920 1303 937 l 1303 919 q 1278 898 1303 901 q 1266 903 1272 899 l 1265 903 q 1250 888 1259 903 q 1217 856 1231 856 q 1192 873 1198 856 q 1190 882 1190 879 q 1215 924 1190 892 q 1221 935 1219 929 q 1207 959 1207 945 q 1230 981 1207 979 m 407 937 l 397 930 q 409 936 408 936 l 409 937 l 407 937 m 281 928 q 328 884 294 928 q 353 850 351 863 l 353 844 q 331 824 353 829 l 330 824 q 329 825 329 824 q 326 824 327 824 q 302 846 320 824 l 298 846 q 292 840 292 842 l 292 837 q 309 810 309 819 l 309 810 q 298 789 309 795 q 284 785 292 785 q 241 825 272 785 q 213 867 213 854 q 232 890 213 886 l 237 890 q 264 869 247 890 l 266 869 l 273 877 l 273 878 q 258 907 258 895 q 281 928 258 927 m 1331 905 q 1352 884 1352 899 q 1344 855 1352 878 l 1345 855 q 1373 862 1369 862 l 1375 862 q 1394 842 1388 862 l 1394 838 q 1356 817 1394 822 q 1329 804 1337 814 q 1306 787 1314 787 l 1299 787 q 1276 808 1283 787 l 1276 817 q 1303 848 1276 824 q 1321 902 1314 902 q 1331 905 1324 904 m 865 839 q 932 791 901 839 q 1030 818 996 818 l 1038 818 q 1082 757 1069 818 q 1080 755 1082 755 q 1091 732 1084 732 q 1106 694 1106 716 l 1106 692 q 1087 625 1106 657 l 1087 623 q 1112 538 1112 560 q 1116 536 1116 538 l 1122 538 l 1141 538 q 1143 536 1143 538 q 1143 538 1143 536 q 1181 522 1175 538 l 1181 521 q 1156 513 1181 513 l 1141 513 q 1139 513 1139 513 l 1137 513 l 1135 513 q 1131 513 1133 513 q 1127 513 1129 513 l 1127 513 q 1113 503 1113 513 l 1110 469 q 1164 449 1157 464 q 1153 441 1164 441 q 1109 444 1147 441 q 1093 413 1103 444 q 1089 404 1092 413 q 1141 368 1141 382 q 1135 359 1139 361 q 1082 378 1117 363 q 1078 380 1082 380 l 1075 380 q 1009 328 1040 343 q 958 309 982 315 q 957 308 958 308 q 956 309 956 308 q 930 302 951 307 l 930 302 q 907 295 907 298 l 919 250 q 962 260 932 256 q 1053 196 1021 260 q 1061 154 1061 179 q 1004 64 1061 92 q 964 55 996 60 q 962 56 962 55 q 919 54 941 54 l 917 53 q 914 54 915 54 l 910 53 q 909 54 909 53 l 903 53 l 884 53 q 884 54 884 53 l 882 53 l 844 53 q 840 52 842 53 q 837 53 838 53 q 836 52 836 53 l 831 53 l 829 53 q 819 52 825 53 l 817 53 q 813 52 815 52 q 812 53 812 52 l 810 52 l 796 52 q 782 53 789 52 q 779 52 781 53 q 759 53 768 53 l 749 53 q 745 54 747 53 q 745 53 745 54 l 734 54 l 720 54 l 713 55 q 713 54 713 55 q 699 56 703 56 l 697 55 q 688 57 693 57 l 686 56 q 682 57 684 57 q 678 56 680 57 q 677 57 677 56 l 673 56 q 667 57 672 56 l 664 56 q 660 57 663 57 q 656 56 658 57 q 652 57 654 57 l 648 56 l 646 57 q 643 56 643 57 q 543 83 567 56 q 530 123 530 102 q 582 176 530 160 q 627 189 627 184 q 673 275 627 200 q 684 308 684 295 q 642 321 655 315 l 640 319 q 589 342 605 334 l 557 365 q 501 334 547 365 q 498 333 500 334 q 485 347 487 333 q 532 384 485 357 l 534 387 q 515 418 534 391 l 511 420 q 498 416 501 418 l 496 418 q 471 412 488 414 q 461 424 461 418 q 501 445 461 434 q 503 448 503 448 q 490 489 495 489 l 488 488 l 486 489 q 437 484 439 484 l 437 485 l 435 484 q 426 492 431 484 l 426 500 q 490 515 426 509 q 492 521 492 519 q 490 526 492 524 q 524 641 490 581 q 511 703 511 682 q 546 796 511 759 q 568 801 559 801 l 574 801 q 678 770 608 801 q 686 768 678 768 q 772 777 728 777 l 787 777 q 800 795 793 777 q 865 839 831 839 m 941 764 q 957 755 941 755 q 987 734 974 749 l 989 734 q 1036 744 1016 744 l 1051 744 q 1053 746 1053 744 l 1053 747 q 1035 793 1049 793 q 941 765 994 793 l 941 764 m 534 701 q 543 668 534 689 l 544 668 q 555 673 552 673 q 563 665 559 673 q 540 626 563 660 q 515 519 515 572 l 515 519 q 547 511 515 514 q 557 505 557 507 l 557 500 q 545 496 555 496 q 523 496 539 496 q 517 492 518 494 q 532 451 523 451 q 553 454 551 454 q 561 446 561 454 l 561 445 q 539 435 559 441 l 538 432 l 538 431 q 563 399 552 399 q 591 407 587 407 q 597 399 595 407 q 579 385 595 394 l 578 382 q 709 332 616 349 q 829 321 774 321 l 840 321 q 1040 386 972 321 q 1046 395 1046 393 q 1031 410 1031 404 l 1031 411 q 1040 416 1034 416 q 1056 413 1043 416 q 1076 452 1065 413 q 1059 460 1076 454 q 1056 465 1056 463 q 1068 472 1056 471 l 1080 472 q 1087 508 1084 472 q 1084 515 1086 515 q 1052 511 1080 515 q 1044 517 1047 513 l 1044 522 q 1084 534 1044 528 q 1086 538 1086 538 q 1065 605 1086 568 l 1063 605 q 1021 584 1042 584 l 1015 584 q 956 631 980 584 q 954 631 954 631 q 939 629 948 629 q 890 654 911 629 q 842 643 857 643 l 833 643 q 775 696 787 643 q 774 709 775 701 q 780 749 775 726 l 778 751 l 755 751 q 683 742 724 751 l 681 742 q 631 764 677 742 q 574 778 591 778 q 536 713 543 778 q 534 701 534 703 m 1390 730 q 1405 717 1400 730 q 1398 711 1404 711 l 1390 713 q 1377 699 1377 711 l 1377 694 q 1385 690 1380 694 q 1436 724 1407 724 l 1444 724 q 1485 688 1467 724 q 1489 667 1489 677 q 1470 635 1487 654 q 1493 597 1493 621 q 1480 576 1487 581 q 1451 565 1474 570 q 1451 566 1451 565 l 1445 565 l 1442 565 q 1425 567 1426 567 q 1411 559 1417 559 l 1411 561 q 1396 543 1408 561 q 1364 524 1384 531 q 1325 553 1333 524 l 1324 559 l 1325 562 q 1324 563 1325 563 l 1325 568 l 1325 569 q 1323 572 1325 572 l 1312 572 q 1284 587 1299 572 q 1269 623 1269 606 l 1269 628 q 1308 671 1269 658 q 1322 673 1313 673 l 1324 673 q 1341 671 1336 673 q 1344 680 1341 672 q 1330 687 1338 686 q 1314 673 1325 687 l 1312 673 q 1305 681 1310 673 l 1305 683 q 1326 702 1305 699 l 1329 702 q 1354 690 1339 702 q 1363 694 1358 694 l 1362 699 q 1390 730 1365 730 m 1350 666 q 1371 647 1350 650 l 1371 647 q 1388 666 1384 647 q 1369 685 1385 685 q 1350 666 1350 682 m 1371 637 q 1394 586 1382 605 q 1405 576 1404 576 l 1409 576 q 1413 578 1411 576 l 1413 584 q 1390 645 1411 606 l 1388 645 q 1371 637 1379 639 m 642 508 l 648 508 q 667 489 662 508 l 667 475 q 648 450 667 454 l 641 450 q 623 475 623 454 l 623 479 q 642 508 626 508 m 947 507 l 952 507 q 972 481 970 507 l 972 479 q 952 449 972 454 l 949 449 q 928 475 928 452 l 928 479 q 947 507 931 507 m 798 456 l 804 456 q 837 431 832 456 l 837 426 q 806 403 833 403 q 768 422 776 403 q 768 430 768 424 q 798 456 768 452 m 783 429 l 783 426 q 804 416 790 416 q 821 428 821 418 q 806 441 821 437 l 800 441 q 783 429 783 440 m 168 403 q 192 390 180 403 q 207 397 192 393 l 210 397 q 239 369 230 397 l 241 363 q 230 340 239 351 l 230 338 q 237 308 237 326 q 216 267 233 285 q 182 249 205 256 q 180 245 180 247 l 180 233 q 218 250 199 250 l 222 250 q 258 229 258 245 l 258 215 q 239 182 256 201 q 216 171 230 176 q 214 172 214 171 l 207 171 q 178 176 196 171 q 170 171 178 174 q 161 176 161 174 q 131 170 143 171 q 98 184 110 174 q 79 230 79 205 q 89 245 79 241 q 111 250 99 250 l 115 250 q 155 229 136 250 l 157 229 l 157 249 q 135 258 155 251 q 104 317 104 285 q 109 342 104 326 q 100 368 100 358 l 100 371 q 128 397 100 393 l 129 397 q 146 390 134 397 q 168 403 153 403 m 1415 391 q 1438 378 1428 391 q 1453 385 1447 385 q 1489 357 1477 385 q 1476 329 1489 341 q 1483 304 1483 309 q 1470 262 1483 283 q 1430 237 1452 243 q 1427 232 1428 237 l 1427 231 l 1428 224 q 1427 222 1427 224 l 1430 222 q 1464 239 1444 239 l 1468 239 q 1505 218 1495 239 q 1504 217 1505 217 l 1505 212 l 1505 210 q 1489 173 1505 192 q 1453 159 1472 159 l 1451 159 q 1426 165 1440 159 q 1417 159 1426 162 q 1406 165 1412 159 l 1405 165 q 1382 159 1394 159 l 1375 159 q 1342 176 1358 161 l 1337 176 q 1318 142 1335 160 q 1285 125 1308 134 q 1284 121 1284 124 l 1284 111 l 1285 111 q 1324 127 1304 127 q 1361 110 1346 127 q 1362 102 1361 106 q 1318 49 1362 60 q 1308 47 1312 47 q 1283 53 1300 47 q 1274 47 1276 47 q 1261 53 1271 47 q 1238 47 1247 47 l 1234 47 q 1193 71 1212 47 q 1181 104 1183 87 q 1196 123 1181 119 q 1213 127 1206 127 l 1219 127 q 1259 106 1241 127 l 1259 106 l 1259 127 q 1224 150 1244 127 q 1207 193 1207 173 q 1213 222 1208 207 q 1202 245 1202 231 q 1231 273 1202 270 l 1234 273 q 1248 267 1240 273 q 1272 279 1257 279 l 1274 279 q 1295 267 1284 279 q 1309 273 1301 273 l 1314 273 q 1342 252 1329 273 q 1344 247 1342 250 l 1344 236 q 1356 239 1351 239 l 1361 239 q 1402 217 1385 239 l 1403 217 l 1403 239 q 1369 258 1388 241 q 1350 304 1350 284 q 1356 331 1352 318 q 1346 359 1346 345 q 1373 385 1352 385 l 1373 385 q 1392 378 1385 385 q 1415 391 1399 391 l 1415 391 m 842 300 l 842 298 q 888 264 867 264 q 878 300 884 291 q 874 300 876 300 l 871 300 q 842 300 862 300 m 359 289 q 382 276 370 289 q 397 283 382 280 l 401 283 q 429 260 416 283 q 431 248 431 252 q 421 227 431 241 l 420 224 l 425 212 q 424 211 425 211 q 426 199 425 210 q 409 156 426 178 q 372 135 395 141 l 370 133 l 370 121 l 372 121 q 408 136 389 136 l 414 136 q 448 112 448 132 q 409 59 448 73 q 393 57 405 57 q 372 62 382 57 q 359 57 370 62 q 350 62 350 60 q 319 57 334 57 q 277 85 297 57 q 269 110 269 100 l 269 121 q 298 136 269 132 l 306 136 q 346 115 326 136 l 346 137 q 310 159 331 137 q 294 203 294 182 q 300 229 294 214 q 289 255 289 244 q 315 283 294 283 l 317 283 q 336 275 328 283 q 357 289 336 286 l 359 289 m 743 264 q 770 264 761 264 l 796 264 l 801 262 l 801 264 q 770 276 789 276 l 770 276 q 743 264 754 276 m 1249 247 q 1240 260 1246 247 q 1229 262 1236 262 q 1213 245 1213 259 q 1227 227 1213 235 q 1228 224 1228 224 q 1219 195 1219 210 l 1219 191 q 1257 144 1219 159 q 1268 142 1263 142 l 1274 142 q 1323 182 1309 142 q 1324 191 1324 187 l 1324 197 q 1314 224 1324 210 q 1325 234 1314 227 q 1329 245 1329 240 q 1314 262 1325 262 l 1310 262 q 1295 247 1303 262 l 1293 247 q 1283 264 1289 247 q 1271 269 1276 269 q 1253 248 1258 269 q 1249 247 1251 248 m 163 254 l 163 186 q 166 184 164 184 l 168 184 l 168 254 l 163 254 m 730 249 q 726 239 730 248 l 728 239 q 815 236 760 236 q 813 247 815 238 q 730 249 749 249 m 1411 243 l 1411 173 l 1413 173 q 1415 175 1415 173 l 1415 243 l 1411 243 m 90 233 l 90 226 q 123 188 90 197 q 131 186 128 186 q 153 195 153 191 l 153 197 q 123 239 153 227 q 111 239 113 239 q 90 233 103 239 m 178 199 q 201 186 182 186 q 243 228 243 193 l 243 231 q 220 239 243 236 q 180 205 191 239 q 178 199 180 201 m 924 222 q 935 87 935 159 q 943 85 941 85 q 1025 129 1007 85 q 1031 157 1031 144 q 979 233 1031 214 q 960 235 968 235 q 924 222 937 235 m 1337 220 l 1337 217 q 1373 175 1337 184 l 1377 175 q 1400 182 1387 175 l 1400 189 q 1364 228 1400 218 l 1358 228 q 1337 220 1337 224 m 1426 182 q 1449 175 1440 175 q 1489 208 1478 175 l 1489 222 q 1467 228 1476 228 q 1426 191 1435 228 l 1426 182 m 840 210 q 854 194 843 194 l 859 194 q 872 207 872 197 l 872 212 q 855 226 872 224 q 840 210 844 226 m 720 222 q 718 211 718 212 l 718 210 l 728 210 q 818 208 771 210 l 818 220 q 817 220 817 220 l 810 220 q 726 222 758 222 l 726 222 l 720 222 m 713 188 l 713 172 q 749 112 713 130 q 768 108 756 108 l 768 108 q 806 131 789 108 q 829 152 829 134 l 829 153 q 818 173 829 161 l 818 184 q 713 188 772 188 m 555 125 l 555 118 q 593 87 555 95 q 617 85 602 85 l 622 85 q 643 87 629 85 q 620 154 620 111 l 620 156 l 621 158 l 620 158 q 557 132 568 158 q 555 125 555 128 m 355 140 l 355 71 l 357 71 q 359 73 359 71 l 359 140 l 355 140 m 1267 130 l 1267 66 l 1268 61 l 1270 61 q 1272 64 1272 61 l 1272 130 q 1270 132 1272 132 l 1269 132 q 1267 130 1267 132 m 279 119 l 279 115 q 312 74 279 84 l 319 73 q 343 79 329 73 l 343 87 q 315 123 343 111 q 303 125 308 125 q 279 119 293 125 m 369 81 q 393 73 369 76 q 431 102 418 73 q 433 113 433 106 l 433 119 q 408 125 420 125 q 369 91 380 125 l 369 81 m 1193 108 l 1193 106 q 1232 64 1193 71 l 1234 64 q 1257 72 1257 67 l 1257 78 q 1223 116 1257 104 l 1215 116 q 1193 108 1201 116 m 1283 79 l 1283 72 q 1306 64 1283 67 q 1346 104 1346 71 l 1346 110 q 1324 116 1334 116 l 1323 116 q 1285 87 1296 116 q 1283 79 1283 84 m 401 2 l 410 2 q 412 0 412 2 l 412 -9 q 410 -12 412 -12 l 401 -12 q 399 -9 399 -12 l 399 0 q 401 2 399 2 m 431 2 l 441 2 q 443 0 443 2 l 443 -90 q 441 -92 443 -92 l 431 -92 q 429 -90 429 -92 l 429 0 q 431 2 429 2 m 579 2 l 589 2 q 591 0 591 2 l 591 -90 q 589 -92 591 -92 l 579 -92 q 577 -87 577 -92 q 561 -94 568 -94 l 555 -94 q 530 -62 530 -90 l 530 -58 q 555 -22 533 -22 l 564 -22 q 577 -27 568 -22 l 577 0 q 579 2 577 2 m 837 2 l 846 2 q 848 0 848 2 l 848 -90 q 846 -92 848 -92 l 837 -92 q 835 -87 835 -92 q 819 -94 826 -94 l 813 -94 q 787 -62 787 -90 l 787 -58 q 814 -22 791 -22 l 820 -22 q 835 -27 827 -22 l 835 0 q 837 2 836 2 m 1266 2 l 1276 2 q 1278 0 1278 2 l 1278 -9 q 1276 -12 1278 -12 l 1266 -12 q 1264 -9 1264 -12 l 1264 0 q 1266 2 1264 2 m 1480 2 l 1489 2 q 1491 0 1491 2 l 1491 -90 q 1489 -92 1491 -92 l 1480 -92 q 1478 -87 1478 -92 q 1462 -94 1469 -94 l 1455 -94 q 1430 -62 1430 -90 l 1430 -58 q 1457 -22 1434 -22 l 1463 -22 q 1478 -27 1470 -22 l 1478 0 q 1480 2 1478 2 m 1113 -7 l 1122 -7 q 1124 -9 1124 -7 l 1124 -24 l 1133 -24 q 1135 -26 1135 -24 l 1135 -31 q 1133 -33 1135 -33 l 1124 -33 l 1124 -75 q 1130 -83 1124 -83 q 1137 -85 1137 -83 l 1137 -92 q 1134 -94 1137 -94 l 1122 -94 q 1111 -80 1111 -94 l 1111 -33 l 1105 -33 q 1103 -31 1103 -33 l 1103 -26 q 1105 -24 1103 -24 l 1111 -24 l 1111 -9 q 1113 -7 1112 -7 m 100 -22 l 106 -22 q 130 -42 124 -22 l 130 -44 l 119 -44 q 106 -33 113 -33 l 100 -33 q 83 -56 86 -33 l 83 -61 q 100 -84 86 -84 l 106 -84 q 119 -73 114 -84 l 130 -73 l 130 -73 q 106 -94 130 -90 l 100 -94 q 70 -61 73 -94 l 70 -56 q 100 -22 73 -22 m 173 -22 q 201 -58 198 -22 l 201 -59 q 173 -94 198 -94 l 167 -94 q 136 -61 140 -94 l 136 -57 q 166 -22 140 -22 l 173 -22 m 243 -22 l 251 -22 q 265 -33 260 -22 l 266 -33 q 283 -22 277 -22 l 291 -22 q 308 -46 308 -25 l 308 -90 q 306 -92 308 -92 l 296 -92 q 294 -90 294 -92 l 294 -44 q 289 -33 294 -36 l 284 -33 q 268 -43 275 -33 l 268 -90 q 266 -92 268 -92 l 256 -92 q 254 -90 254 -92 l 254 -43 q 249 -33 252 -33 l 241 -33 q 228 -43 235 -33 l 228 -90 q 226 -92 228 -92 l 216 -92 q 214 -90 214 -92 l 214 -26 q 216 -24 214 -24 l 226 -24 q 228 -31 228 -24 q 243 -22 237 -22 m 353 -22 l 361 -22 q 386 -57 382 -22 l 386 -60 q 359 -94 381 -94 l 353 -94 q 338 -90 346 -94 l 338 -117 q 336 -119 338 -119 l 327 -119 q 325 -117 325 -119 l 325 -26 q 327 -24 326 -24 l 336 -24 q 338 -31 338 -24 l 340 -31 q 353 -22 340 -26 m 484 -22 l 490 -22 q 521 -56 517 -22 l 521 -59 q 519 -61 521 -61 l 469 -61 l 469 -62 q 486 -84 469 -81 l 494 -84 q 509 -73 500 -84 l 519 -73 l 519 -75 q 494 -94 519 -90 l 487 -94 q 456 -66 456 -90 q 456 -59 456 -66 l 456 -58 q 484 -22 459 -22 m 665 -22 l 677 -22 q 701 -50 701 -22 l 701 -90 q 699 -92 701 -92 l 690 -92 q 688 -87 688 -92 q 669 -94 678 -94 l 661 -94 q 640 -73 640 -92 q 673 -50 644 -50 l 688 -50 l 688 -42 q 678 -33 686 -33 l 667 -33 q 654 -44 658 -33 l 644 -44 l 642 -43 q 665 -22 642 -26 m 749 -22 l 755 -22 q 775 -48 775 -22 l 775 -90 q 773 -92 775 -92 l 764 -92 q 761 -90 761 -92 l 761 -43 q 753 -33 761 -33 l 747 -33 q 732 -46 732 -37 l 732 -90 q 730 -92 732 -92 l 720 -92 q 718 -90 718 -92 l 718 -26 q 720 -24 718 -24 l 730 -24 q 732 -31 732 -24 q 749 -22 741 -22 m 993 -22 l 1000 -22 q 1030 -56 1026 -22 l 1030 -59 q 1028 -61 1030 -61 l 979 -61 l 979 -62 q 995 -84 979 -81 l 1002 -84 q 1017 -73 1009 -84 l 1028 -73 l 1028 -75 q 1004 -94 1028 -90 l 996 -94 q 966 -66 966 -90 q 964 -59 964 -66 l 964 -58 q 993 -22 968 -22 m 1065 -22 l 1075 -22 q 1099 -42 1099 -27 l 1099 -44 l 1088 -44 l 1080 -33 l 1074 -33 l 1068 -33 q 1052 -56 1055 -33 l 1052 -61 q 1068 -84 1055 -84 l 1074 -84 q 1087 -73 1082 -84 l 1099 -73 l 1099 -73 q 1075 -94 1099 -90 l 1069 -94 q 1038 -61 1042 -94 l 1038 -56 q 1065 -22 1043 -22 m 1172 -22 l 1177 -22 q 1207 -56 1204 -22 l 1207 -59 q 1179 -94 1204 -94 l 1172 -94 q 1141 -61 1145 -94 l 1141 -56 q 1172 -22 1145 -22 m 1247 -22 l 1255 -22 q 1257 -24 1257 -22 l 1257 -33 q 1255 -35 1257 -35 l 1246 -35 q 1234 -43 1239 -35 l 1234 -90 q 1231 -92 1234 -92 l 1221 -92 q 1219 -90 1219 -92 l 1219 -26 q 1221 -24 1220 -24 l 1231 -24 q 1234 -31 1234 -24 q 1247 -22 1242 -22 m 1385 -22 l 1392 -22 q 1422 -56 1418 -22 l 1422 -59 q 1420 -61 1422 -61 l 1371 -61 l 1371 -62 q 1387 -84 1371 -81 l 1394 -84 q 1409 -73 1402 -84 l 1420 -73 l 1420 -75 q 1396 -94 1420 -90 l 1388 -94 q 1358 -66 1358 -90 q 1356 -59 1356 -66 l 1356 -58 q 1385 -22 1360 -22 m 401 -24 l 410 -24 q 412 -26 412 -24 l 412 -90 q 410 -92 412 -92 l 401 -92 q 399 -90 399 -92 l 399 -26 q 401 -24 399 -24 m 896 -24 l 907 -24 q 926 -76 911 -26 l 928 -76 q 947 -24 943 -24 l 956 -24 q 958 -26 958 -24 q 932 -92 936 -87 l 922 -92 q 896 -24 920 -92 m 1266 -24 l 1276 -24 q 1278 -26 1278 -24 l 1278 -90 q 1276 -92 1278 -92 l 1266 -92 q 1264 -90 1264 -92 l 1264 -26 q 1266 -24 1264 -24 m 1293 -24 l 1346 -24 q 1348 -26 1348 -24 l 1348 -33 l 1306 -81 l 1306 -82 l 1348 -82 q 1350 -84 1350 -82 l 1350 -90 q 1348 -92 1350 -92 l 1290 -92 q 1288 -90 1288 -92 l 1288 -83 l 1330 -35 l 1293 -35 q 1290 -33 1290 -35 l 1290 -26 q 1293 -24 1291 -24 m 150 -56 l 150 -61 q 166 -84 153 -84 l 172 -84 q 188 -57 188 -84 q 173 -33 188 -36 l 166 -33 q 150 -56 153 -33 m 338 -43 l 338 -77 q 353 -84 345 -84 l 359 -84 q 372 -58 372 -84 q 359 -33 372 -33 l 353 -33 q 338 -43 347 -33 m 469 -52 l 507 -52 q 492 -33 503 -33 l 485 -33 q 469 -52 473 -33 m 543 -57 l 543 -62 q 557 -84 543 -84 l 562 -84 q 577 -73 569 -84 l 577 -40 q 562 -33 570 -33 l 557 -33 q 543 -57 543 -33 m 801 -57 l 801 -62 q 815 -84 801 -84 l 820 -84 q 835 -73 827 -84 l 835 -40 q 820 -33 828 -33 l 815 -33 q 801 -57 801 -33 m 979 -52 l 1016 -52 q 1000 -33 1012 -33 l 994 -33 q 979 -52 982 -33 m 1156 -56 l 1156 -61 q 1171 -84 1158 -84 l 1177 -84 q 1193 -57 1193 -84 q 1179 -33 1193 -36 l 1171 -33 q 1156 -56 1158 -33 m 1371 -52 l 1408 -52 q 1392 -33 1404 -33 l 1386 -33 q 1371 -52 1374 -33 m 1444 -56 l 1444 -62 q 1458 -84 1444 -84 l 1463 -84 q 1478 -73 1470 -84 l 1478 -40 q 1463 -33 1471 -33 l 1458 -33 q 1444 -56 1444 -35 m 654 -73 l 654 -75 q 663 -84 655 -84 l 673 -84 q 688 -73 688 -81 l 688 -60 q 654 -73 654 -60 m 917 -104 q 922 -113 922 -109 l 922 -130 q 909 -146 922 -146 q 890 -151 890 -146 q 873 -231 890 -231 l 869 -231 q 863 -229 867 -231 q 852 -231 857 -231 l 850 -231 q 846 -227 848 -231 q 844 -201 846 -214 q 848 -147 846 -191 l 846 -145 l 842 -145 q 814 -136 814 -145 q 812 -125 812 -136 q 829 -111 812 -111 q 917 -104 854 -104 m 1030 -104 q 1034 -113 1034 -109 l 1034 -130 q 1021 -146 1034 -146 q 1002 -151 1002 -146 q 985 -231 1002 -231 l 983 -231 q 975 -229 979 -231 q 964 -231 970 -231 l 962 -231 q 958 -227 961 -231 q 956 -201 958 -214 q 962 -147 959 -191 l 958 -145 l 955 -145 q 926 -136 926 -145 q 924 -125 925 -136 q 943 -111 924 -111 q 1030 -104 967 -104 m 1445 -107 l 1453 -107 q 1476 -134 1476 -115 q 1461 -149 1476 -140 q 1451 -141 1459 -149 l 1444 -141 q 1438 -151 1438 -144 q 1467 -157 1439 -157 q 1489 -182 1489 -166 l 1489 -184 q 1455 -231 1489 -218 l 1446 -231 q 1411 -208 1430 -231 q 1402 -195 1402 -201 q 1424 -179 1415 -179 q 1443 -191 1439 -191 l 1446 -191 q 1453 -186 1453 -191 q 1415 -168 1451 -184 q 1407 -149 1407 -160 l 1407 -144 q 1445 -107 1407 -123 m 100 -109 l 104 -109 q 109 -116 109 -110 l 109 -120 q 113 -140 109 -140 q 127 -116 121 -120 l 129 -116 q 155 -115 138 -116 q 166 -145 159 -117 q 169 -149 168 -149 l 170 -149 q 180 -111 173 -149 l 182 -109 l 184 -109 q 214 -120 214 -114 q 192 -229 214 -137 q 186 -231 188 -231 l 152 -231 q 146 -202 148 -231 l 142 -194 q 129 -222 138 -194 q 117 -231 123 -231 l 98 -231 q 85 -212 85 -231 q 68 -117 68 -149 q 100 -109 68 -113 m 275 -109 l 294 -109 q 329 -142 315 -109 q 331 -160 331 -151 q 292 -227 331 -210 q 277 -229 283 -229 l 268 -229 q 239 -213 247 -224 q 222 -158 222 -196 q 275 -109 222 -116 m 393 -109 l 412 -109 q 446 -142 431 -109 q 448 -160 448 -151 q 409 -227 448 -210 q 393 -229 401 -229 l 385 -229 q 355 -213 363 -224 q 338 -158 338 -196 q 393 -109 338 -116 m 477 -109 l 501 -109 q 549 -124 532 -113 q 572 -165 572 -142 l 572 -170 q 553 -210 562 -210 q 500 -231 534 -231 q 481 -231 490 -231 q 473 -231 473 -231 q 462 -231 467 -231 l 456 -229 q 460 -170 458 -179 q 458 -147 458 -151 l 460 -137 q 458 -120 458 -131 q 477 -109 458 -109 m 758 -109 l 798 -109 q 808 -156 804 -109 q 795 -220 802 -220 q 766 -231 773 -231 l 738 -231 q 692 -205 703 -231 q 686 -179 686 -187 l 686 -172 q 692 -116 688 -122 q 719 -109 696 -109 l 721 -109 q 732 -126 732 -109 q 724 -168 724 -164 l 724 -170 q 736 -197 724 -191 q 751 -182 744 -197 q 755 -149 755 -161 q 754 -142 755 -146 q 755 -128 755 -135 l 755 -115 q 758 -109 755 -109 m 1183 -109 l 1213 -109 q 1238 -119 1232 -109 q 1250 -143 1250 -138 l 1250 -160 q 1228 -189 1250 -174 l 1227 -191 q 1240 -219 1240 -216 l 1240 -221 q 1215 -238 1225 -238 q 1198 -208 1211 -234 q 1188 -201 1192 -201 l 1186 -201 l 1185 -206 l 1185 -210 q 1187 -227 1185 -213 q 1181 -236 1187 -233 l 1179 -236 q 1146 -223 1146 -233 l 1146 -212 q 1145 -208 1146 -209 q 1147 -186 1145 -206 q 1145 -144 1145 -167 l 1145 -137 q 1154 -111 1145 -111 q 1183 -109 1172 -109 m 627 -109 l 644 -109 q 667 -126 660 -109 q 671 -142 669 -128 q 663 -164 668 -164 l 640 -164 q 629 -147 637 -163 q 619 -141 623 -141 q 600 -174 600 -150 l 600 -177 q 616 -195 602 -195 l 619 -195 q 644 -177 630 -195 l 650 -176 q 680 -181 680 -176 q 661 -219 680 -197 q 629 -231 644 -231 l 621 -231 q 584 -203 600 -231 q 577 -175 579 -191 q 591 -128 582 -140 q 627 -109 612 -111 m 1111 -109 l 1126 -109 q 1132 -132 1132 -109 q 1103 -146 1132 -142 q 1087 -158 1087 -149 l 1087 -160 q 1090 -163 1087 -161 l 1103 -163 q 1116 -162 1108 -163 q 1122 -181 1122 -162 q 1091 -193 1120 -184 l 1090 -195 l 1090 -198 q 1095 -201 1090 -200 q 1126 -198 1109 -198 q 1131 -220 1129 -201 q 1109 -229 1131 -228 q 1046 -238 1078 -233 q 1042 -234 1044 -234 q 1044 -204 1044 -216 q 1042 -181 1044 -200 l 1044 -179 q 1042 -151 1042 -169 l 1042 -135 q 1054 -119 1042 -119 q 1111 -109 1086 -109 m 1371 -109 l 1386 -109 q 1392 -132 1392 -109 q 1364 -146 1392 -142 q 1347 -158 1347 -149 l 1347 -160 q 1350 -163 1347 -161 l 1364 -163 q 1375 -162 1369 -163 q 1383 -181 1383 -162 q 1352 -193 1380 -184 l 1350 -195 l 1350 -198 q 1356 -201 1350 -200 q 1386 -198 1369 -198 q 1392 -220 1390 -201 q 1369 -229 1392 -228 q 1306 -238 1337 -233 q 1303 -234 1304 -234 q 1305 -204 1305 -216 q 1303 -181 1305 -200 l 1304 -179 q 1302 -151 1302 -169 l 1302 -135 q 1314 -119 1302 -119 q 1371 -109 1346 -109 m 505 -147 q 506 -170 506 -163 l 506 -191 q 509 -194 506 -192 l 515 -194 q 534 -170 530 -194 l 534 -165 q 520 -143 534 -151 q 505 -147 511 -144 m 1181 -163 q 1184 -168 1182 -168 q 1215 -158 1211 -168 q 1190 -143 1215 -148 q 1181 -163 1183 -143 m 258 -166 q 277 -197 262 -197 l 279 -197 q 298 -176 290 -197 l 298 -168 q 275 -144 298 -151 q 258 -166 258 -146 m 376 -166 q 393 -197 379 -197 l 397 -197 q 414 -176 408 -197 l 414 -168 q 391 -144 414 -151 q 376 -166 376 -146 m 1265 -197 l 1288 -197 q 1293 -201 1290 -197 q 1286 -231 1291 -231 l 1264 -231 q 1261 -227 1262 -231 l 1261 -214 q 1259 -204 1261 -210 q 1265 -197 1262 -197 z "},"\u0000":{"ha":0,"x_min":0,"x_max":0,"o":""},"\u001d":{"ha":0,"x_min":0,"x_max":0,"o":""}," ":{"ha":345,"x_min":0,"x_max":0,"o":""},"":{"ha":345,"x_min":0,"x_max":0,"o":""},"!":{"ha":1577,"x_min":68,"x_max":1505,"o":"m 728 1109 l 735 1109 q 793 1063 772 1109 q 795 1061 793 1061 q 794 1057 795 1059 q 795 1046 795 1048 q 757 991 795 1009 q 737 987 747 987 l 734 987 q 675 1036 692 987 q 673 1048 673 1047 q 715 1107 673 1090 q 728 1109 722 1109 m 903 1103 q 928 1084 918 1103 q 930 1071 930 1080 q 957 1094 947 1094 q 981 1072 971 1094 q 962 1040 981 1065 q 973 993 973 998 q 952 972 969 972 l 951 972 q 928 994 935 972 q 920 1015 922 1015 q 913 991 918 1013 q 894 981 903 981 l 891 981 q 890 983 890 981 l 888 981 q 869 1006 869 991 l 869 1008 q 888 1096 882 1096 q 903 1103 895 1102 m 576 1082 l 580 1082 q 610 1034 603 1082 q 618 1016 614 1016 q 638 1020 631 1020 q 660 991 660 1013 q 646 973 660 984 q 595 962 606 962 q 566 1017 574 962 q 555 1061 555 1053 q 576 1082 559 1082 m 1047 1069 l 1048 1069 q 1073 1046 1065 1069 l 1073 1044 q 1053 980 1073 1036 q 1029 951 1045 951 l 1028 951 q 1004 966 1009 951 q 1002 976 1002 966 l 1002 979 q 1035 1065 1027 1065 q 1047 1069 1042 1069 m 721 1044 q 732 1036 725 1036 l 734 1036 q 747 1051 747 1039 q 736 1061 747 1058 q 721 1044 724 1061 l 721 1044 m 460 1042 l 465 1042 q 490 1017 479 1042 q 505 983 503 984 l 506 983 q 530 989 526 989 q 553 968 542 989 l 553 966 q 551 966 553 966 l 553 964 q 519 934 553 941 q 492 924 502 924 l 492 926 l 490 924 l 488 924 q 471 940 476 928 l 448 996 q 441 1020 441 1012 l 441 1021 q 460 1042 445 1042 m 1118 1042 l 1120 1042 q 1187 1010 1133 1039 q 1198 989 1198 1001 l 1198 987 q 1198 987 1198 987 l 1198 985 q 1185 968 1195 973 q 1179 966 1179 966 q 1175 968 1175 968 l 1172 966 l 1165 970 q 1151 949 1158 970 q 1127 915 1136 917 l 1122 914 l 1118 914 q 1094 939 1100 914 l 1094 942 q 1116 994 1094 947 q 1097 1019 1103 994 q 1118 1042 1101 1042 m 387 1004 q 410 987 400 1004 q 412 978 412 983 l 412 973 q 403 959 408 964 q 418 947 414 959 q 412 939 418 945 l 414 939 q 424 942 419 942 l 429 942 q 450 924 441 942 q 452 918 452 921 q 452 915 452 917 l 452 913 q 407 877 452 901 q 389 869 400 869 q 361 896 374 869 q 326 959 326 949 q 353 987 326 975 q 387 1004 378 1004 m 1230 981 q 1280 951 1238 981 q 1303 920 1303 937 l 1303 919 q 1278 898 1303 901 q 1266 903 1272 899 l 1265 903 q 1250 888 1259 903 q 1217 856 1231 856 q 1192 873 1198 856 q 1190 882 1190 879 q 1215 924 1190 892 q 1221 935 1219 929 q 1207 959 1207 945 q 1230 981 1207 979 m 407 937 l 397 930 q 409 936 408 936 l 409 937 l 407 937 m 281 928 q 328 884 294 928 q 353 850 351 863 l 353 844 q 331 824 353 829 l 330 824 q 329 825 329 824 q 326 824 327 824 q 302 846 320 824 l 298 846 q 292 840 292 842 l 292 837 q 309 810 309 819 l 309 810 q 298 789 309 795 q 284 785 292 785 q 241 825 272 785 q 213 867 213 854 q 232 890 213 886 l 237 890 q 264 869 247 890 l 266 869 l 273 877 l 273 878 q 258 907 258 895 q 281 928 258 927 m 1331 905 q 1352 884 1352 899 q 1344 855 1352 878 l 1345 855 q 1373 862 1369 862 l 1375 862 q 1394 842 1388 862 l 1394 838 q 1356 817 1394 822 q 1329 804 1337 814 q 1306 787 1314 787 l 1299 787 q 1276 808 1283 787 l 1276 817 q 1303 848 1276 824 q 1321 902 1314 902 q 1331 905 1324 904 m 865 839 q 932 791 901 839 q 1030 818 996 818 l 1038 818 q 1082 757 1069 818 q 1080 755 1082 755 q 1091 732 1084 732 q 1106 694 1106 716 l 1106 692 q 1087 625 1106 657 l 1087 623 q 1112 538 1112 560 q 1116 536 1116 538 l 1122 538 l 1141 538 q 1143 536 1143 538 q 1143 538 1143 536 q 1181 522 1175 538 l 1181 521 q 1156 513 1181 513 l 1141 513 q 1139 513 1139 513 l 1137 513 l 1135 513 q 1131 513 1133 513 q 1127 513 1129 513 l 1127 513 q 1113 503 1113 513 l 1110 469 q 1164 449 1157 464 q 1153 441 1164 441 q 1109 444 1147 441 q 1093 413 1103 444 q 1089 404 1092 413 q 1141 368 1141 382 q 1135 359 1139 361 q 1082 378 1117 363 q 1078 380 1082 380 l 1075 380 q 1009 328 1040 343 q 958 309 982 315 q 957 308 958 308 q 956 309 956 308 q 930 302 951 307 l 930 302 q 907 295 907 298 l 919 250 q 962 260 932 256 q 1053 196 1021 260 q 1061 154 1061 179 q 1004 64 1061 92 q 964 55 996 60 q 962 56 962 55 q 919 54 941 54 l 917 53 q 914 54 915 54 l 910 53 q 909 54 909 53 l 903 53 l 884 53 q 884 54 884 53 l 882 53 l 844 53 q 840 52 842 53 q 837 53 838 53 q 836 52 836 53 l 831 53 l 829 53 q 819 52 825 53 l 817 53 q 813 52 815 52 q 812 53 812 52 l 810 52 l 796 52 q 782 53 789 52 q 779 52 781 53 q 759 53 768 53 l 749 53 q 745 54 747 53 q 745 53 745 54 l 734 54 l 720 54 l 713 55 q 713 54 713 55 q 699 56 703 56 l 697 55 q 688 57 693 57 l 686 56 q 682 57 684 57 q 678 56 680 57 q 677 57 677 56 l 673 56 q 667 57 672 56 l 664 56 q 660 57 663 57 q 656 56 658 57 q 652 57 654 57 l 648 56 l 646 57 q 643 56 643 57 q 543 83 567 56 q 530 123 530 102 q 582 176 530 160 q 627 189 627 184 q 673 275 627 200 q 684 308 684 295 q 642 321 655 315 l 640 319 q 589 342 605 334 l 557 365 q 501 334 547 365 q 498 333 500 334 q 485 347 487 333 q 532 384 485 357 l 534 387 q 515 418 534 391 l 511 420 q 498 416 501 418 l 496 418 q 471 412 488 414 q 461 424 461 418 q 501 445 461 434 q 503 448 503 448 q 490 489 495 489 l 488 488 l 486 489 q 437 484 439 484 l 437 485 l 435 484 q 426 492 431 484 l 426 500 q 490 515 426 509 q 492 521 492 519 q 490 526 492 524 q 524 641 490 581 q 511 703 511 682 q 546 796 511 759 q 568 801 559 801 l 574 801 q 678 770 608 801 q 686 768 678 768 q 772 777 728 777 l 787 777 q 800 795 793 777 q 865 839 831 839 m 941 764 q 957 755 941 755 q 987 734 974 749 l 989 734 q 1036 744 1016 744 l 1051 744 q 1053 746 1053 744 l 1053 747 q 1035 793 1049 793 q 941 765 994 793 l 941 764 m 534 701 q 543 668 534 689 l 544 668 q 555 673 552 673 q 563 665 559 673 q 540 626 563 660 q 515 519 515 572 l 515 519 q 547 511 515 514 q 557 505 557 507 l 557 500 q 545 496 555 496 q 523 496 539 496 q 517 492 518 494 q 532 451 523 451 q 553 454 551 454 q 561 446 561 454 l 561 445 q 539 435 559 441 l 538 432 l 538 431 q 563 399 552 399 q 591 407 587 407 q 597 399 595 407 q 579 385 595 394 l 578 382 q 709 332 616 349 q 829 321 774 321 l 840 321 q 1040 386 972 321 q 1046 395 1046 393 q 1031 410 1031 404 l 1031 411 q 1040 416 1034 416 q 1056 413 1043 416 q 1076 452 1065 413 q 1059 460 1076 454 q 1056 465 1056 463 q 1068 472 1056 471 l 1080 472 q 1087 508 1084 472 q 1084 515 1086 515 q 1052 511 1080 515 q 1044 517 1047 513 l 1044 522 q 1084 534 1044 528 q 1086 538 1086 538 q 1065 605 1086 568 l 1063 605 q 1021 584 1042 584 l 1015 584 q 956 631 980 584 q 954 631 954 631 q 939 629 948 629 q 890 654 911 629 q 842 643 857 643 l 833 643 q 775 696 787 643 q 774 709 775 701 q 780 749 775 726 l 778 751 l 755 751 q 683 742 724 751 l 681 742 q 631 764 677 742 q 574 778 591 778 q 536 713 543 778 q 534 701 534 703 m 1390 730 q 1405 717 1400 730 q 1398 711 1404 711 l 1390 713 q 1377 699 1377 711 l 1377 694 q 1385 690 1380 694 q 1436 724 1407 724 l 1444 724 q 1485 688 1467 724 q 1489 667 1489 677 q 1470 635 1487 654 q 1493 597 1493 621 q 1480 576 1487 581 q 1451 565 1474 570 q 1451 566 1451 565 l 1445 565 l 1442 565 q 1425 567 1426 567 q 1411 559 1417 559 l 1411 561 q 1396 543 1408 561 q 1364 524 1384 531 q 1325 553 1333 524 l 1324 559 l 1325 562 q 1324 563 1325 563 l 1325 568 l 1325 569 q 1323 572 1325 572 l 1312 572 q 1284 587 1299 572 q 1269 623 1269 606 l 1269 628 q 1308 671 1269 658 q 1322 673 1313 673 l 1324 673 q 1341 671 1336 673 q 1344 680 1341 672 q 1330 687 1338 686 q 1314 673 1325 687 l 1312 673 q 1305 681 1310 673 l 1305 683 q 1326 702 1305 699 l 1329 702 q 1354 690 1339 702 q 1363 694 1358 694 l 1362 699 q 1390 730 1365 730 m 1350 666 q 1371 647 1350 650 l 1371 647 q 1388 666 1384 647 q 1369 685 1385 685 q 1350 666 1350 682 m 1371 637 q 1394 586 1382 605 q 1405 576 1404 576 l 1409 576 q 1413 578 1411 576 l 1413 584 q 1390 645 1411 606 l 1388 645 q 1371 637 1379 639 m 642 508 l 648 508 q 667 489 662 508 l 667 475 q 648 450 667 454 l 641 450 q 623 475 623 454 l 623 479 q 642 508 626 508 m 947 507 l 952 507 q 972 481 970 507 l 972 479 q 952 449 972 454 l 949 449 q 928 475 928 452 l 928 479 q 947 507 931 507 m 798 456 l 804 456 q 837 431 832 456 l 837 426 q 806 403 833 403 q 768 422 776 403 q 768 430 768 424 q 798 456 768 452 m 783 429 l 783 426 q 804 416 790 416 q 821 428 821 418 q 806 441 821 437 l 800 441 q 783 429 783 440 m 168 403 q 192 390 180 403 q 207 397 192 393 l 210 397 q 239 369 230 397 l 241 363 q 230 340 239 351 l 230 338 q 237 308 237 326 q 216 267 233 285 q 182 249 205 256 q 180 245 180 247 l 180 233 q 218 250 199 250 l 222 250 q 258 229 258 245 l 258 215 q 239 182 256 201 q 216 171 230 176 q 214 172 214 171 l 207 171 q 178 176 196 171 q 170 171 178 174 q 161 176 161 174 q 131 170 143 171 q 98 184 110 174 q 79 230 79 205 q 89 245 79 241 q 111 250 99 250 l 115 250 q 155 229 136 250 l 157 229 l 157 249 q 135 258 155 251 q 104 317 104 285 q 109 342 104 326 q 100 368 100 358 l 100 371 q 128 397 100 393 l 129 397 q 146 390 134 397 q 168 403 153 403 m 1415 391 q 1438 378 1428 391 q 1453 385 1447 385 q 1489 357 1477 385 q 1476 329 1489 341 q 1483 304 1483 309 q 1470 262 1483 283 q 1430 237 1452 243 q 1427 232 1428 237 l 1427 231 l 1428 224 q 1427 222 1427 224 l 1430 222 q 1464 239 1444 239 l 1468 239 q 1505 218 1495 239 q 1504 217 1505 217 l 1505 212 l 1505 210 q 1489 173 1505 192 q 1453 159 1472 159 l 1451 159 q 1426 165 1440 159 q 1417 159 1426 162 q 1406 165 1412 159 l 1405 165 q 1382 159 1394 159 l 1375 159 q 1342 176 1358 161 l 1337 176 q 1318 142 1335 160 q 1285 125 1308 134 q 1284 121 1284 124 l 1284 111 l 1285 111 q 1324 127 1304 127 q 1361 110 1346 127 q 1362 102 1361 106 q 1318 49 1362 60 q 1308 47 1312 47 q 1283 53 1300 47 q 1274 47 1276 47 q 1261 53 1271 47 q 1238 47 1247 47 l 1234 47 q 1193 71 1212 47 q 1181 104 1183 87 q 1196 123 1181 119 q 1213 127 1206 127 l 1219 127 q 1259 106 1241 127 l 1259 106 l 1259 127 q 1224 150 1244 127 q 1207 193 1207 173 q 1213 222 1208 207 q 1202 245 1202 231 q 1231 273 1202 270 l 1234 273 q 1248 267 1240 273 q 1272 279 1257 279 l 1274 279 q 1295 267 1284 279 q 1309 273 1301 273 l 1314 273 q 1342 252 1329 273 q 1344 247 1342 250 l 1344 236 q 1356 239 1351 239 l 1361 239 q 1402 217 1385 239 l 1403 217 l 1403 239 q 1369 258 1388 241 q 1350 304 1350 284 q 1356 331 1352 318 q 1346 359 1346 345 q 1373 385 1352 385 l 1373 385 q 1392 378 1385 385 q 1415 391 1399 391 l 1415 391 m 842 300 l 842 298 q 888 264 867 264 q 878 300 884 291 q 874 300 876 300 l 871 300 q 842 300 862 300 m 359 289 q 382 276 370 289 q 397 283 382 280 l 401 283 q 429 260 416 283 q 431 248 431 252 q 421 227 431 241 l 420 224 l 425 212 q 424 211 425 211 q 426 199 425 210 q 409 156 426 178 q 372 135 395 141 l 370 133 l 370 121 l 372 121 q 408 136 389 136 l 414 136 q 448 112 448 132 q 409 59 448 73 q 393 57 405 57 q 372 62 382 57 q 359 57 370 62 q 350 62 350 60 q 319 57 334 57 q 277 85 297 57 q 269 110 269 100 l 269 121 q 298 136 269 132 l 306 136 q 346 115 326 136 l 346 137 q 310 159 331 137 q 294 203 294 182 q 300 229 294 214 q 289 255 289 244 q 315 283 294 283 l 317 283 q 336 275 328 283 q 357 289 336 286 l 359 289 m 743 264 q 770 264 761 264 l 796 264 l 801 262 l 801 264 q 770 276 789 276 l 770 276 q 743 264 754 276 m 1249 247 q 1240 260 1246 247 q 1229 262 1236 262 q 1213 245 1213 259 q 1227 227 1213 235 q 1228 224 1228 224 q 1219 195 1219 210 l 1219 191 q 1257 144 1219 159 q 1268 142 1263 142 l 1274 142 q 1323 182 1309 142 q 1324 191 1324 187 l 1324 197 q 1314 224 1324 210 q 1325 234 1314 227 q 1329 245 1329 240 q 1314 262 1325 262 l 1310 262 q 1295 247 1303 262 l 1293 247 q 1283 264 1289 247 q 1271 269 1276 269 q 1253 248 1258 269 q 1249 247 1251 248 m 163 254 l 163 186 q 166 184 164 184 l 168 184 l 168 254 l 163 254 m 730 249 q 726 239 730 248 l 728 239 q 815 236 760 236 q 813 247 815 238 q 730 249 749 249 m 1411 243 l 1411 173 l 1413 173 q 1415 175 1415 173 l 1415 243 l 1411 243 m 90 233 l 90 226 q 123 188 90 197 q 131 186 128 186 q 153 195 153 191 l 153 197 q 123 239 153 227 q 111 239 113 239 q 90 233 103 239 m 178 199 q 201 186 182 186 q 243 228 243 193 l 243 231 q 220 239 243 236 q 180 205 191 239 q 178 199 180 201 m 924 222 q 935 87 935 159 q 943 85 941 85 q 1025 129 1007 85 q 1031 157 1031 144 q 979 233 1031 214 q 960 235 968 235 q 924 222 937 235 m 1337 220 l 1337 217 q 1373 175 1337 184 l 1377 175 q 1400 182 1387 175 l 1400 189 q 1364 228 1400 218 l 1358 228 q 1337 220 1337 224 m 1426 182 q 1449 175 1440 175 q 1489 208 1478 175 l 1489 222 q 1467 228 1476 228 q 1426 191 1435 228 l 1426 182 m 840 210 q 854 194 843 194 l 859 194 q 872 207 872 197 l 872 212 q 855 226 872 224 q 840 210 844 226 m 720 222 q 718 211 718 212 l 718 210 l 728 210 q 818 208 771 210 l 818 220 q 817 220 817 220 l 810 220 q 726 222 758 222 l 726 222 l 720 222 m 713 188 l 713 172 q 749 112 713 130 q 768 108 756 108 l 768 108 q 806 131 789 108 q 829 152 829 134 l 829 153 q 818 173 829 161 l 818 184 q 713 188 772 188 m 555 125 l 555 118 q 593 87 555 95 q 617 85 602 85 l 622 85 q 643 87 629 85 q 620 154 620 111 l 620 156 l 621 158 l 620 158 q 557 132 568 158 q 555 125 555 128 m 355 140 l 355 71 l 357 71 q 359 73 359 71 l 359 140 l 355 140 m 1267 130 l 1267 66 l 1268 61 l 1270 61 q 1272 64 1272 61 l 1272 130 q 1270 132 1272 132 l 1269 132 q 1267 130 1267 132 m 279 119 l 279 115 q 312 74 279 84 l 319 73 q 343 79 329 73 l 343 87 q 315 123 343 111 q 303 125 308 125 q 279 119 293 125 m 369 81 q 393 73 369 76 q 431 102 418 73 q 433 113 433 106 l 433 119 q 408 125 420 125 q 369 91 380 125 l 369 81 m 1193 108 l 1193 106 q 1232 64 1193 71 l 1234 64 q 1257 72 1257 67 l 1257 78 q 1223 116 1257 104 l 1215 116 q 1193 108 1201 116 m 1283 79 l 1283 72 q 1306 64 1283 67 q 1346 104 1346 71 l 1346 110 q 1324 116 1334 116 l 1323 116 q 1285 87 1296 116 q 1283 79 1283 84 m 401 2 l 410 2 q 412 0 412 2 l 412 -9 q 410 -12 412 -12 l 401 -12 q 399 -9 399 -12 l 399 0 q 401 2 399 2 m 431 2 l 441 2 q 443 0 443 2 l 443 -90 q 441 -92 443 -92 l 431 -92 q 429 -90 429 -92 l 429 0 q 431 2 429 2 m 579 2 l 589 2 q 591 0 591 2 l 591 -90 q 589 -92 591 -92 l 579 -92 q 577 -87 577 -92 q 561 -94 568 -94 l 555 -94 q 530 -62 530 -90 l 530 -58 q 555 -22 533 -22 l 564 -22 q 577 -27 568 -22 l 577 0 q 579 2 577 2 m 837 2 l 846 2 q 848 0 848 2 l 848 -90 q 846 -92 848 -92 l 837 -92 q 835 -87 835 -92 q 819 -94 826 -94 l 813 -94 q 787 -62 787 -90 l 787 -58 q 814 -22 791 -22 l 820 -22 q 835 -27 827 -22 l 835 0 q 837 2 836 2 m 1266 2 l 1276 2 q 1278 0 1278 2 l 1278 -9 q 1276 -12 1278 -12 l 1266 -12 q 1264 -9 1264 -12 l 1264 0 q 1266 2 1264 2 m 1480 2 l 1489 2 q 1491 0 1491 2 l 1491 -90 q 1489 -92 1491 -92 l 1480 -92 q 1478 -87 1478 -92 q 1462 -94 1469 -94 l 1455 -94 q 1430 -62 1430 -90 l 1430 -58 q 1457 -22 1434 -22 l 1463 -22 q 1478 -27 1470 -22 l 1478 0 q 1480 2 1478 2 m 1113 -7 l 1122 -7 q 1124 -9 1124 -7 l 1124 -24 l 1133 -24 q 1135 -26 1135 -24 l 1135 -31 q 1133 -33 1135 -33 l 1124 -33 l 1124 -75 q 1130 -83 1124 -83 q 1137 -85 1137 -83 l 1137 -92 q 1134 -94 1137 -94 l 1122 -94 q 1111 -80 1111 -94 l 1111 -33 l 1105 -33 q 1103 -31 1103 -33 l 1103 -26 q 1105 -24 1103 -24 l 1111 -24 l 1111 -9 q 1113 -7 1112 -7 m 100 -22 l 106 -22 q 130 -42 124 -22 l 130 -44 l 119 -44 q 106 -33 113 -33 l 100 -33 q 83 -56 86 -33 l 83 -61 q 100 -84 86 -84 l 106 -84 q 119 -73 114 -84 l 130 -73 l 130 -73 q 106 -94 130 -90 l 100 -94 q 70 -61 73 -94 l 70 -56 q 100 -22 73 -22 m 173 -22 q 201 -58 198 -22 l 201 -59 q 173 -94 198 -94 l 167 -94 q 136 -61 140 -94 l 136 -57 q 166 -22 140 -22 l 173 -22 m 243 -22 l 251 -22 q 265 -33 260 -22 l 266 -33 q 283 -22 277 -22 l 291 -22 q 308 -46 308 -25 l 308 -90 q 306 -92 308 -92 l 296 -92 q 294 -90 294 -92 l 294 -44 q 289 -33 294 -36 l 284 -33 q 268 -43 275 -33 l 268 -90 q 266 -92 268 -92 l 256 -92 q 254 -90 254 -92 l 254 -43 q 249 -33 252 -33 l 241 -33 q 228 -43 235 -33 l 228 -90 q 226 -92 228 -92 l 216 -92 q 214 -90 214 -92 l 214 -26 q 216 -24 214 -24 l 226 -24 q 228 -31 228 -24 q 243 -22 237 -22 m 353 -22 l 361 -22 q 386 -57 382 -22 l 386 -60 q 359 -94 381 -94 l 353 -94 q 338 -90 346 -94 l 338 -117 q 336 -119 338 -119 l 327 -119 q 325 -117 325 -119 l 325 -26 q 327 -24 326 -24 l 336 -24 q 338 -31 338 -24 l 340 -31 q 353 -22 340 -26 m 484 -22 l 490 -22 q 521 -56 517 -22 l 521 -59 q 519 -61 521 -61 l 469 -61 l 469 -62 q 486 -84 469 -81 l 494 -84 q 509 -73 500 -84 l 519 -73 l 519 -75 q 494 -94 519 -90 l 487 -94 q 456 -66 456 -90 q 456 -59 456 -66 l 456 -58 q 484 -22 459 -22 m 665 -22 l 677 -22 q 701 -50 701 -22 l 701 -90 q 699 -92 701 -92 l 690 -92 q 688 -87 688 -92 q 669 -94 678 -94 l 661 -94 q 640 -73 640 -92 q 673 -50 644 -50 l 688 -50 l 688 -42 q 678 -33 686 -33 l 667 -33 q 654 -44 658 -33 l 644 -44 l 642 -43 q 665 -22 642 -26 m 749 -22 l 755 -22 q 775 -48 775 -22 l 775 -90 q 773 -92 775 -92 l 764 -92 q 761 -90 761 -92 l 761 -43 q 753 -33 761 -33 l 747 -33 q 732 -46 732 -37 l 732 -90 q 730 -92 732 -92 l 720 -92 q 718 -90 718 -92 l 718 -26 q 720 -24 718 -24 l 730 -24 q 732 -31 732 -24 q 749 -22 741 -22 m 993 -22 l 1000 -22 q 1030 -56 1026 -22 l 1030 -59 q 1028 -61 1030 -61 l 979 -61 l 979 -62 q 995 -84 979 -81 l 1002 -84 q 1017 -73 1009 -84 l 1028 -73 l 1028 -75 q 1004 -94 1028 -90 l 996 -94 q 966 -66 966 -90 q 964 -59 964 -66 l 964 -58 q 993 -22 968 -22 m 1065 -22 l 1075 -22 q 1099 -42 1099 -27 l 1099 -44 l 1088 -44 l 1080 -33 l 1074 -33 l 1068 -33 q 1052 -56 1055 -33 l 1052 -61 q 1068 -84 1055 -84 l 1074 -84 q 1087 -73 1082 -84 l 1099 -73 l 1099 -73 q 1075 -94 1099 -90 l 1069 -94 q 1038 -61 1042 -94 l 1038 -56 q 1065 -22 1043 -22 m 1172 -22 l 1177 -22 q 1207 -56 1204 -22 l 1207 -59 q 1179 -94 1204 -94 l 1172 -94 q 1141 -61 1145 -94 l 1141 -56 q 1172 -22 1145 -22 m 1247 -22 l 1255 -22 q 1257 -24 1257 -22 l 1257 -33 q 1255 -35 1257 -35 l 1246 -35 q 1234 -43 1239 -35 l 1234 -90 q 1231 -92 1234 -92 l 1221 -92 q 1219 -90 1219 -92 l 1219 -26 q 1221 -24 1220 -24 l 1231 -24 q 1234 -31 1234 -24 q 1247 -22 1242 -22 m 1385 -22 l 1392 -22 q 1422 -56 1418 -22 l 1422 -59 q 1420 -61 1422 -61 l 1371 -61 l 1371 -62 q 1387 -84 1371 -81 l 1394 -84 q 1409 -73 1402 -84 l 1420 -73 l 1420 -75 q 1396 -94 1420 -90 l 1388 -94 q 1358 -66 1358 -90 q 1356 -59 1356 -66 l 1356 -58 q 1385 -22 1360 -22 m 401 -24 l 410 -24 q 412 -26 412 -24 l 412 -90 q 410 -92 412 -92 l 401 -92 q 399 -90 399 -92 l 399 -26 q 401 -24 399 -24 m 896 -24 l 907 -24 q 926 -76 911 -26 l 928 -76 q 947 -24 943 -24 l 956 -24 q 958 -26 958 -24 q 932 -92 936 -87 l 922 -92 q 896 -24 920 -92 m 1266 -24 l 1276 -24 q 1278 -26 1278 -24 l 1278 -90 q 1276 -92 1278 -92 l 1266 -92 q 1264 -90 1264 -92 l 1264 -26 q 1266 -24 1264 -24 m 1293 -24 l 1346 -24 q 1348 -26 1348 -24 l 1348 -33 l 1306 -81 l 1306 -82 l 1348 -82 q 1350 -84 1350 -82 l 1350 -90 q 1348 -92 1350 -92 l 1290 -92 q 1288 -90 1288 -92 l 1288 -83 l 1330 -35 l 1293 -35 q 1290 -33 1290 -35 l 1290 -26 q 1293 -24 1291 -24 m 150 -56 l 150 -61 q 166 -84 153 -84 l 172 -84 q 188 -57 188 -84 q 173 -33 188 -36 l 166 -33 q 150 -56 153 -33 m 338 -43 l 338 -77 q 353 -84 345 -84 l 359 -84 q 372 -58 372 -84 q 359 -33 372 -33 l 353 -33 q 338 -43 347 -33 m 469 -52 l 507 -52 q 492 -33 503 -33 l 485 -33 q 469 -52 473 -33 m 543 -57 l 543 -62 q 557 -84 543 -84 l 562 -84 q 577 -73 569 -84 l 577 -40 q 562 -33 570 -33 l 557 -33 q 543 -57 543 -33 m 801 -57 l 801 -62 q 815 -84 801 -84 l 820 -84 q 835 -73 827 -84 l 835 -40 q 820 -33 828 -33 l 815 -33 q 801 -57 801 -33 m 979 -52 l 1016 -52 q 1000 -33 1012 -33 l 994 -33 q 979 -52 982 -33 m 1156 -56 l 1156 -61 q 1171 -84 1158 -84 l 1177 -84 q 1193 -57 1193 -84 q 1179 -33 1193 -36 l 1171 -33 q 1156 -56 1158 -33 m 1371 -52 l 1408 -52 q 1392 -33 1404 -33 l 1386 -33 q 1371 -52 1374 -33 m 1444 -56 l 1444 -62 q 1458 -84 1444 -84 l 1463 -84 q 1478 -73 1470 -84 l 1478 -40 q 1463 -33 1471 -33 l 1458 -33 q 1444 -56 1444 -35 m 654 -73 l 654 -75 q 663 -84 655 -84 l 673 -84 q 688 -73 688 -81 l 688 -60 q 654 -73 654 -60 m 917 -104 q 922 -113 922 -109 l 922 -130 q 909 -146 922 -146 q 890 -151 890 -146 q 873 -231 890 -231 l 869 -231 q 863 -229 867 -231 q 852 -231 857 -231 l 850 -231 q 846 -227 848 -231 q 844 -201 846 -214 q 848 -147 846 -191 l 846 -145 l 842 -145 q 814 -136 814 -145 q 812 -125 812 -136 q 829 -111 812 -111 q 917 -104 854 -104 m 1030 -104 q 1034 -113 1034 -109 l 1034 -130 q 1021 -146 1034 -146 q 1002 -151 1002 -146 q 985 -231 1002 -231 l 983 -231 q 975 -229 979 -231 q 964 -231 970 -231 l 962 -231 q 958 -227 961 -231 q 956 -201 958 -214 q 962 -147 959 -191 l 958 -145 l 955 -145 q 926 -136 926 -145 q 924 -125 925 -136 q 943 -111 924 -111 q 1030 -104 967 -104 m 1445 -107 l 1453 -107 q 1476 -134 1476 -115 q 1461 -149 1476 -140 q 1451 -141 1459 -149 l 1444 -141 q 1438 -151 1438 -144 q 1467 -157 1439 -157 q 1489 -182 1489 -166 l 1489 -184 q 1455 -231 1489 -218 l 1446 -231 q 1411 -208 1430 -231 q 1402 -195 1402 -201 q 1424 -179 1415 -179 q 1443 -191 1439 -191 l 1446 -191 q 1453 -186 1453 -191 q 1415 -168 1451 -184 q 1407 -149 1407 -160 l 1407 -144 q 1445 -107 1407 -123 m 100 -109 l 104 -109 q 109 -116 109 -110 l 109 -120 q 113 -140 109 -140 q 127 -116 121 -120 l 129 -116 q 155 -115 138 -116 q 166 -145 159 -117 q 169 -149 168 -149 l 170 -149 q 180 -111 173 -149 l 182 -109 l 184 -109 q 214 -120 214 -114 q 192 -229 214 -137 q 186 -231 188 -231 l 152 -231 q 146 -202 148 -231 l 142 -194 q 129 -222 138 -194 q 117 -231 123 -231 l 98 -231 q 85 -212 85 -231 q 68 -117 68 -149 q 100 -109 68 -113 m 275 -109 l 294 -109 q 329 -142 315 -109 q 331 -160 331 -151 q 292 -227 331 -210 q 277 -229 283 -229 l 268 -229 q 239 -213 247 -224 q 222 -158 222 -196 q 275 -109 222 -116 m 393 -109 l 412 -109 q 446 -142 431 -109 q 448 -160 448 -151 q 409 -227 448 -210 q 393 -229 401 -229 l 385 -229 q 355 -213 363 -224 q 338 -158 338 -196 q 393 -109 338 -116 m 477 -109 l 501 -109 q 549 -124 532 -113 q 572 -165 572 -142 l 572 -170 q 553 -210 562 -210 q 500 -231 534 -231 q 481 -231 490 -231 q 473 -231 473 -231 q 462 -231 467 -231 l 456 -229 q 460 -170 458 -179 q 458 -147 458 -151 l 460 -137 q 458 -120 458 -131 q 477 -109 458 -109 m 758 -109 l 798 -109 q 808 -156 804 -109 q 795 -220 802 -220 q 766 -231 773 -231 l 738 -231 q 692 -205 703 -231 q 686 -179 686 -187 l 686 -172 q 692 -116 688 -122 q 719 -109 696 -109 l 721 -109 q 732 -126 732 -109 q 724 -168 724 -164 l 724 -170 q 736 -197 724 -191 q 751 -182 744 -197 q 755 -149 755 -161 q 754 -142 755 -146 q 755 -128 755 -135 l 755 -115 q 758 -109 755 -109 m 1183 -109 l 1213 -109 q 1238 -119 1232 -109 q 1250 -143 1250 -138 l 1250 -160 q 1228 -189 1250 -174 l 1227 -191 q 1240 -219 1240 -216 l 1240 -221 q 1215 -238 1225 -238 q 1198 -208 1211 -234 q 1188 -201 1192 -201 l 1186 -201 l 1185 -206 l 1185 -210 q 1187 -227 1185 -213 q 1181 -236 1187 -233 l 1179 -236 q 1146 -223 1146 -233 l 1146 -212 q 1145 -208 1146 -209 q 1147 -186 1145 -206 q 1145 -144 1145 -167 l 1145 -137 q 1154 -111 1145 -111 q 1183 -109 1172 -109 m 627 -109 l 644 -109 q 667 -126 660 -109 q 671 -142 669 -128 q 663 -164 668 -164 l 640 -164 q 629 -147 637 -163 q 619 -141 623 -141 q 600 -174 600 -150 l 600 -177 q 616 -195 602 -195 l 619 -195 q 644 -177 630 -195 l 650 -176 q 680 -181 680 -176 q 661 -219 680 -197 q 629 -231 644 -231 l 621 -231 q 584 -203 600 -231 q 577 -175 579 -191 q 591 -128 582 -140 q 627 -109 612 -111 m 1111 -109 l 1126 -109 q 1132 -132 1132 -109 q 1103 -146 1132 -142 q 1087 -158 1087 -149 l 1087 -160 q 1090 -163 1087 -161 l 1103 -163 q 1116 -162 1108 -163 q 1122 -181 1122 -162 q 1091 -193 1120 -184 l 1090 -195 l 1090 -198 q 1095 -201 1090 -200 q 1126 -198 1109 -198 q 1131 -220 1129 -201 q 1109 -229 1131 -228 q 1046 -238 1078 -233 q 1042 -234 1044 -234 q 1044 -204 1044 -216 q 1042 -181 1044 -200 l 1044 -179 q 1042 -151 1042 -169 l 1042 -135 q 1054 -119 1042 -119 q 1111 -109 1086 -109 m 1371 -109 l 1386 -109 q 1392 -132 1392 -109 q 1364 -146 1392 -142 q 1347 -158 1347 -149 l 1347 -160 q 1350 -163 1347 -161 l 1364 -163 q 1375 -162 1369 -163 q 1383 -181 1383 -162 q 1352 -193 1380 -184 l 1350 -195 l 1350 -198 q 1356 -201 1350 -200 q 1386 -198 1369 -198 q 1392 -220 1390 -201 q 1369 -229 1392 -228 q 1306 -238 1337 -233 q 1303 -234 1304 -234 q 1305 -204 1305 -216 q 1303 -181 1305 -200 l 1304 -179 q 1302 -151 1302 -169 l 1302 -135 q 1314 -119 1302 -119 q 1371 -109 1346 -109 m 505 -147 q 506 -170 506 -163 l 506 -191 q 509 -194 506 -192 l 515 -194 q 534 -170 530 -194 l 534 -165 q 520 -143 534 -151 q 505 -147 511 -144 m 1181 -163 q 1184 -168 1182 -168 q 1215 -158 1211 -168 q 1190 -143 1215 -148 q 1181 -163 1183 -143 m 258 -166 q 277 -197 262 -197 l 279 -197 q 298 -176 290 -197 l 298 -168 q 275 -144 298 -151 q 258 -166 258 -146 m 376 -166 q 393 -197 379 -197 l 397 -197 q 414 -176 408 -197 l 414 -168 q 391 -144 414 -151 q 376 -166 376 -146 m 1265 -197 l 1288 -197 q 1293 -201 1290 -197 q 1286 -231 1291 -231 l 1264 -231 q 1261 -227 1262 -231 l 1261 -214 q 1259 -204 1261 -210 q 1265 -197 1262 -197 z "},"\"":{"ha":456,"x_min":0,"x_max":0,"o":""},"#":{"ha":906,"x_min":0,"x_max":0,"o":""},"$":{"ha":688,"x_min":0,"x_max":0,"o":""},"%":{"ha":1092,"x_min":0,"x_max":0,"o":""},"&":{"ha":1141,"x_min":0,"x_max":0,"o":""},"'":{"ha":235,"x_min":0,"x_max":0,"o":""},"(":{"ha":514,"x_min":0,"x_max":0,"o":""},")":{"ha":514,"x_min":0,"x_max":0,"o":""},"*":{"ha":694,"x_min":0,"x_max":0,"o":""},"+":{"ha":688,"x_min":0,"x_max":0,"o":""},",":{"ha":378,"x_min":0,"x_max":0,"o":""},"-":{"ha":454,"x_min":0,"x_max":0,"o":""},"":{"ha":454,"x_min":0,"x_max":0,"o":""},".":{"ha":378,"x_min":0,"x_max":0,"o":""},"/":{"ha":386,"x_min":0,"x_max":0,"o":""},":":{"ha":378,"x_min":0,"x_max":0,"o":""},";":{"ha":378,"x_min":0,"x_max":0,"o":""},"":{"ha":378,"x_min":0,"x_max":0,"o":""},"<":{"ha":688,"x_min":0,"x_max":0,"o":""},"=":{"ha":688,"x_min":0,"x_max":0,"o":""},">":{"ha":688,"x_min":0,"x_max":0,"o":""},"?":{"ha":507,"x_min":0,"x_max":0,"o":""},"@":{"ha":1369,"x_min":0,"x_max":0,"o":""},"A":{"ha":1008,"x_min":34,"x_max":969,"o":"m 576 975 q 660 915 622 975 q 781 949 740 949 l 792 949 q 846 873 830 949 q 844 871 846 871 q 857 842 848 842 q 876 795 876 823 l 876 792 q 852 709 876 749 l 852 707 q 883 602 883 629 q 888 600 888 602 l 895 602 l 920 602 q 921 600 921 602 q 922 602 922 600 q 969 582 960 602 l 969 581 q 938 570 969 570 l 918 570 q 917 572 917 570 l 914 570 l 912 570 q 907 572 909 570 q 901 570 905 570 l 901 572 q 884 558 884 572 l 880 517 q 947 492 939 510 q 934 481 947 483 q 880 486 926 481 q 860 448 872 486 q 854 436 858 447 q 920 391 920 408 q 912 381 916 382 q 846 404 890 386 q 842 406 846 406 l 838 406 q 755 342 795 361 q 692 318 722 326 q 692 317 692 317 q 690 318 690 317 q 658 309 684 316 l 658 311 q 630 301 630 305 l 644 245 q 696 257 661 253 q 810 179 770 257 q 819 127 819 157 q 750 16 819 50 q 699 4 740 10 q 698 5 698 4 q 644 3 672 3 l 642 1 q 638 3 640 3 l 633 1 q 631 3 631 1 l 625 1 l 602 1 q 600 3 600 1 l 597 1 l 552 1 q 547 0 549 1 q 543 1 544 1 q 541 0 541 1 l 535 1 l 532 1 q 521 0 528 1 l 518 1 q 513 0 515 0 q 511 1 511 0 l 509 0 l 492 0 q 475 1 484 0 q 471 0 473 1 q 446 1 456 1 l 435 1 q 429 3 431 1 q 428 1 428 3 l 415 3 l 398 3 l 390 4 q 389 3 389 4 q 372 5 377 5 l 369 4 q 359 7 364 7 l 356 5 q 351 7 354 7 q 346 5 348 7 q 345 7 345 5 l 339 5 q 332 7 338 5 l 329 5 q 323 7 326 7 q 318 5 321 7 q 313 7 316 7 l 308 5 l 305 7 q 302 5 302 7 q 179 39 208 5 q 163 87 163 62 q 227 154 163 134 q 283 170 283 163 q 340 277 283 183 q 353 317 353 300 q 301 333 317 326 l 299 332 q 236 359 256 349 l 196 387 q 127 350 184 387 q 123 349 125 350 q 107 366 109 349 q 165 411 107 378 l 168 415 q 145 454 168 419 l 138 455 q 123 452 127 454 l 120 453 q 90 446 111 449 q 77 460 77 453 q 127 487 77 473 q 129 490 129 490 q 113 541 119 541 l 111 540 l 109 541 q 48 535 50 535 l 48 536 l 45 535 q 34 545 41 535 l 34 555 q 112 574 34 566 q 115 581 115 578 q 113 587 115 585 q 155 729 113 655 q 140 806 140 779 q 182 921 140 876 q 209 928 199 928 l 216 928 q 346 888 258 928 q 355 886 346 886 q 462 898 408 898 l 480 898 q 497 920 488 898 q 576 975 534 975 m 487 812 q 524 755 487 769 q 543 754 532 755 q 593 764 564 754 q 596 772 596 769 q 589 787 593 787 q 561 805 576 789 q 555 822 555 819 l 555 838 q 578 870 555 852 q 591 876 580 870 l 608 876 q 630 863 621 869 l 634 863 q 651 871 651 869 q 629 918 651 881 q 587 951 611 943 l 566 951 q 535 930 543 943 q 493 849 499 890 q 487 812 489 839 m 672 882 q 692 870 672 870 q 729 846 712 863 l 730 846 q 789 857 764 857 l 808 857 q 810 860 810 857 l 810 861 q 788 918 805 918 q 672 883 736 918 l 672 882 m 168 804 q 179 763 168 789 l 180 763 q 193 770 190 770 q 203 760 199 770 q 175 711 203 753 q 144 579 144 644 l 144 578 q 184 569 144 572 q 196 561 195 564 l 196 555 q 181 549 193 549 q 154 551 174 549 q 147 545 148 548 q 165 494 154 494 q 192 497 188 497 q 201 488 201 497 l 201 487 q 174 473 198 481 l 172 471 l 172 470 q 203 431 190 431 q 237 439 232 439 q 245 429 243 439 q 223 412 243 423 l 222 410 q 384 347 269 368 q 532 334 465 334 l 547 334 q 793 414 709 334 q 801 425 801 422 q 783 444 783 435 l 783 445 q 795 452 786 452 q 814 448 798 452 q 839 496 825 448 q 817 505 838 498 q 814 511 814 509 q 829 521 814 519 l 844 521 q 852 565 849 521 q 848 574 850 574 q 809 569 844 574 q 800 576 803 571 l 800 582 q 849 597 800 590 q 850 603 850 602 q 826 685 850 640 l 823 685 q 770 659 796 659 l 763 659 q 690 716 720 659 q 688 718 688 716 q 669 715 680 715 q 608 745 635 715 q 548 732 568 732 l 538 732 q 466 797 480 732 q 465 812 466 804 q 472 863 466 835 l 470 865 l 441 865 q 352 854 403 865 l 350 854 q 288 882 344 854 q 216 899 239 899 q 170 819 179 899 q 168 804 168 806 m 614 801 l 614 785 q 631 751 617 768 q 665 737 646 741 l 673 737 q 719 764 699 737 q 726 795 726 783 l 726 798 q 713 831 724 814 q 678 849 700 845 l 658 849 q 627 831 640 844 q 614 801 618 819 m 768 833 q 755 829 768 831 q 743 822 746 829 q 751 805 746 805 q 784 783 774 800 q 788 766 788 768 q 755 726 788 736 q 750 726 752 726 q 726 734 737 726 l 720 734 q 711 726 718 734 q 766 681 732 681 q 844 764 813 681 q 848 795 848 788 q 825 831 848 831 q 822 833 825 833 q 795 835 815 833 q 768 833 776 833 m 301 565 l 308 565 q 333 541 326 565 l 333 524 q 309 493 333 498 l 300 493 q 278 524 278 498 l 278 528 q 301 565 281 565 m 678 564 l 685 564 q 709 531 707 564 l 709 528 q 685 492 709 498 l 681 492 q 655 524 655 496 l 655 530 q 678 564 659 564 m 494 500 l 501 500 q 543 470 536 500 l 543 463 q 504 435 538 435 q 458 459 467 435 q 456 469 456 461 q 494 500 456 495 m 476 467 l 476 463 q 501 452 485 452 q 523 466 523 454 q 505 481 523 477 l 497 481 q 476 467 476 481 m 387 317 q 325 189 387 297 q 304 127 304 147 l 304 120 q 351 48 304 71 q 486 35 386 35 q 623 38 509 35 q 637 44 637 39 q 612 233 628 217 q 553 260 586 237 q 517 307 542 271 q 509 308 510 308 q 389 317 450 308 l 387 317 m 549 307 l 549 304 q 607 264 580 264 q 593 307 600 296 q 589 308 591 308 l 585 308 q 549 307 573 308 m 462 304 l 466 304 q 543 231 520 304 l 544 223 q 561 231 555 231 l 570 231 q 603 201 592 231 l 603 195 q 568 159 596 159 q 544 165 558 159 l 544 159 q 558 123 558 143 q 521 76 558 90 l 498 56 q 456 44 480 44 q 380 89 408 44 q 366 159 366 121 l 366 164 q 403 277 366 231 q 462 304 431 304 m 427 264 q 459 262 448 262 l 492 262 l 498 261 l 498 262 q 460 278 484 278 l 459 278 q 427 264 440 278 m 411 244 q 406 231 411 243 l 407 231 q 515 229 448 229 q 513 241 515 231 q 411 244 434 244 m 650 212 q 664 44 664 132 q 673 42 671 42 q 777 95 753 42 q 783 130 783 113 q 719 224 783 201 q 694 227 705 227 q 650 212 667 227 m 547 196 q 564 176 550 176 l 570 176 q 586 192 586 180 l 586 198 q 565 215 586 213 q 547 196 551 215 m 398 212 q 395 197 395 199 l 395 196 l 407 196 q 519 193 461 196 l 519 209 q 518 208 518 209 l 510 209 q 406 210 445 210 l 404 210 l 398 212 m 390 168 l 390 149 q 433 75 390 96 q 456 69 442 69 l 458 69 q 504 98 484 69 q 534 124 534 101 l 534 125 q 519 150 532 135 l 519 164 q 390 168 463 168 m 193 92 l 193 82 q 241 44 193 54 q 270 42 252 42 l 277 42 q 302 43 285 42 q 274 127 274 73 l 274 129 l 275 132 l 274 132 q 196 99 210 132 q 193 92 193 95 z "},"B":{"ha":932,"x_min":34,"x_max":899,"o":"m 505 978 l 513 978 q 587 899 562 978 q 589 885 587 898 l 591 885 q 723 933 665 933 q 760 920 760 933 q 800 830 785 886 q 808 774 806 812 q 789 694 808 735 q 826 621 819 652 q 882 625 861 625 l 891 625 q 899 613 899 620 q 890 602 897 602 q 831 598 882 602 l 831 597 q 833 576 833 584 l 833 567 q 831 549 833 562 q 895 535 895 545 q 896 530 896 533 q 884 519 896 521 q 826 526 854 526 q 802 473 826 515 q 860 444 802 472 q 868 433 868 439 l 868 431 q 857 420 867 420 l 857 420 q 823 437 854 420 q 787 454 809 444 q 713 392 739 401 q 686 376 713 391 l 686 375 q 789 273 770 327 q 800 227 800 240 q 768 184 800 195 q 734 174 739 177 q 724 161 734 161 l 715 161 l 715 161 q 730 66 730 94 q 721 60 727 60 l 700 60 q 696 39 698 60 q 633 0 682 0 l 317 0 q 254 44 266 0 q 251 60 253 60 l 234 60 q 230 58 232 60 q 218 70 218 62 q 234 161 218 104 l 230 161 q 218 174 220 161 l 218 184 q 172 205 172 195 q 162 233 162 215 q 177 288 162 250 q 261 369 200 329 q 275 376 274 376 l 275 378 q 197 427 240 391 q 127 389 136 392 l 125 389 q 115 400 115 389 l 115 401 q 161 433 115 410 l 177 443 q 144 479 165 452 q 88 460 132 473 q 78 472 78 463 q 119 493 78 484 q 132 499 132 498 q 113 547 118 523 q 42 540 50 540 q 34 555 34 543 q 79 567 34 565 q 107 569 103 569 l 107 570 q 106 592 106 586 q 156 715 106 656 q 127 804 127 762 q 172 900 127 861 q 203 904 188 904 q 325 859 260 904 l 395 871 q 456 961 412 931 q 505 978 486 978 m 506 954 l 506 953 l 507 951 l 505 949 l 504 952 q 505 953 505 952 l 502 953 q 451 924 482 953 q 433 900 437 909 q 434 899 434 900 q 430 892 430 899 l 430 891 l 432 892 q 457 867 437 886 l 457 863 l 455 862 l 453 862 q 428 889 428 886 l 427 889 q 418 860 420 870 l 420 861 l 422 861 l 422 856 q 420 854 422 854 q 416 855 418 855 l 416 850 l 418 848 l 418 848 l 416 848 l 414 838 q 434 770 414 780 q 449 764 443 764 q 457 770 452 770 q 456 768 457 768 q 458 765 457 765 q 455 762 458 762 l 455 761 q 469 760 456 761 l 472 760 l 472 761 q 465 765 467 761 l 465 770 l 469 770 q 477 763 475 763 l 477 762 l 476 760 l 477 760 q 509 770 493 760 l 509 768 q 519 774 519 773 l 519 782 q 494 800 510 782 q 476 783 492 800 q 469 778 473 778 l 465 778 l 465 780 q 490 804 487 804 q 488 809 490 809 l 488 811 q 484 833 484 819 l 482 832 q 469 846 482 833 l 465 850 l 465 853 l 471 853 q 486 840 482 840 l 484 838 l 484 837 l 486 837 q 497 862 488 849 q 496 863 496 862 q 513 875 498 863 q 522 878 521 878 l 507 892 l 509 898 q 522 886 511 898 l 525 886 l 525 885 l 524 883 l 529 880 l 535 880 q 560 873 545 880 l 558 877 l 559 877 l 562 876 l 562 876 l 562 877 l 560 877 l 560 878 q 564 879 564 878 q 544 934 564 899 q 541 937 541 937 l 540 937 l 540 937 l 542 937 l 542 933 q 513 904 513 904 l 509 904 q 508 908 508 907 q 530 930 509 908 q 540 939 540 938 q 525 947 532 947 l 526 949 q 513 953 517 953 l 513 952 l 515 949 l 513 949 l 511 954 l 506 954 m 494 951 l 497 951 l 497 949 l 494 949 l 494 951 m 522 949 l 524 949 l 524 947 q 522 949 522 947 m 505 949 l 506 949 l 511 947 q 504 937 511 941 q 501 941 503 937 l 501 943 q 504 945 501 945 q 509 943 507 943 l 509 947 l 505 947 l 505 949 m 529 947 q 534 941 534 944 q 529 943 531 943 l 529 947 m 497 945 l 499 945 q 497 943 499 943 l 497 945 m 513 945 l 513 945 q 515 943 515 944 l 515 941 q 513 943 514 941 l 513 945 m 492 943 l 494 943 q 499 939 499 941 l 499 935 l 497 935 l 497 937 q 498 939 498 938 l 496 941 q 494 939 496 939 l 492 943 m 507 943 l 507 941 l 509 941 l 509 943 l 507 943 m 477 943 l 479 943 q 482 937 479 941 l 479 937 q 477 941 479 939 l 477 943 m 474 941 l 475 941 l 475 939 l 474 939 l 474 941 m 529 941 l 530 941 l 530 939 q 528 937 530 937 l 527 939 l 529 941 m 535 941 l 538 941 l 538 939 l 535 939 l 535 941 m 469 937 l 470 937 q 500 907 472 937 l 500 906 q 497 904 500 904 q 467 937 467 929 l 469 937 m 506 937 l 513 935 l 513 933 l 508 933 q 506 935 506 933 l 506 937 m 524 937 l 525 937 q 529 931 526 936 l 529 930 q 524 935 528 930 l 524 937 m 486 935 q 488 933 488 935 l 486 933 l 486 935 m 519 934 l 521 934 l 521 932 l 519 932 l 519 934 m 515 933 l 517 933 l 517 932 l 515 932 l 515 933 m 461 932 l 463 932 q 465 927 463 927 q 465 928 465 928 l 465 927 q 463 925 465 925 l 460 929 q 461 932 461 931 m 503 932 l 505 932 l 505 930 l 503 930 l 503 932 m 513 930 l 515 930 l 515 928 l 513 928 l 513 930 m 486 928 q 490 924 488 928 l 490 924 q 486 927 488 924 l 486 928 m 545 928 l 547 928 l 547 926 l 545 926 l 545 928 m 459 927 q 461 925 461 926 l 461 924 q 459 926 459 924 l 459 927 m 453 926 q 456 925 455 925 l 455 920 l 453 920 l 453 920 q 454 924 454 922 l 452 923 l 452 924 l 453 926 m 511 926 l 513 926 l 513 924 l 511 924 l 511 926 m 543 926 l 544 926 q 542 924 544 924 l 541 924 q 543 926 541 926 m 548 926 l 549 924 l 546 924 q 548 926 546 926 m 459 924 l 460 924 q 458 922 460 922 l 457 922 q 459 924 458 924 m 465 924 q 467 922 467 924 l 465 922 l 465 924 m 494 923 l 494 923 l 494 920 l 494 920 l 494 923 m 450 922 q 452 920 452 922 l 452 918 q 450 920 450 918 l 450 922 m 509 922 l 511 920 q 505 914 511 917 q 503 916 503 914 q 509 922 509 916 m 499 920 q 502 918 500 920 l 502 916 l 500 916 l 499 920 m 540 920 l 542 920 l 542 918 l 540 918 l 540 920 m 447 918 l 449 918 q 447 916 449 916 l 447 918 m 471 918 l 471 916 l 469 916 l 469 916 q 471 918 469 918 m 511 918 l 513 918 l 513 916 l 509 916 q 511 918 509 918 m 453 916 l 455 916 l 455 916 l 453 916 l 453 916 m 452 916 l 452 914 q 450 912 452 912 l 450 913 q 452 916 450 916 m 472 914 l 474 914 l 474 912 l 472 912 l 472 914 m 501 912 l 502 912 q 503 908 502 911 l 501 908 l 501 912 m 451 910 l 454 910 l 455 908 l 454 908 q 451 909 452 909 l 451 910 m 461 910 l 463 910 q 465 907 464 910 l 465 906 l 465 906 q 463 908 463 906 l 460 907 l 459 907 l 459 908 q 461 910 460 910 m 546 910 q 548 908 548 910 q 545 904 545 908 l 543 904 q 542 907 543 905 l 546 910 m 441 909 l 443 909 l 443 908 l 441 908 l 441 909 m 446 909 l 448 909 l 448 907 l 446 907 l 446 909 m 471 909 l 472 907 l 470 906 l 469 906 l 469 907 q 471 909 469 909 m 531 909 l 533 909 l 533 907 q 531 909 531 907 m 553 909 l 555 909 l 555 908 q 554 905 554 906 l 552 905 l 552 906 q 553 909 553 908 m 603 863 q 661 835 636 863 q 721 855 696 855 q 775 823 756 855 l 777 823 l 777 825 q 748 893 774 842 q 734 908 741 908 l 722 908 q 603 863 669 908 m 548 908 l 550 908 l 550 907 l 548 907 l 548 908 m 444 907 l 444 906 q 441 904 444 904 l 441 904 q 444 907 441 905 m 484 907 l 484 907 q 488 903 486 907 l 486 903 q 484 904 484 904 l 484 906 q 484 907 484 906 m 438 906 l 439 902 l 437 901 l 436 903 l 436 904 q 438 906 437 906 m 524 906 l 525 906 l 525 903 l 519 903 l 519 904 q 524 906 522 904 m 458 905 l 458 903 l 456 903 q 458 905 456 905 m 454 903 l 455 903 q 453 901 455 901 l 454 899 l 454 898 l 453 898 q 451 900 451 898 q 454 903 451 901 m 461 903 l 463 903 q 465 900 464 903 q 460 896 465 897 q 458 901 458 899 l 461 903 m 503 903 q 508 901 508 903 q 505 897 507 897 l 503 897 q 501 899 501 897 l 501 901 q 503 903 501 903 m 515 903 l 517 903 l 517 902 l 515 902 l 515 903 m 538 903 l 538 902 q 538 898 538 900 l 535 898 l 535 900 q 538 903 535 901 m 546 903 l 547 903 q 550 900 549 903 q 546 896 550 898 l 547 893 l 547 890 l 548 890 l 548 888 l 547 888 l 544 890 q 545 891 544 891 l 543 901 l 546 903 m 509 902 q 511 900 511 901 l 511 899 l 509 899 l 509 902 m 554 902 l 555 902 q 554 899 554 900 l 552 899 l 552 900 q 554 902 553 902 m 471 901 l 473 901 l 473 899 l 471 899 l 471 901 m 542 901 l 542 900 q 540 898 542 898 l 540 899 q 542 901 540 901 m 437 900 l 437 899 q 436 895 436 897 q 434 897 434 895 q 437 900 434 898 m 486 899 l 488 899 q 486 897 488 897 l 486 899 m 555 899 l 555 896 l 553 896 l 553 897 q 555 899 553 899 m 458 897 l 459 897 l 459 895 l 458 895 l 458 897 m 469 897 l 471 897 l 471 896 l 469 896 l 469 897 m 519 897 l 521 897 l 521 895 l 517 895 q 519 897 518 897 m 455 895 l 456 892 l 454 891 l 453 893 l 455 895 m 496 895 l 498 895 q 500 892 500 895 l 500 891 q 471 862 500 890 l 465 862 l 465 864 q 496 895 494 895 m 479 893 l 481 893 q 479 891 481 891 l 479 893 m 527 893 l 529 893 l 529 891 l 527 891 l 527 893 m 552 893 q 558 891 554 893 q 562 892 560 892 q 559 888 559 890 q 552 891 555 891 l 552 893 m 473 892 l 473 890 l 471 890 q 473 892 471 892 m 538 892 l 540 892 l 540 890 l 538 890 l 538 892 m 450 891 l 452 891 l 452 889 l 450 889 l 450 891 m 463 891 l 463 889 l 460 889 q 463 891 460 891 m 531 891 l 534 891 l 534 890 q 531 887 534 889 l 531 888 l 532 890 q 531 891 531 890 m 471 890 l 471 888 l 469 888 q 471 890 469 890 m 473 890 l 475 889 l 474 887 l 475 885 l 474 885 q 472 887 472 885 q 473 890 473 889 m 536 889 l 538 889 l 538 885 l 538 885 q 536 889 538 888 m 450 886 l 451 886 l 451 884 l 450 884 l 450 886 m 472 886 l 472 883 l 470 883 l 470 884 q 472 886 470 886 m 508 886 l 508 883 q 506 885 506 883 l 508 886 m 534 885 l 535 885 q 540 883 535 883 l 540 881 l 538 881 q 532 884 532 882 l 534 885 m 553 885 l 555 885 q 556 879 556 880 q 553 885 554 879 m 496 884 l 498 884 l 498 882 q 496 884 496 882 m 504 884 l 506 884 l 506 882 l 504 882 l 504 884 m 500 883 l 502 883 q 499 880 502 882 l 498 880 l 498 881 q 500 883 498 883 m 454 882 l 456 882 l 456 880 q 454 882 454 880 m 509 882 q 511 880 511 882 l 509 879 l 509 882 m 153 806 l 153 802 q 176 732 153 766 q 187 739 182 739 l 191 739 q 201 729 201 737 l 201 726 q 174 697 201 720 q 131 596 131 647 l 131 580 l 132 572 q 163 574 153 574 l 172 574 q 184 562 180 574 q 175 549 184 553 q 137 547 158 549 q 155 507 144 526 q 197 517 188 517 l 199 517 q 210 504 209 517 q 180 489 210 494 q 170 486 180 488 l 170 485 q 199 454 183 469 q 218 463 215 463 l 222 463 q 233 452 231 463 q 220 438 231 438 l 220 437 q 486 357 333 357 q 755 454 651 357 l 764 463 l 764 464 q 748 477 748 468 q 761 491 750 491 l 781 484 q 801 528 801 517 q 766 540 766 528 l 766 543 q 775 555 766 551 q 808 553 783 555 l 808 563 l 808 582 q 806 594 808 594 l 758 590 q 749 602 749 595 q 777 616 749 616 q 801 621 801 618 l 801 621 q 768 681 793 647 l 767 681 q 692 630 725 630 l 690 630 q 614 687 646 630 q 606 704 608 704 l 599 704 q 527 749 551 704 q 470 735 500 735 q 397 780 416 735 q 389 833 389 808 q 391 846 389 835 l 319 834 q 209 879 254 879 l 197 879 q 170 861 178 879 q 153 806 153 834 m 425 880 q 429 875 429 879 l 427 875 q 425 878 427 878 l 425 880 m 457 879 q 460 875 460 879 l 460 873 l 459 873 q 457 878 459 876 l 457 879 m 465 877 l 465 877 l 465 876 q 463 873 465 873 l 463 873 l 463 875 q 465 877 463 877 m 433 876 l 435 876 l 435 875 l 433 875 l 433 876 m 494 875 l 496 875 l 496 873 l 494 873 l 494 875 m 459 873 l 459 873 q 457 871 459 871 l 457 871 q 459 873 458 873 m 564 871 q 567 869 564 870 l 567 871 l 564 871 m 435 871 l 435 869 q 434 865 434 867 l 432 865 l 432 869 q 435 871 433 869 m 428 869 l 430 869 l 429 867 q 431 865 431 867 l 429 864 l 428 864 l 428 869 m 494 869 l 497 867 q 496 864 496 865 l 494 864 l 494 865 q 494 867 494 867 l 494 869 l 494 869 m 438 867 l 439 867 l 439 867 q 437 864 439 864 l 436 864 l 436 865 q 438 867 437 867 m 484 867 l 484 867 l 484 865 l 484 865 l 484 867 m 480 863 l 482 863 l 482 862 l 480 862 l 480 863 m 444 861 q 446 859 446 861 l 444 859 l 444 861 m 461 861 l 465 861 l 465 856 l 465 855 l 460 854 l 457 858 l 461 861 m 429 858 l 431 858 l 431 857 q 429 855 431 855 l 429 858 m 479 858 l 479 856 l 477 856 q 479 858 477 858 m 444 856 l 446 856 l 446 854 l 444 854 l 444 856 m 452 856 l 452 854 l 450 854 q 452 856 450 856 m 511 831 l 511 825 l 511 825 q 521 835 511 828 q 538 854 538 852 q 543 850 538 854 q 529 836 543 848 q 521 828 529 835 q 515 821 521 825 q 513 819 515 821 q 522 808 515 811 l 523 808 q 531 827 523 813 l 531 828 l 529 828 q 530 831 530 830 l 531 831 l 533 830 l 536 834 l 533 834 q 535 836 534 836 l 538 835 q 551 848 538 836 q 543 854 551 850 l 543 853 q 535 855 538 855 q 511 831 511 850 m 453 853 l 456 853 q 458 850 458 852 q 425 819 431 819 l 424 823 l 424 825 q 437 837 427 825 q 436 840 436 839 q 439 838 437 840 l 453 853 m 479 853 l 481 853 l 481 850 q 479 853 479 850 m 529 853 q 531 850 531 852 l 529 850 l 529 853 m 420 852 q 424 848 422 852 l 422 848 l 420 852 m 543 852 l 544 852 q 547 848 545 852 l 547 848 l 545 848 q 543 852 545 849 m 484 850 l 486 850 q 484 848 486 848 l 484 850 m 428 850 l 429 850 q 431 848 431 849 l 429 846 l 428 846 l 428 850 m 548 850 l 550 850 l 550 848 l 548 848 l 548 850 m 432 848 l 434 848 l 434 846 q 432 844 434 844 l 432 848 m 481 848 l 482 846 l 480 846 l 479 848 l 481 848 m 542 846 l 544 846 l 544 846 l 542 846 l 542 846 m 545 846 l 545 844 q 543 842 545 842 l 543 844 q 545 846 543 846 m 427 842 l 429 842 l 429 840 l 427 840 l 427 842 m 432 842 l 434 842 l 434 840 l 432 840 l 432 842 m 465 842 l 465 842 q 467 838 465 840 l 465 837 l 463 840 l 465 842 m 513 842 l 515 842 l 515 840 l 513 840 l 513 842 m 538 842 q 540 840 540 841 l 540 838 l 538 838 l 538 842 m 574 833 l 574 832 q 583 821 583 828 q 579 819 581 819 q 571 830 571 829 l 571 831 q 568 830 569 830 l 571 823 l 571 821 l 570 821 q 564 828 566 828 l 551 812 l 553 808 l 551 808 l 551 810 l 550 810 q 544 782 544 798 l 544 776 l 546 777 l 547 777 q 550 774 549 777 l 549 767 l 549 766 l 551 766 l 550 768 l 552 770 l 553 770 q 585 739 555 770 q 585 740 585 740 l 585 739 q 581 734 585 739 l 581 734 q 585 735 583 735 l 585 734 l 583 731 l 583 731 l 589 735 q 591 729 591 735 l 604 729 q 624 735 616 729 q 622 737 622 735 l 622 740 l 624 740 q 626 735 624 735 q 646 753 631 735 l 634 765 l 634 767 q 637 770 635 770 l 637 770 q 649 760 647 760 l 648 758 l 648 757 l 649 757 q 652 765 652 764 l 649 763 l 649 764 q 652 767 649 766 q 653 766 652 766 q 655 779 655 774 l 655 791 q 653 793 655 793 q 640 778 653 789 l 637 778 q 634 780 634 778 l 634 781 q 653 799 634 782 q 640 823 651 810 q 614 837 629 833 l 612 837 l 612 836 q 616 834 616 836 l 614 834 l 612 835 q 594 819 600 819 q 593 823 593 821 q 610 837 604 837 l 610 837 l 610 838 q 599 840 602 840 q 574 833 589 840 m 513 838 l 517 838 l 517 837 q 513 836 515 837 l 513 838 m 425 835 q 427 833 427 835 l 425 833 l 425 835 m 473 835 l 475 835 l 474 829 l 472 829 l 472 830 l 473 835 m 591 834 l 591 832 q 587 831 588 831 l 587 833 q 591 834 590 833 m 416 833 l 418 833 l 418 830 l 416 830 l 416 833 m 511 833 l 513 833 l 513 831 l 511 831 l 511 833 m 621 833 l 622 833 q 624 831 624 833 l 622 830 l 621 832 l 621 833 m 452 832 l 454 832 l 454 830 l 452 830 l 452 832 m 469 832 l 471 832 l 471 830 l 469 830 l 469 832 m 583 831 l 585 831 l 585 830 l 583 830 l 583 831 m 616 831 q 618 829 618 831 l 616 829 l 616 831 m 675 814 q 676 809 676 812 l 677 809 l 677 811 l 680 811 q 709 782 709 783 l 709 780 l 707 777 l 711 777 l 711 776 q 707 774 709 776 q 703 781 705 781 q 709 766 709 771 l 709 766 l 709 768 l 711 768 l 711 766 l 709 763 l 709 753 q 694 718 709 736 q 691 718 692 718 l 691 716 q 709 697 692 716 l 709 692 l 707 692 q 686 713 707 692 q 661 705 676 707 q 659 704 661 704 l 659 706 l 652 706 q 641 695 644 695 l 641 692 q 644 690 644 692 l 644 689 l 643 689 l 641 690 l 641 689 q 680 657 654 666 l 680 657 l 680 659 l 680 660 l 680 660 q 684 659 682 659 q 707 684 684 661 l 711 684 q 713 682 713 684 q 707 675 708 675 q 696 664 706 675 l 698 664 l 698 662 l 696 663 l 693 663 q 684 656 690 656 l 684 654 l 694 654 q 726 673 705 654 l 726 675 l 724 673 l 723 673 l 723 675 l 724 677 l 723 677 q 720 673 723 675 l 720 675 q 721 677 721 677 q 719 684 719 681 l 721 685 l 722 685 q 729 677 729 680 q 764 733 753 698 l 763 739 q 767 758 767 743 l 767 772 q 764 778 767 778 l 764 779 l 766 779 q 755 810 766 789 q 752 809 753 809 l 753 807 q 744 793 744 799 l 742 793 l 743 795 l 742 795 q 723 778 727 780 l 721 778 q 719 780 719 778 l 734 798 q 736 797 734 797 q 753 813 738 802 q 720 830 741 830 l 719 830 q 675 814 699 829 m 478 830 l 480 830 l 480 829 l 478 829 l 478 830 m 481 830 l 484 830 q 484 825 484 827 l 484 823 q 484 819 484 821 l 482 819 l 481 830 m 621 829 l 622 829 l 621 827 q 622 826 622 827 l 621 826 q 618 828 618 826 l 621 829 m 439 828 l 443 828 l 443 826 l 441 826 q 439 828 439 826 m 452 828 l 454 828 l 454 825 q 452 827 452 825 l 452 828 m 723 828 l 727 828 l 726 826 q 727 825 727 826 l 724 823 l 722 823 l 723 828 m 724 827 l 724 825 l 725 825 l 725 827 l 724 827 m 473 827 l 473 825 l 471 825 q 473 827 471 827 m 528 827 l 528 826 q 526 823 528 823 l 526 825 q 528 827 526 827 m 608 827 l 610 827 q 612 823 610 823 l 612 821 l 608 821 q 608 823 608 821 q 608 827 608 825 m 418 826 l 420 826 l 420 825 l 418 825 l 418 826 m 461 826 l 461 823 l 459 823 q 461 826 460 826 m 622 826 q 626 821 623 826 l 623 821 l 621 823 q 622 826 622 825 m 629 826 l 632 826 l 632 823 q 629 825 630 825 l 629 826 m 704 826 l 705 823 q 697 823 705 823 q 704 826 697 825 m 707 826 q 709 823 709 825 l 707 823 l 705 823 q 707 826 707 825 m 715 826 l 715 826 q 718 823 718 825 l 713 823 l 713 825 l 715 826 m 736 826 q 740 825 739 825 l 740 823 l 739 823 q 736 825 736 823 l 736 826 m 449 825 l 452 825 l 452 823 l 449 823 l 449 825 m 564 825 l 564 825 q 562 823 564 823 l 562 823 q 564 825 562 825 m 463 823 l 465 823 l 465 821 l 463 821 l 463 823 m 469 823 l 470 823 l 470 821 l 469 821 l 469 823 m 629 823 l 631 823 l 631 823 l 629 823 l 629 823 m 517 823 l 519 823 q 517 821 519 821 l 517 823 m 639 823 l 639 821 l 637 821 q 639 823 637 823 m 695 823 l 697 823 l 697 821 l 695 821 l 695 823 m 711 823 l 711 823 l 711 821 l 711 821 l 711 823 m 438 821 l 439 821 q 441 819 441 821 l 437 817 l 437 817 q 438 821 438 819 m 632 821 l 634 821 l 634 819 l 632 819 l 632 821 m 721 821 l 723 821 l 723 819 l 721 819 l 721 821 m 469 821 q 473 815 470 821 l 473 814 q 469 819 471 814 l 469 821 m 738 821 l 740 821 l 740 819 l 738 819 l 738 821 m 463 819 q 465 817 463 817 l 465 814 q 463 812 465 812 l 460 812 q 458 814 458 812 l 458 815 q 463 819 458 817 m 600 819 l 603 819 q 598 814 603 818 l 597 817 q 600 819 600 817 m 625 819 l 625 819 q 623 817 625 817 l 622 817 l 622 819 q 625 819 623 819 m 715 819 l 719 815 q 715 811 718 811 q 711 815 711 813 l 711 817 q 715 819 711 817 m 418 819 l 420 819 q 422 817 422 818 l 422 812 q 418 810 420 812 l 416 810 l 416 817 q 418 819 417 819 m 570 819 q 572 817 572 818 l 572 813 l 571 813 l 570 819 m 587 819 l 589 819 q 591 817 591 818 l 591 814 q 589 811 591 812 l 585 814 q 587 819 586 819 m 608 819 l 608 819 q 606 815 608 815 l 608 813 l 608 812 l 605 812 l 605 817 q 608 819 606 819 m 632 819 q 634 815 632 818 q 633 812 633 813 l 629 812 q 627 814 627 812 l 627 817 l 632 819 m 719 819 l 721 819 q 719 817 721 817 l 719 819 m 452 817 l 454 817 l 454 817 l 452 817 l 452 817 m 690 817 l 692 817 l 692 813 l 690 813 l 690 817 m 705 817 l 707 817 l 707 814 l 705 814 l 705 817 m 739 817 l 740 817 q 742 815 742 817 l 742 814 l 741 814 q 739 817 739 814 l 739 817 m 515 817 l 515 817 q 517 814 517 816 l 517 814 q 515 817 515 814 m 684 817 l 684 817 q 682 813 684 815 l 682 814 q 684 817 682 817 m 723 817 l 725 817 l 725 813 q 723 815 723 813 l 723 817 m 637 815 q 641 814 640 814 q 639 812 641 812 l 637 814 l 637 815 m 424 813 l 425 813 l 454 785 q 458 778 457 785 l 453 778 q 424 808 424 806 l 424 813 m 469 813 l 471 813 q 469 811 471 811 l 469 813 m 519 813 l 519 813 l 519 811 l 519 811 l 519 813 m 684 813 l 686 813 l 686 811 l 684 811 l 684 813 m 454 812 q 456 810 456 812 l 454 810 l 454 812 m 467 812 l 467 809 l 465 809 l 465 810 q 467 812 465 812 m 486 812 l 488 812 l 488 811 l 486 811 l 486 812 m 595 812 q 614 792 597 812 q 626 779 626 784 l 626 778 l 622 778 q 593 807 606 793 l 593 810 q 595 812 593 812 m 460 811 q 458 807 458 808 q 456 809 456 807 l 456 810 l 460 811 m 482 811 l 486 811 l 486 809 l 486 808 l 484 808 q 482 810 484 810 l 482 811 m 583 811 q 585 808 583 810 q 555 778 585 806 l 552 778 q 550 780 550 778 l 550 783 q 581 811 553 783 l 583 811 m 568 810 q 564 807 568 808 l 564 807 l 564 809 l 568 810 m 627 810 l 628 810 l 628 808 l 627 808 l 627 810 m 631 810 l 633 810 l 633 808 l 631 808 l 631 810 m 715 810 l 717 810 q 715 808 717 808 l 715 810 m 622 809 l 624 809 l 624 805 l 622 805 l 622 809 m 677 808 l 677 806 l 678 806 l 678 808 l 677 808 m 709 809 l 711 807 l 707 805 l 705 807 l 709 809 m 463 808 l 465 808 l 465 806 l 463 806 l 463 808 m 471 808 l 472 808 l 472 807 q 470 805 472 805 l 469 805 l 469 806 q 471 808 469 808 m 559 808 l 560 808 l 560 806 l 559 806 l 559 808 m 640 808 l 642 808 l 642 806 q 640 808 640 806 m 723 808 l 729 808 l 729 806 l 728 806 l 726 807 l 726 806 q 723 807 724 807 l 723 808 m 732 808 l 734 808 l 734 807 l 732 807 l 732 808 m 451 807 l 452 807 l 452 805 l 451 805 l 451 807 m 556 807 l 555 800 l 555 798 l 553 798 l 553 799 q 556 807 553 806 m 629 807 l 632 807 l 632 806 l 629 806 l 629 807 m 460 806 l 463 806 q 460 804 463 804 l 460 806 m 647 806 l 649 806 l 649 804 l 647 804 l 647 806 m 678 805 l 678 803 q 684 801 682 801 q 680 805 680 804 l 678 805 m 695 806 l 696 806 l 696 804 l 695 804 l 695 806 m 564 805 l 564 805 l 564 803 l 564 803 l 564 805 m 754 805 l 756 805 l 756 804 l 754 804 l 754 805 m 608 804 l 612 804 l 612 801 l 610 801 q 608 803 608 801 l 608 804 m 618 804 l 621 804 l 621 803 l 618 803 l 618 804 m 472 803 l 474 803 l 474 801 l 472 801 l 472 803 m 703 802 l 705 802 l 705 801 l 703 801 l 703 802 m 475 801 l 477 801 l 477 799 l 475 799 l 475 801 m 480 801 l 482 801 l 482 800 l 480 800 l 480 801 m 556 801 l 558 801 l 558 800 q 556 798 558 798 l 556 801 m 618 801 l 620 801 l 620 800 l 618 800 l 618 801 m 722 801 l 724 801 l 724 800 q 722 798 724 798 l 722 801 m 622 800 l 624 800 l 624 797 q 622 799 622 797 l 622 800 m 637 800 l 640 800 q 641 795 640 798 l 640 795 q 637 798 637 795 l 637 800 m 425 799 l 425 797 l 422 797 q 425 799 423 799 m 583 799 l 583 793 l 581 793 l 581 797 q 583 799 582 799 m 755 799 l 755 798 q 753 795 755 795 l 751 795 l 751 798 q 755 799 753 798 m 425 797 q 427 794 427 796 l 425 794 l 425 797 m 593 797 q 595 794 595 796 l 593 794 l 593 797 m 467 795 l 468 795 l 468 793 l 467 793 l 467 795 m 492 795 l 492 795 l 492 793 l 492 793 l 492 795 m 452 794 l 452 792 l 450 792 q 452 794 450 794 m 496 794 l 497 794 q 499 792 499 794 q 497 790 499 790 l 497 793 l 494 792 l 494 792 q 496 794 494 794 m 705 794 l 707 794 q 705 792 707 792 l 705 794 m 467 793 l 467 791 q 465 789 467 789 l 463 789 l 463 790 q 467 793 463 791 m 472 792 l 474 792 l 474 790 q 472 792 472 790 m 458 791 l 459 791 l 459 789 l 458 789 l 458 791 m 548 791 l 550 791 q 548 789 550 789 l 548 791 m 572 791 l 574 791 l 574 789 q 572 791 572 789 m 628 791 l 631 791 l 631 789 l 630 789 q 628 791 628 789 m 713 791 l 717 791 l 717 789 l 713 789 l 713 791 m 624 788 l 626 788 l 626 786 l 624 786 l 624 788 m 496 787 q 497 783 496 785 q 496 780 496 781 l 494 780 l 494 785 q 494 786 494 785 l 496 787 m 578 786 l 581 786 l 581 785 l 578 785 l 578 786 m 741 786 l 743 786 l 743 784 l 741 784 l 741 786 m 428 785 l 430 785 l 430 784 l 428 784 l 428 785 m 441 785 l 441 785 l 441 784 q 439 782 441 782 l 437 782 q 441 785 437 783 m 456 785 l 458 785 l 458 784 l 456 784 l 456 785 m 463 784 l 465 784 l 465 783 l 463 783 l 463 784 m 736 784 l 738 784 q 740 782 740 784 l 738 782 q 736 784 736 782 m 486 783 l 488 783 l 488 781 l 486 781 l 486 783 m 502 783 l 502 782 q 501 778 501 780 q 499 780 499 778 q 502 783 499 781 m 505 783 l 507 783 l 507 782 l 505 782 l 505 783 m 545 783 l 547 783 l 547 779 l 545 779 l 545 783 m 587 783 l 589 782 q 591 783 591 783 q 589 780 591 781 q 585 781 587 781 q 587 783 585 783 m 601 783 l 603 783 l 603 781 q 601 783 601 781 m 484 782 q 486 780 486 782 l 484 780 l 484 782 m 605 782 l 608 782 l 608 780 l 605 780 l 605 782 m 753 782 l 754 782 l 754 780 l 753 780 l 753 782 m 758 782 l 761 782 l 761 781 l 758 781 l 758 782 m 646 781 l 648 781 l 648 780 l 646 780 l 646 781 m 653 781 l 654 781 l 654 780 q 652 778 654 778 l 650 778 q 653 781 650 779 m 734 781 l 734 781 l 736 777 l 734 776 q 731 778 731 776 l 731 779 q 734 781 732 781 m 739 781 l 740 781 q 738 779 740 779 l 736 779 q 739 781 737 781 m 749 781 q 751 779 751 781 l 749 779 l 749 781 m 426 780 l 428 780 l 428 778 l 426 778 l 426 780 m 506 780 q 508 778 508 779 l 506 778 l 506 780 m 568 779 q 564 774 568 777 l 562 774 l 562 776 q 568 779 562 778 m 614 779 l 614 779 l 614 777 l 614 777 l 614 779 m 481 778 l 481 777 q 479 774 481 774 l 479 776 q 481 778 479 778 m 509 778 l 509 777 q 505 770 507 770 l 501 770 l 501 774 q 504 777 501 775 q 507 776 506 776 q 509 778 507 778 m 595 778 l 597 778 l 597 777 l 595 777 l 595 778 m 444 777 l 446 777 q 448 772 446 775 l 448 772 q 446 770 446 772 l 444 770 l 444 770 q 446 774 446 773 q 444 776 444 774 l 444 777 m 461 777 l 463 777 q 467 774 465 774 l 467 772 q 460 770 465 770 q 455 774 458 774 l 455 774 q 461 777 459 774 m 494 777 l 496 777 q 498 774 498 777 l 496 774 l 494 776 l 494 777 m 589 777 l 589 777 q 593 772 592 777 l 589 770 l 587 770 q 585 772 586 770 q 589 777 585 774 m 612 777 l 614 777 l 614 774 l 612 774 l 612 777 m 630 777 l 631 777 q 634 774 633 777 l 634 772 q 631 770 634 771 l 630 770 q 627 772 629 770 l 627 774 q 630 777 627 775 m 715 777 l 718 777 q 720 774 718 774 l 720 772 q 715 770 718 772 l 715 770 q 711 772 712 772 l 711 772 q 715 777 711 774 m 756 777 l 758 777 q 761 772 761 777 l 763 774 l 763 772 q 761 770 761 772 l 756 770 q 753 774 754 770 q 756 777 754 774 m 579 776 q 583 772 581 776 q 581 770 583 770 l 579 770 q 577 772 577 770 l 577 774 q 579 776 577 776 m 748 776 l 748 774 q 746 772 748 772 l 746 774 q 748 776 746 776 m 513 774 l 515 774 l 515 772 l 513 772 l 513 774 m 579 774 l 579 770 l 581 770 l 581 772 q 579 774 581 774 m 763 774 l 765 774 l 765 772 q 763 774 763 772 m 494 772 l 494 772 l 494 770 l 494 770 l 494 772 m 612 772 l 614 772 l 614 770 l 612 770 l 612 772 m 730 772 l 732 772 q 730 770 732 770 l 730 772 m 747 772 q 749 770 749 772 l 749 768 q 747 770 747 768 l 747 772 m 766 772 l 766 770 q 765 768 766 768 l 766 766 l 766 764 l 765 764 l 763 765 q 766 772 764 772 m 596 772 l 597 772 q 596 768 596 770 l 594 768 l 594 770 q 596 772 594 772 m 680 770 q 668 740 680 760 l 670 737 l 670 736 q 669 737 669 736 q 661 731 662 734 l 666 731 q 664 734 664 734 l 665 734 l 668 732 l 669 732 l 669 734 q 670 733 670 734 q 684 757 684 740 q 680 770 684 766 m 448 770 l 449 770 l 449 768 l 448 768 l 448 770 m 546 770 l 546 767 q 548 770 548 767 l 546 770 m 722 770 q 753 738 724 770 l 753 737 l 755 737 l 755 739 l 758 739 l 758 738 l 755 735 q 734 751 745 735 q 719 766 724 759 l 719 767 q 722 770 719 770 m 441 768 l 443 768 l 443 766 l 441 766 l 441 768 m 622 768 l 624 768 q 626 766 626 768 l 626 765 q 596 734 617 753 q 591 735 594 735 q 620 765 592 740 q 622 768 620 768 m 734 768 l 734 768 q 736 766 736 768 l 734 765 l 734 767 l 734 768 m 445 767 l 447 767 l 447 765 l 445 765 l 445 767 m 547 766 l 547 765 q 581 732 555 743 l 581 732 l 581 733 q 578 735 578 733 q 579 736 579 735 q 564 751 564 749 q 548 765 549 765 l 548 766 l 547 766 m 583 767 l 583 767 l 583 765 l 583 765 l 583 767 m 593 767 q 596 766 595 766 l 596 765 l 593 765 l 593 767 m 758 767 l 761 767 l 761 766 l 758 766 l 758 767 m 587 766 l 589 766 l 589 765 l 587 765 l 587 766 m 749 766 l 750 764 l 748 763 l 747 765 l 749 766 m 571 765 l 574 765 l 574 763 l 573 763 q 571 765 571 763 m 591 765 l 593 765 l 593 764 q 591 762 593 762 l 589 762 l 589 763 q 591 765 590 765 m 598 765 q 600 763 600 765 l 598 763 l 598 765 m 602 765 l 603 765 l 603 763 l 602 763 l 602 765 m 736 765 l 738 765 l 740 764 q 743 765 742 765 l 744 763 q 740 762 741 763 q 736 763 738 763 l 736 765 m 754 765 l 755 765 q 758 763 758 765 l 760 764 l 761 764 q 758 761 761 763 q 754 764 756 761 l 754 765 m 463 763 l 465 763 l 465 761 l 463 761 l 463 763 m 479 763 l 481 763 l 481 762 l 479 762 l 479 763 m 585 763 l 587 763 l 587 762 l 585 762 l 585 763 m 711 762 l 713 762 l 713 760 l 711 760 l 711 762 m 551 760 l 554 760 q 552 758 554 758 l 551 760 m 682 758 l 684 758 l 684 755 l 682 755 l 682 758 m 554 757 l 555 757 l 555 755 l 554 755 l 554 757 m 630 757 l 631 757 l 631 755 l 628 755 q 630 757 629 757 m 715 757 l 717 757 l 717 755 l 715 755 l 715 757 m 641 755 l 643 755 l 643 753 l 641 753 l 641 755 m 680 755 q 682 753 682 755 l 682 751 l 680 751 l 680 755 m 719 753 l 722 753 q 721 751 721 751 q 719 753 719 751 l 719 753 m 559 753 l 559 751 q 557 749 559 749 l 556 749 q 559 753 556 751 m 623 753 l 626 753 l 626 751 l 625 751 q 624 751 624 751 l 622 751 l 621 751 q 623 753 621 753 m 643 753 l 645 753 q 643 751 645 751 l 643 753 m 594 751 l 596 751 l 596 751 l 594 751 l 594 751 m 583 751 l 583 751 l 583 749 q 583 745 583 747 l 581 745 q 581 749 581 748 l 583 751 m 746 751 l 747 751 l 747 749 l 746 749 l 746 751 m 762 751 l 764 751 l 764 749 q 762 751 762 749 m 676 749 l 677 749 l 677 747 q 675 745 675 747 l 673 745 l 673 747 q 676 749 673 748 m 754 749 l 755 747 l 752 745 l 751 747 l 754 749 m 585 749 l 587 749 l 587 747 q 585 749 585 747 m 622 749 l 624 749 l 624 747 l 622 747 l 622 749 m 637 749 l 640 749 l 640 747 l 637 747 l 637 749 m 722 749 l 724 747 q 725 749 724 749 l 724 743 l 723 743 l 722 747 l 722 749 m 758 749 l 761 749 l 761 747 l 758 747 l 758 749 m 680 747 l 682 747 l 682 745 q 680 747 680 745 m 732 747 l 734 747 l 734 747 l 732 747 l 732 747 m 676 747 l 677 747 l 677 745 l 676 745 l 676 747 m 755 745 l 756 745 l 756 743 l 755 743 l 755 745 m 673 745 l 675 745 l 675 743 l 673 743 l 673 745 m 675 743 l 677 743 l 677 740 l 675 740 l 675 743 m 732 743 q 734 740 734 742 l 732 740 l 732 743 m 567 741 l 568 741 q 572 738 572 740 l 572 737 q 567 741 567 740 m 573 740 l 575 740 l 575 738 l 573 738 l 573 740 m 616 740 l 618 740 l 618 738 l 616 738 l 616 740 m 630 740 l 630 738 l 628 738 q 630 740 629 740 m 723 740 l 728 740 l 728 738 l 723 738 l 723 740 m 732 739 l 736 739 l 736 736 l 736 736 q 732 737 734 737 l 732 739 m 627 738 l 628 738 q 626 736 628 736 l 625 736 q 627 738 625 738 m 718 738 l 720 738 l 720 736 l 718 736 l 718 738 m 707 736 l 707 736 l 707 734 q 707 731 707 732 l 705 731 l 705 733 q 707 736 707 735 m 606 735 l 608 735 l 608 733 l 606 733 l 606 735 m 711 735 l 713 735 q 720 730 720 734 l 721 730 l 725 733 l 725 731 q 723 729 725 729 l 720 729 l 718 730 q 715 728 718 728 l 713 728 q 711 731 711 728 q 713 734 713 733 q 711 735 711 734 m 738 735 l 740 735 l 740 734 l 738 734 l 738 735 m 761 735 l 763 735 l 763 734 q 758 726 763 732 q 760 722 760 724 l 758 722 q 754 730 758 726 l 754 732 q 756 734 755 734 l 758 734 l 761 733 l 761 735 m 602 734 l 604 734 l 604 732 l 602 732 l 602 734 m 707 733 l 709 733 l 709 732 l 707 732 l 707 733 m 595 732 l 596 732 l 596 730 l 595 730 l 595 732 m 598 732 l 600 732 l 600 731 l 598 731 l 598 732 m 738 729 l 740 729 l 740 728 q 736 724 740 726 l 736 726 q 738 729 738 728 m 752 727 l 753 724 q 729 700 753 720 l 730 694 l 728 694 l 728 696 l 726 696 q 722 692 726 694 l 720 692 l 719 696 q 751 727 748 727 l 752 727 m 702 724 l 703 724 q 705 722 705 723 l 700 722 q 702 724 701 724 m 718 724 l 718 722 q 715 720 718 721 l 713 722 q 718 724 715 722 m 727 724 l 729 724 l 729 722 l 727 722 l 727 724 m 701 720 l 702 720 l 702 718 l 701 718 l 701 720 m 749 716 l 751 716 l 751 714 l 749 714 l 749 716 m 631 710 q 637 696 633 706 l 637 696 l 637 699 q 637 700 637 699 q 645 708 640 700 l 633 711 l 631 710 m 702 712 l 702 710 l 700 710 q 702 712 701 712 m 723 712 l 724 712 q 727 711 726 711 l 727 709 q 723 710 726 710 l 723 712 m 682 710 l 684 710 q 686 708 686 709 q 684 706 686 706 l 682 706 l 682 708 l 680 708 q 682 710 681 710 m 711 709 q 713 707 713 709 l 711 707 l 711 709 m 640 708 l 640 707 q 637 705 640 705 l 637 706 q 640 708 638 708 m 723 708 l 725 708 l 725 707 l 723 707 l 723 708 m 746 708 l 748 708 l 748 706 l 746 706 l 746 708 m 715 707 l 717 707 l 717 705 l 715 705 l 715 707 m 742 704 l 744 704 l 744 702 q 742 704 742 702 m 680 703 l 682 703 l 682 700 l 680 700 l 680 703 m 718 703 l 720 703 l 720 701 q 718 703 718 701 m 688 702 l 691 702 l 691 700 l 688 700 l 688 702 m 659 701 q 661 699 661 701 l 661 697 q 659 700 659 697 l 659 701 m 686 700 l 686 696 l 682 696 q 686 700 682 698 m 695 700 q 697 697 697 699 l 695 696 l 693 696 l 693 697 q 695 700 693 700 m 652 699 l 654 699 q 656 696 656 699 l 652 696 l 652 699 m 670 699 l 671 699 q 673 696 673 699 l 672 696 q 670 699 670 696 m 746 699 l 747 699 q 745 696 747 696 l 744 696 q 746 699 744 699 m 739 697 l 740 697 l 740 695 q 736 694 736 694 q 739 697 736 696 m 668 696 l 671 696 l 671 694 l 670 694 q 668 696 668 694 m 650 695 l 652 695 l 652 694 l 650 694 l 650 695 m 680 695 q 682 693 682 695 q 678 690 682 692 l 678 691 q 680 695 680 693 m 649 693 l 650 693 l 650 692 q 648 690 650 690 l 647 690 l 647 691 q 649 693 647 693 m 671 693 q 676 690 676 692 l 676 687 q 674 685 676 685 l 672 685 q 669 688 671 685 l 669 689 q 671 693 671 692 m 695 693 l 698 693 l 698 691 l 697 691 q 695 693 695 691 m 713 693 q 720 688 719 691 l 720 687 q 715 685 718 687 l 715 685 q 711 688 713 685 l 713 693 m 684 691 l 684 689 l 684 688 l 684 688 q 682 690 682 688 l 684 691 m 661 690 l 664 690 l 664 686 l 661 686 l 661 690 m 665 690 l 667 690 l 667 687 l 665 687 l 665 690 m 644 689 q 649 687 646 687 l 649 685 l 644 686 l 644 689 m 730 689 l 732 689 l 732 687 q 730 689 730 687 m 732 687 l 734 687 l 734 685 l 732 685 l 732 687 m 682 686 l 682 686 l 682 684 l 682 684 l 682 686 m 698 686 l 698 685 q 696 683 698 683 l 696 684 q 698 686 696 686 m 649 685 l 651 685 l 651 683 l 649 683 l 649 685 m 734 685 l 736 685 l 736 683 l 734 683 l 734 685 m 665 684 l 667 684 l 667 683 l 665 683 l 665 684 m 668 684 l 670 684 l 670 683 l 668 683 l 668 684 m 678 684 l 680 682 l 676 682 q 678 684 676 684 m 647 683 l 649 683 l 649 681 l 647 681 l 647 683 m 699 683 l 701 683 l 701 681 l 699 681 l 699 683 m 652 682 q 654 680 654 682 l 654 677 l 651 677 q 652 682 652 680 m 680 682 l 680 682 q 682 680 682 682 l 682 677 l 680 677 q 680 682 680 680 m 656 681 l 659 681 l 659 679 q 656 681 656 679 m 691 681 l 693 681 q 691 679 693 679 l 691 681 m 661 680 l 663 680 l 663 677 l 661 677 l 661 680 m 684 680 l 688 680 l 688 677 l 686 677 q 684 680 684 677 m 695 677 l 696 677 l 696 677 q 694 675 696 675 l 693 677 l 695 677 m 664 675 l 665 675 l 665 673 l 664 673 l 664 675 m 680 673 l 682 673 l 682 671 q 680 673 680 671 m 705 673 q 707 671 707 673 l 705 671 l 705 673 m 659 670 l 659 670 q 665 668 663 668 l 664 670 l 665 670 q 667 668 667 670 l 665 667 l 661 667 q 659 670 660 667 m 709 670 l 713 670 l 713 668 l 709 668 l 709 670 m 677 667 l 680 667 l 680 666 l 677 666 l 677 667 m 701 666 l 702 666 q 704 664 704 666 l 703 664 q 701 666 701 664 m 668 665 l 670 665 l 670 663 q 668 665 668 663 m 673 664 l 674 664 l 674 662 q 671 661 673 662 l 671 662 q 673 664 671 664 m 705 662 l 707 662 l 707 660 l 705 660 l 705 662 m 701 661 l 702 661 l 702 659 l 701 659 l 701 661 m 675 660 l 677 660 l 677 658 q 675 660 675 658 m 698 660 l 699 660 l 699 658 l 698 658 l 698 660 m 646 576 l 651 576 q 675 545 667 576 l 675 540 q 650 509 670 509 l 648 509 q 622 544 627 509 q 646 576 627 576 m 294 572 l 298 572 q 323 543 317 572 l 323 536 q 300 506 323 512 l 296 506 q 271 539 275 506 l 271 540 q 294 572 274 572 m 643 570 q 631 544 631 559 l 631 542 q 633 540 631 540 l 637 540 q 641 557 638 540 q 648 565 648 564 l 648 569 l 643 570 m 278 545 l 278 537 l 283 536 q 288 553 285 541 q 294 562 288 553 l 294 564 q 292 566 294 566 l 290 566 q 278 545 278 557 m 476 519 l 484 519 q 525 488 513 519 l 526 481 q 484 444 526 452 l 479 444 q 436 471 449 444 q 434 479 434 475 l 434 485 q 465 517 434 507 q 476 519 469 519 m 453 481 q 480 463 453 467 q 507 481 503 463 q 484 500 507 496 l 478 500 q 453 481 453 498 l 453 481 m 329 357 q 242 184 248 251 l 403 184 l 430 336 q 329 357 364 345 m 524 334 q 550 186 524 331 l 552 184 l 711 184 l 711 186 q 640 337 711 235 q 625 353 626 353 q 524 336 559 336 l 524 334 m 454 334 l 454 330 l 456 332 l 457 330 q 452 323 452 330 q 447 285 447 293 q 458 275 458 276 q 455 271 456 271 l 454 271 l 451 273 q 450 272 451 272 q 446 281 446 279 l 445 281 q 439 248 439 250 q 456 262 452 262 q 458 260 458 261 l 458 258 q 437 240 440 240 l 437 237 l 438 235 q 435 224 435 235 q 436 223 436 224 l 434 223 l 434 221 l 433 214 q 455 193 435 214 l 458 193 q 455 186 457 186 l 454 186 q 433 208 433 204 l 432 208 q 416 161 426 161 l 402 161 l 402 159 q 416 146 408 159 q 412 142 414 142 l 412 142 q 397 159 412 144 l 397 161 l 359 161 q 344 144 359 158 l 342 144 q 339 147 341 144 l 339 148 q 353 159 350 159 l 353 161 l 317 161 l 317 159 q 331 147 322 159 l 331 145 q 325 144 330 145 q 313 157 323 149 q 312 161 312 160 l 274 161 l 273 157 l 275 157 l 275 155 q 262 147 269 155 l 257 143 l 256 143 l 256 147 l 255 147 q 253 136 255 142 q 256 134 254 136 l 256 136 l 257 136 q 284 111 259 136 l 290 107 q 286 102 288 102 l 285 102 q 258 130 258 127 l 256 128 l 256 132 l 254 132 l 253 132 l 253 132 l 254 134 l 252 136 q 251 127 252 133 q 252 126 252 127 q 245 96 248 126 q 245 93 245 94 q 243 91 243 92 l 243 82 q 274 83 247 82 l 276 83 l 276 85 l 274 85 l 274 87 l 275 87 q 276 87 276 87 q 284 93 279 87 q 288 94 286 93 l 290 90 q 283 83 289 90 l 303 83 l 296 91 q 300 94 296 92 l 301 94 q 313 83 311 83 q 335 82 323 83 q 360 83 347 83 q 371 94 366 91 q 374 91 372 94 q 368 85 371 85 l 368 83 l 387 83 l 387 85 q 381 91 385 85 l 381 92 q 383 94 381 94 l 385 94 q 395 83 387 93 q 418 82 410 83 q 445 83 429 83 q 457 93 450 93 q 458 89 458 91 q 452 83 452 85 l 472 83 l 472 85 q 465 91 469 85 q 469 94 465 92 l 470 94 q 475 92 472 92 q 474 91 475 91 l 480 83 q 504 82 493 83 q 529 85 529 83 q 542 94 537 94 l 542 89 l 536 83 l 556 83 l 556 85 q 551 90 554 85 l 551 94 l 553 94 l 566 83 q 587 82 578 83 q 614 85 614 83 q 625 94 621 94 l 626 92 l 626 90 q 621 85 623 85 l 621 83 l 641 83 l 641 85 q 634 92 634 87 l 637 94 q 650 83 649 83 q 673 82 661 83 q 698 83 684 83 q 704 89 700 89 q 699 109 703 109 q 676 134 698 110 l 676 134 l 682 136 q 698 118 698 119 l 699 118 l 699 119 l 692 153 l 691 153 q 686 149 689 153 q 688 148 688 149 q 682 144 685 148 l 680 144 q 677 147 677 144 l 688 159 l 688 161 l 655 161 l 655 159 q 668 147 663 158 q 669 144 669 145 l 669 143 l 668 143 l 668 145 l 666 144 q 653 153 656 153 l 652 153 l 652 155 l 654 155 l 654 155 q 650 161 650 155 l 612 161 q 608 155 612 159 q 608 153 608 155 q 597 144 605 153 l 595 144 q 593 146 593 144 l 593 148 q 606 159 602 159 l 606 161 l 571 161 l 571 159 q 585 147 574 159 q 581 144 585 146 l 581 144 q 566 161 566 157 l 538 161 q 531 163 535 161 q 513 144 531 162 l 508 144 l 508 148 q 515 152 511 152 l 511 159 l 511 159 q 515 155 515 157 q 528 168 515 155 l 524 195 l 522 194 l 521 196 q 523 197 523 196 q 515 208 523 204 q 507 217 515 210 l 507 219 q 509 221 507 221 l 511 221 l 515 217 q 519 219 519 218 q 517 233 519 222 l 515 233 q 511 229 515 230 q 509 233 509 229 q 515 242 513 242 l 515 241 l 513 239 l 515 238 l 515 239 q 515 248 515 244 l 513 247 l 511 247 l 511 249 l 513 249 q 504 301 508 286 l 503 301 l 503 302 l 504 304 q 501 308 503 304 l 501 310 q 503 312 501 312 q 498 334 500 334 q 494 328 498 328 l 494 330 q 497 332 497 332 l 494 332 q 494 332 494 332 l 492 332 l 484 332 l 484 332 q 492 323 488 332 l 494 324 q 500 320 494 320 l 500 316 q 497 313 500 315 q 478 330 496 313 l 476 330 l 477 332 q 454 334 461 334 m 459 332 l 459 330 l 457 330 q 459 332 458 332 m 465 332 l 465 332 l 465 330 l 465 330 l 465 332 m 469 330 l 470 330 q 472 328 472 329 l 469 328 l 469 330 m 456 328 l 456 326 l 454 326 l 454 326 q 456 328 454 328 m 497 328 l 499 328 l 499 324 q 497 326 497 324 l 497 328 m 471 319 l 472 317 l 472 316 q 469 314 469 316 q 467 316 467 314 l 467 317 q 471 319 468 317 m 463 318 l 463 318 l 463 316 l 463 316 l 463 318 m 476 318 l 477 318 q 479 316 479 317 l 476 316 l 476 318 m 486 318 l 488 318 l 488 316 q 486 318 486 316 m 453 317 l 455 317 l 455 315 q 453 317 453 315 m 458 317 l 460 317 l 460 315 l 458 315 l 458 317 m 468 313 l 470 313 l 470 311 q 468 313 468 311 m 461 312 l 463 312 q 467 305 467 310 q 465 307 465 305 l 463 305 l 461 305 l 458 308 q 461 312 460 312 m 497 312 l 499 312 q 497 310 499 310 l 497 312 m 451 309 l 453 309 l 453 307 l 451 307 l 451 309 m 469 308 l 471 308 l 470 302 q 472 300 472 302 l 470 299 l 468 303 q 469 308 469 305 m 456 305 l 458 305 l 458 303 l 456 303 l 456 305 m 465 304 l 467 304 l 467 303 l 465 303 l 465 304 m 496 304 l 498 304 q 500 302 500 304 l 500 300 q 494 293 494 295 l 492 294 l 470 270 q 465 273 465 271 q 478 289 478 286 l 480 288 q 496 304 490 300 m 455 303 l 455 299 q 453 297 455 297 l 453 301 q 455 303 453 303 m 458 301 l 460 301 l 460 299 l 458 299 l 458 301 m 465 301 l 465 300 q 461 297 465 299 l 460 299 q 465 301 462 299 m 470 297 l 472 297 q 471 294 471 295 l 470 294 l 470 297 m 502 294 q 504 292 504 294 l 504 291 l 502 291 l 502 294 m 473 293 l 475 293 l 475 291 l 473 291 l 473 293 m 470 292 l 471 292 l 471 290 q 465 287 471 288 q 470 292 468 292 m 496 292 q 498 290 498 292 l 496 290 l 496 292 m 454 290 l 454 288 l 452 288 q 454 290 452 290 m 481 279 l 484 279 l 484 278 l 481 278 l 481 279 m 494 278 l 496 278 l 496 276 l 494 276 l 494 278 m 502 277 l 504 276 l 506 277 l 509 270 l 507 269 q 506 275 506 275 l 504 274 q 501 275 502 275 l 502 277 m 479 276 l 481 276 q 484 272 483 276 q 481 270 481 270 l 480 270 l 480 271 q 481 274 481 273 q 479 276 479 274 m 562 276 l 568 276 q 589 256 589 272 l 589 254 q 564 233 589 235 q 542 254 542 236 q 562 276 545 276 m 450 272 l 450 271 q 448 269 450 269 l 447 269 q 450 272 447 271 m 459 271 l 463 271 q 465 264 465 270 q 463 262 465 262 l 461 262 q 457 267 460 262 l 457 268 q 459 271 459 268 m 504 270 l 508 268 q 503 262 507 262 l 501 266 l 501 269 q 504 270 502 269 m 444 269 l 446 269 l 446 267 l 444 267 l 444 269 m 477 268 l 479 268 l 479 266 l 477 266 l 477 268 m 508 267 q 511 264 511 267 l 511 264 l 508 264 l 508 267 m 469 266 l 472 266 l 472 264 l 469 264 l 469 266 m 444 264 l 445 264 l 445 262 l 444 262 l 444 264 m 476 264 q 477 260 476 262 l 476 260 q 474 262 474 260 l 476 264 m 445 262 q 447 260 447 262 l 445 260 l 445 262 m 468 262 l 469 262 q 500 231 500 235 q 499 229 499 229 l 497 229 q 465 258 493 231 l 465 260 q 468 262 466 262 m 480 262 l 482 262 l 481 260 l 484 260 l 484 258 q 481 256 484 256 l 480 262 m 508 262 l 509 262 q 511 260 511 261 l 511 258 l 509 258 q 508 262 509 260 m 500 260 l 502 260 q 504 258 502 258 l 504 256 l 503 256 q 500 258 502 256 l 500 260 m 373 258 q 395 256 387 256 l 404 256 q 409 251 406 256 l 409 249 q 401 241 408 241 q 370 242 380 242 q 366 250 366 246 q 373 258 366 254 m 488 256 l 492 256 l 492 254 l 488 254 l 488 256 m 191 254 q 186 231 186 242 q 222 208 186 212 q 229 238 229 235 q 191 254 228 238 m 724 233 q 734 200 729 220 l 734 200 q 777 224 777 207 l 777 227 q 769 254 777 241 q 724 233 724 235 m 459 254 l 460 254 l 460 251 l 459 251 l 459 254 m 455 252 q 457 250 457 252 l 455 249 l 455 252 m 461 250 l 463 250 l 463 248 l 461 248 l 461 250 m 452 249 l 455 249 l 455 246 l 454 246 q 452 248 452 246 l 452 249 m 465 248 q 467 246 467 248 l 467 245 q 465 247 465 245 l 465 248 m 455 246 q 457 244 457 245 l 455 243 l 454 243 q 455 246 455 245 m 509 246 q 511 244 511 245 l 509 244 l 509 246 m 503 242 l 504 242 l 504 241 q 502 239 504 239 l 501 241 l 503 242 m 471 241 l 473 241 l 473 237 q 471 235 473 235 l 471 241 m 438 238 l 441 238 l 441 235 l 438 235 l 438 238 m 452 238 l 454 238 q 455 231 455 232 l 455 229 l 454 229 q 452 235 454 232 l 452 238 m 508 237 l 511 237 q 508 235 511 235 l 508 237 m 463 235 q 465 233 463 235 l 463 233 l 461 233 q 460 231 460 231 q 458 233 458 231 l 463 235 m 471 235 l 471 231 l 469 231 l 469 233 q 471 235 469 235 m 479 235 l 480 235 q 482 233 482 234 q 480 231 482 231 l 479 233 l 479 235 m 486 235 l 486 235 l 486 233 l 486 233 l 486 235 m 437 233 l 439 233 q 436 224 438 224 l 436 225 l 437 233 m 575 231 l 579 231 q 601 208 601 227 q 578 186 601 191 l 576 186 q 553 208 553 191 q 575 231 557 231 m 484 229 l 486 229 l 486 227 l 484 227 l 484 229 m 504 229 l 506 229 q 509 223 506 227 q 505 221 508 223 l 503 221 q 501 223 501 221 l 501 227 q 504 229 504 227 m 457 229 l 459 229 l 459 227 l 457 227 l 457 229 m 465 229 l 465 227 l 465 224 q 465 221 465 222 l 461 221 q 458 224 460 221 q 465 229 458 227 m 469 229 q 471 227 471 228 l 471 225 l 469 225 l 469 229 m 513 227 l 515 227 l 515 225 l 513 225 l 513 227 m 486 227 l 488 227 l 488 224 l 486 224 l 486 227 m 471 225 q 473 223 473 225 q 470 220 471 223 l 470 219 q 472 217 470 217 q 471 214 471 215 l 469 214 q 465 219 469 219 l 465 221 l 468 220 q 471 225 471 224 m 451 224 l 453 224 l 453 222 q 451 224 451 222 m 515 223 l 517 221 l 517 220 l 515 220 q 513 222 513 220 l 515 223 m 437 222 l 438 222 q 441 220 441 222 l 441 219 q 437 220 439 220 l 437 222 m 490 222 l 492 222 l 492 220 l 490 220 l 490 222 m 455 221 l 457 221 q 459 219 459 220 l 455 219 l 455 221 m 484 221 q 486 219 486 220 l 484 219 l 484 221 m 499 221 l 500 219 l 500 215 q 472 188 498 215 l 472 186 l 468 186 q 465 189 465 186 l 465 190 q 499 221 495 221 m 358 220 l 389 220 q 397 212 397 220 q 389 204 397 205 l 362 204 q 353 214 353 205 q 358 220 355 218 m 436 220 q 439 219 438 219 q 437 217 439 217 l 436 219 l 436 220 m 453 218 l 455 218 l 455 217 q 454 216 455 216 q 455 215 454 215 l 454 208 l 452 210 l 453 215 l 453 218 m 461 218 l 463 218 l 465 214 l 463 214 q 461 218 461 218 m 519 217 l 519 213 l 519 213 l 519 217 l 519 217 m 480 217 l 484 217 l 484 215 q 480 216 481 216 l 480 217 m 449 216 l 451 216 l 451 214 q 449 216 449 214 m 482 213 q 484 211 484 212 l 482 210 q 480 212 480 210 l 482 213 m 477 212 l 479 212 l 479 210 l 477 210 l 477 212 m 504 210 l 504 208 l 502 208 q 504 210 503 210 m 469 208 l 471 208 l 471 208 q 469 205 471 205 l 469 208 m 475 208 l 477 208 l 477 206 l 475 206 l 475 208 m 452 205 l 454 205 q 452 203 454 203 l 452 205 m 469 205 l 469 204 q 465 201 469 203 l 465 201 q 469 205 465 203 m 508 205 l 509 205 l 509 203 l 508 203 l 508 205 m 498 204 l 499 204 q 497 202 499 202 l 496 202 q 498 204 496 204 m 515 204 l 515 202 l 513 202 q 515 204 514 204 m 511 202 l 513 202 l 513 198 l 511 198 l 511 202 m 519 202 q 521 200 521 202 l 519 200 l 519 202 m 515 199 l 517 199 l 517 198 q 515 196 517 196 l 515 199 m 436 198 l 438 198 l 438 197 l 436 197 l 436 198 m 455 197 l 456 197 l 456 195 l 455 195 l 455 197 m 515 196 l 515 195 l 513 193 q 515 192 515 193 l 513 192 l 513 194 q 515 196 513 196 m 519 196 l 519 196 l 519 195 q 517 193 519 193 l 517 195 l 519 196 m 441 194 l 443 194 l 443 193 l 441 193 l 441 194 m 484 194 l 486 194 l 486 192 q 484 194 484 192 m 504 194 q 509 189 505 194 l 508 189 l 504 192 l 500 189 l 499 189 q 504 194 499 190 m 496 193 l 497 191 l 494 190 l 494 190 l 494 191 q 496 193 494 193 m 522 193 l 522 190 l 517 190 q 515 192 515 190 q 522 193 517 192 m 433 192 q 434 191 434 192 l 436 192 q 443 188 443 190 l 443 186 l 441 186 q 433 190 438 190 l 433 192 m 490 192 l 490 190 q 484 189 490 190 q 490 192 484 191 m 479 188 l 479 184 l 477 184 l 477 186 q 479 188 477 188 m 503 188 q 507 182 503 186 l 507 181 q 504 178 507 180 l 503 178 q 500 181 502 178 l 502 186 q 501 186 501 186 l 503 188 m 458 186 l 459 186 q 467 181 466 184 l 467 180 q 463 178 465 180 l 461 178 q 456 180 458 180 l 456 182 q 459 184 459 182 q 458 186 458 186 m 498 186 l 498 184 l 496 184 q 498 186 496 186 m 429 184 l 431 184 l 430 179 l 428 179 l 429 184 m 513 184 l 515 184 l 515 182 l 513 182 l 513 184 m 492 184 l 496 184 l 494 181 q 497 179 497 181 l 497 178 l 496 178 q 492 181 494 178 l 492 184 m 479 182 l 479 180 l 477 180 q 479 182 477 182 m 446 181 l 447 181 l 447 180 q 446 177 446 178 l 444 177 l 444 179 q 446 181 444 181 m 511 180 l 513 180 l 513 178 l 511 178 l 511 180 m 450 179 l 452 179 q 450 177 452 177 l 450 179 m 465 178 q 472 175 472 177 l 474 176 l 475 176 l 475 175 l 474 173 q 500 148 481 168 l 500 147 q 494 144 500 144 q 492 148 492 148 q 488 147 490 147 l 490 149 l 490 150 q 465 174 466 173 l 465 178 m 453 177 l 456 177 q 458 175 458 177 l 428 144 l 426 144 q 424 146 424 144 l 424 148 l 437 161 q 436 165 436 163 l 437 165 l 439 163 l 439 165 q 438 168 438 167 l 441 168 l 441 165 l 441 165 l 453 177 m 441 176 l 441 176 q 445 173 443 176 l 443 173 q 441 175 441 173 l 441 176 m 513 176 l 513 174 l 513 173 l 513 173 q 511 175 511 173 l 513 176 m 525 176 l 526 176 q 524 174 526 174 l 523 174 q 525 176 523 176 m 436 175 l 438 175 l 438 173 l 436 173 l 436 175 m 429 174 l 430 174 l 430 173 q 428 171 430 171 l 427 173 l 429 174 m 500 174 l 501 174 q 503 172 503 174 l 505 173 l 507 173 q 505 171 507 171 l 502 171 q 500 173 500 171 l 500 174 m 515 174 l 517 174 l 517 172 l 515 172 l 515 174 m 519 172 l 522 172 l 522 170 l 519 170 l 519 172 m 492 171 l 494 171 l 494 170 l 492 170 l 492 171 m 513 171 l 517 171 l 517 165 l 515 165 l 513 165 l 513 163 l 511 163 l 511 165 l 515 170 q 513 171 513 170 m 494 170 l 496 170 l 496 168 l 494 168 l 494 170 m 461 169 l 463 169 l 463 168 l 461 168 l 461 169 m 519 165 q 521 163 521 165 l 519 163 l 519 165 m 430 165 l 432 165 l 432 163 l 430 163 l 430 165 m 465 165 l 467 163 l 467 161 l 465 161 q 463 163 463 161 l 465 165 m 470 165 l 472 165 l 472 163 q 470 165 470 163 m 456 163 l 460 163 l 460 163 l 456 163 l 456 163 m 259 161 l 256 149 q 258 153 258 149 l 259 153 l 261 152 q 267 161 261 155 l 259 161 m 497 161 l 498 161 q 500 159 500 161 q 496 157 500 158 l 494 159 q 497 161 497 159 m 688 161 l 688 159 l 690 159 l 690 161 l 688 161 m 425 161 l 426 161 l 426 159 l 425 159 l 425 161 m 471 161 q 472 159 471 159 q 471 155 471 158 l 470 155 q 468 157 468 155 l 468 159 q 471 161 469 159 m 534 161 q 538 159 536 159 l 538 157 q 535 155 538 155 l 534 157 l 535 157 l 534 159 l 534 161 m 261 159 l 262 157 l 260 157 l 259 157 l 259 157 q 261 159 260 159 m 285 159 l 286 159 l 286 157 l 285 157 l 285 159 m 330 159 q 332 157 332 159 l 330 157 l 330 159 m 431 159 l 432 159 l 432 157 l 431 157 l 431 159 m 553 159 l 555 159 l 555 157 l 553 157 l 553 159 m 618 159 l 620 159 q 621 157 620 159 l 618 155 l 618 159 m 623 159 l 624 159 l 624 157 l 622 157 q 623 159 623 159 m 668 159 l 669 159 q 673 157 671 157 l 673 155 l 670 155 q 668 157 670 157 l 668 159 m 337 159 l 339 159 l 339 157 l 337 157 l 337 159 m 507 159 l 507 157 l 506 155 q 508 153 508 155 l 508 152 q 502 155 505 155 l 502 157 l 507 159 m 591 159 l 593 159 l 593 157 l 591 157 l 591 159 m 363 157 l 366 157 l 366 155 l 363 155 l 363 157 m 385 157 l 391 157 l 391 155 l 387 155 q 385 157 385 155 m 560 157 l 562 157 l 562 155 l 560 155 l 560 157 m 332 157 q 333 153 332 155 l 330 153 l 330 155 q 332 157 330 157 m 418 157 l 420 157 l 420 155 l 418 155 l 418 157 m 472 157 l 474 157 l 474 153 l 472 153 l 472 157 m 556 157 l 558 157 l 558 153 l 557 153 q 556 157 557 155 m 642 157 l 644 157 l 643 155 q 644 153 644 155 l 642 153 l 642 157 m 452 155 l 454 155 l 454 150 q 452 152 452 150 l 452 155 m 538 155 q 540 148 540 149 l 538 148 q 535 150 538 150 l 536 152 q 535 153 535 152 l 538 155 m 333 153 l 335 153 l 335 152 l 333 152 l 333 153 m 335 152 l 337 152 l 337 150 l 335 150 l 335 152 m 356 152 l 356 150 l 354 150 q 356 152 354 152 m 484 152 q 486 150 486 152 l 484 150 l 484 152 m 556 152 l 557 152 l 557 150 l 555 150 l 555 149 l 556 147 q 554 144 554 147 l 552 144 l 552 147 q 556 152 555 152 m 673 152 l 673 150 l 671 150 q 673 152 671 152 m 305 151 l 306 151 l 306 149 l 305 149 l 305 151 m 567 151 l 569 151 l 569 149 l 567 149 l 567 151 m 277 150 l 279 150 l 279 149 l 277 149 l 277 150 m 281 150 q 283 148 283 150 l 281 148 l 281 150 m 294 150 q 296 148 296 150 l 294 148 l 294 146 l 292 146 l 292 148 q 294 150 292 150 m 315 150 l 315 147 q 313 149 313 147 l 315 150 m 375 150 l 378 150 q 377 147 377 148 l 375 147 l 375 150 m 469 150 l 471 150 q 472 147 471 149 q 469 145 469 145 q 468 146 469 146 q 469 150 469 148 m 535 150 l 535 147 l 529 147 q 535 150 529 149 m 545 150 l 548 150 l 548 149 l 545 149 l 545 150 m 267 149 l 269 149 q 267 147 269 147 l 265 147 q 267 149 266 149 m 285 149 q 290 146 290 148 l 288 146 l 286 147 q 285 146 286 146 l 284 148 q 285 149 285 148 m 358 149 l 359 149 l 359 147 l 358 147 l 358 149 m 368 149 l 371 149 l 371 147 q 368 149 368 147 m 379 149 l 381 149 l 381 147 q 379 149 379 147 m 446 149 l 447 149 l 447 147 l 444 147 q 446 149 444 149 m 449 149 l 451 149 l 451 147 l 449 147 l 449 149 m 459 149 l 461 149 l 461 148 l 459 148 l 459 149 m 549 149 l 549 148 q 547 146 549 146 l 546 146 l 546 148 q 549 149 547 148 m 616 149 l 618 149 l 618 147 l 616 147 l 616 149 m 628 149 l 630 149 q 628 147 630 147 l 628 149 m 275 148 l 277 148 l 277 146 l 275 146 l 275 148 m 302 148 l 302 147 l 298 143 q 294 144 297 144 l 294 146 l 296 145 l 298 145 l 302 148 m 309 148 l 315 147 l 313 145 q 309 146 311 146 l 309 148 m 383 148 l 387 148 l 387 146 l 385 146 q 383 148 383 146 m 395 148 l 398 148 l 398 146 l 395 146 l 395 148 m 461 148 l 463 148 l 463 146 l 461 146 l 461 148 m 478 148 l 479 148 q 481 146 481 148 l 478 146 l 478 148 m 540 148 q 543 145 541 148 l 542 145 q 540 147 540 145 l 540 148 m 564 148 l 566 148 l 566 146 l 564 146 l 564 148 m 632 148 l 633 148 q 635 146 635 148 l 635 144 l 633 144 l 632 148 m 637 148 q 639 146 639 148 q 637 144 639 144 l 637 148 m 657 148 q 659 146 659 148 l 657 146 l 657 148 m 381 147 l 383 147 l 383 144 l 380 144 q 381 147 381 146 m 528 147 l 529 147 q 527 145 529 145 l 526 145 q 528 147 526 147 m 650 147 l 652 147 l 652 145 l 650 145 l 650 147 m 271 146 l 273 146 l 273 145 q 269 142 273 143 l 269 144 q 271 146 271 144 m 352 145 l 353 145 q 355 143 355 144 l 354 143 q 352 145 352 143 m 455 145 l 456 145 l 456 143 l 455 143 l 455 145 m 465 145 l 465 138 q 463 136 463 136 l 459 136 q 458 140 459 138 q 465 145 458 142 m 571 145 q 574 141 571 141 l 574 138 q 571 134 571 138 l 568 134 l 568 134 l 571 140 l 569 143 q 571 145 569 145 m 334 144 l 335 144 q 339 140 337 144 q 336 136 339 138 l 332 136 l 332 142 q 334 144 332 144 m 380 144 l 381 138 l 381 138 l 376 136 q 374 140 374 139 q 380 144 374 142 m 420 144 q 424 138 424 143 l 420 136 l 418 136 q 416 138 416 136 l 416 141 q 420 144 416 142 m 505 144 q 508 143 507 143 l 508 140 q 505 136 508 138 l 503 136 q 501 138 501 136 l 501 143 l 505 144 m 637 144 q 640 142 640 144 l 640 141 q 637 143 637 141 l 637 144 m 673 144 q 676 141 675 144 l 676 138 q 674 136 676 136 l 672 136 q 670 138 670 136 l 670 141 q 673 144 670 142 m 290 143 l 298 142 l 296 140 q 298 138 298 140 l 290 138 l 290 140 q 290 143 290 142 m 435 143 l 438 143 l 438 141 l 435 141 l 435 143 m 456 143 l 458 143 l 458 141 l 456 141 l 456 143 m 470 143 q 473 140 471 143 q 470 136 473 138 l 470 138 l 471 140 q 470 143 470 142 m 492 143 l 494 143 l 494 141 l 492 141 l 492 143 m 521 143 l 524 143 q 522 141 524 141 l 521 141 l 521 143 m 538 143 l 538 142 l 538 140 q 538 136 538 138 q 536 138 536 136 l 536 141 q 538 143 536 143 m 544 143 l 549 143 q 550 138 549 142 q 547 136 547 136 l 544 136 q 543 140 544 138 q 544 143 544 142 m 585 143 l 589 143 q 591 141 591 142 l 591 138 q 589 136 591 136 l 587 136 q 585 140 586 136 q 585 143 585 142 m 606 143 l 608 141 l 605 140 l 604 142 l 606 143 m 621 143 l 623 143 q 621 141 623 141 l 621 143 m 628 143 l 633 143 q 640 138 633 139 l 640 138 q 637 136 640 136 l 637 138 q 629 136 633 136 l 627 140 q 628 143 628 142 m 668 143 l 668 140 q 666 138 668 138 l 665 140 q 668 143 665 141 m 284 142 l 285 142 l 284 140 l 285 138 l 284 138 q 282 140 282 138 q 284 142 282 142 m 302 142 q 304 140 304 142 l 304 138 l 302 138 l 302 142 m 383 142 l 385 142 q 387 136 385 138 q 385 134 385 134 l 383 134 l 385 136 l 383 142 m 387 142 q 389 140 389 142 l 389 138 l 387 138 l 387 142 m 285 141 l 288 141 l 288 138 l 285 138 l 285 141 m 298 141 l 300 141 l 300 138 l 298 138 l 298 141 m 352 141 l 353 141 l 353 138 l 352 138 l 352 141 m 454 141 l 456 141 l 456 138 q 454 141 454 138 m 553 141 l 554 141 l 554 138 l 553 138 l 553 141 m 686 141 l 688 141 l 688 138 l 686 138 l 686 141 m 328 140 l 330 140 l 330 138 q 329 138 330 138 q 331 132 331 134 q 300 102 302 102 l 298 102 l 298 106 q 328 138 328 136 l 328 140 m 540 140 l 541 140 q 543 138 543 140 l 542 138 q 540 140 540 138 m 655 140 q 659 138 657 138 q 656 136 659 136 q 655 138 656 138 q 652 132 654 132 l 651 132 l 651 134 l 655 140 m 456 138 l 458 138 l 458 136 q 456 138 456 136 m 621 138 q 623 136 623 138 l 621 136 l 621 138 m 625 138 l 627 138 q 625 136 627 136 l 625 138 m 269 138 q 274 134 271 138 l 274 132 q 269 136 272 132 l 269 138 m 288 138 l 290 138 l 290 136 l 288 136 l 288 138 m 315 138 l 317 138 l 317 134 l 315 134 q 317 134 315 134 l 315 136 l 315 138 m 522 138 l 523 138 q 527 134 524 138 l 526 134 q 522 138 524 134 m 342 136 q 373 106 344 136 l 373 104 q 371 102 373 102 l 370 102 q 349 119 353 119 l 350 121 q 339 132 349 121 l 339 134 q 342 136 340 136 m 354 136 l 356 136 l 356 134 q 354 136 354 134 l 354 136 m 465 136 l 468 136 l 468 136 l 465 136 l 465 136 m 583 136 l 585 134 l 585 132 q 552 102 557 102 l 551 102 l 551 103 q 581 136 551 110 l 583 136 m 692 136 l 693 136 l 693 132 l 691 132 l 691 134 q 692 136 692 136 m 298 136 q 301 134 301 135 l 298 134 l 298 136 m 323 136 l 323 134 l 321 134 q 323 136 321 136 m 414 136 q 416 134 416 135 l 416 132 q 401 119 404 119 q 385 102 401 114 l 381 102 l 381 107 q 399 124 385 107 q 409 134 400 124 q 414 136 411 136 m 424 136 l 426 136 q 441 122 431 136 q 457 103 457 110 l 455 102 l 454 102 q 424 132 435 119 l 424 136 m 441 136 q 443 134 443 135 l 441 134 l 441 136 m 484 136 l 486 136 l 486 134 q 484 136 484 134 m 499 136 q 500 132 500 134 q 468 102 473 102 q 465 104 465 102 l 465 105 q 498 136 494 136 l 499 136 m 508 136 l 511 136 q 542 106 513 136 l 542 104 q 540 102 542 102 q 508 132 532 105 l 508 136 m 596 136 q 600 132 600 134 l 603 134 l 605 134 l 603 130 q 608 123 608 125 l 610 124 l 612 124 l 610 122 l 626 105 l 626 104 q 624 102 626 102 l 623 102 q 593 134 593 128 q 596 136 595 136 m 637 136 q 641 134 639 134 l 641 132 l 640 132 q 637 132 637 132 l 637 136 m 665 136 l 666 136 q 669 132 667 136 q 639 102 669 130 l 637 102 q 634 104 634 102 l 634 105 q 652 123 634 106 q 665 136 652 123 m 286 134 l 286 132 l 282 130 l 282 132 q 286 134 283 132 m 399 134 l 399 132 q 393 130 396 132 l 393 130 l 393 132 q 399 134 393 134 m 404 134 l 406 134 l 406 134 l 404 134 l 404 134 m 542 134 l 542 132 l 540 132 q 542 134 540 134 m 606 134 l 608 134 l 608 134 l 606 134 l 606 134 m 659 134 l 659 134 l 659 134 q 657 132 659 132 l 656 132 l 656 132 q 659 134 656 134 m 267 134 l 273 132 q 271 130 273 130 q 267 132 269 132 l 267 134 m 308 134 l 313 134 l 313 132 l 308 132 l 308 134 m 376 134 l 376 132 l 374 132 q 376 134 374 134 m 381 134 l 381 132 q 378 130 381 131 l 377 130 l 377 132 q 381 134 378 132 m 453 134 l 455 134 l 455 130 l 453 130 l 453 134 m 469 134 l 471 134 l 472 128 l 470 128 l 469 134 m 478 134 l 480 134 l 480 132 l 478 132 l 478 134 m 544 134 l 546 134 l 546 132 l 544 132 l 544 134 m 555 134 q 556 132 555 132 q 555 130 555 130 l 553 130 l 553 132 q 555 134 553 134 m 623 134 l 625 134 l 625 132 q 623 130 625 130 l 623 134 m 631 134 l 633 130 q 630 130 631 130 l 629 130 l 629 130 l 631 130 l 631 132 l 630 132 q 627 130 628 130 l 627 132 q 631 134 628 132 m 364 132 l 366 132 l 366 130 l 364 130 l 364 132 m 368 132 l 371 132 l 370 127 l 368 127 l 368 132 m 532 132 l 533 132 l 533 130 l 532 130 l 532 132 m 538 132 l 540 132 l 540 130 l 538 130 l 538 132 m 548 132 l 549 132 l 549 130 l 548 130 l 548 132 m 614 132 l 616 132 l 616 130 l 614 130 l 614 132 m 643 132 l 645 132 l 645 130 l 643 130 l 643 132 m 688 132 l 691 132 l 691 130 l 688 130 l 688 132 m 292 130 l 294 130 l 294 130 l 292 130 l 292 130 m 546 130 l 548 130 l 548 130 l 546 130 l 546 130 m 389 130 l 389 130 l 389 127 l 385 126 q 389 130 385 127 m 622 130 l 623 130 l 624 120 l 622 119 q 621 126 622 125 q 622 130 622 128 m 639 130 l 641 130 l 641 128 q 639 126 641 126 l 639 130 m 397 128 l 399 128 l 399 126 l 397 126 l 397 128 m 696 128 l 697 126 q 695 124 697 124 l 694 126 q 696 128 694 128 m 301 127 l 303 127 l 303 125 l 301 125 l 301 127 m 329 126 l 332 126 l 333 121 l 331 121 q 329 126 331 123 m 469 126 l 471 126 l 471 121 q 469 123 469 121 l 469 126 m 587 126 l 589 126 q 591 122 589 125 l 591 121 q 587 123 587 122 q 587 126 587 125 m 412 125 l 414 125 l 414 123 l 412 123 l 412 125 m 672 125 l 673 123 l 670 123 q 672 125 670 125 m 251 124 l 253 124 l 253 123 l 251 123 l 251 124 m 335 124 l 338 124 l 338 121 q 335 122 336 122 l 335 124 m 504 124 l 505 124 q 508 123 507 123 l 508 121 l 507 121 q 504 122 505 122 l 504 124 m 560 124 q 562 122 562 123 l 560 122 l 560 124 m 675 124 l 676 124 q 674 122 676 122 l 673 122 q 675 124 673 124 m 453 123 l 455 123 l 455 121 l 453 121 l 453 123 m 668 123 l 670 123 l 670 122 l 668 122 l 668 123 m 557 122 l 557 119 l 555 119 l 555 120 q 557 122 555 122 m 667 122 l 668 122 l 668 119 l 667 119 l 667 122 m 307 121 l 309 121 l 309 120 q 307 118 309 118 l 307 121 m 328 121 l 329 121 l 329 119 l 328 119 l 328 121 m 385 121 l 385 121 l 385 118 l 382 118 l 382 119 q 385 121 382 121 m 414 121 l 416 121 l 416 119 l 414 119 l 414 121 m 256 120 l 257 120 l 257 118 l 256 118 l 256 120 m 468 120 l 469 120 l 468 118 q 469 117 469 118 q 465 114 465 117 l 463 114 l 463 117 l 468 120 m 551 120 l 553 120 l 553 115 l 550 117 q 551 120 551 119 m 637 120 l 639 120 l 639 119 l 637 119 l 637 120 m 497 119 l 498 117 q 496 115 498 115 q 494 118 496 116 l 497 119 m 513 119 l 515 119 q 513 117 515 117 l 513 119 m 457 118 l 458 118 l 458 116 l 457 116 l 457 118 m 627 118 l 627 116 l 625 116 q 627 118 625 118 m 699 117 l 699 115 l 700 115 l 700 117 l 699 117 m 294 117 l 296 117 l 296 116 q 294 114 296 114 l 294 117 m 379 117 l 381 117 l 381 114 q 379 116 379 114 l 379 117 m 535 117 l 536 117 l 536 115 l 535 115 l 535 117 m 581 117 l 581 115 l 579 115 q 581 117 579 117 m 288 116 l 288 114 l 286 113 l 285 115 l 288 116 m 300 116 q 302 114 302 115 l 300 114 l 300 116 m 342 116 l 346 116 l 346 114 l 342 114 l 342 116 m 664 116 l 666 116 l 666 115 q 665 111 665 113 l 663 111 q 664 116 664 113 m 682 115 l 684 115 l 684 113 l 682 113 l 682 115 m 432 114 l 434 114 l 434 113 q 433 109 433 111 l 431 109 q 432 114 432 111 m 436 114 l 438 114 q 436 111 438 111 l 436 114 m 381 113 l 382 113 l 382 111 l 381 111 l 381 113 m 570 113 l 572 113 l 572 111 l 570 111 l 570 113 m 298 111 l 300 111 l 300 111 l 298 111 l 298 111 m 467 111 l 468 111 l 468 109 l 467 109 l 467 111 m 540 111 l 542 111 l 542 111 l 540 111 l 540 111 m 259 111 l 260 111 l 260 106 l 258 106 l 258 107 q 259 111 259 109 m 292 111 l 294 111 l 294 109 l 292 109 l 292 111 m 326 111 l 327 111 l 328 105 l 327 105 q 325 107 325 105 q 326 111 326 109 m 515 111 l 515 111 l 515 109 l 513 109 q 515 111 513 111 m 263 109 l 264 109 l 264 107 l 263 107 l 263 109 m 313 109 l 313 107 l 311 107 q 313 109 311 109 m 397 109 l 398 109 l 398 107 l 397 107 l 397 109 m 409 109 l 412 109 q 409 107 412 107 l 409 109 m 480 109 l 481 109 q 484 106 483 109 l 484 106 q 480 109 481 106 m 599 109 l 600 109 q 603 107 600 107 l 603 105 q 593 103 597 105 l 593 105 q 596 107 596 105 l 598 106 l 599 106 l 599 109 m 696 109 l 696 106 q 694 109 694 106 l 696 109 m 333 109 l 337 109 l 338 106 l 336 105 l 335 105 l 336 107 l 333 107 l 333 109 m 352 109 l 352 107 q 350 105 352 105 l 349 105 l 349 107 q 352 109 350 107 m 420 109 l 420 109 q 422 106 422 108 l 422 105 q 420 109 421 105 m 441 109 l 441 106 l 438 106 l 438 105 l 441 105 q 441 106 441 106 l 441 105 q 439 103 441 103 q 434 105 437 105 l 434 107 l 441 109 m 463 109 l 465 109 l 465 107 l 463 107 l 463 109 m 247 107 l 249 107 l 249 105 q 247 107 247 105 m 331 107 l 333 107 l 333 105 l 331 105 l 331 107 m 404 107 l 406 107 l 406 106 l 404 106 l 404 107 m 416 107 l 418 107 l 418 105 l 416 105 l 416 107 m 428 107 l 430 107 l 430 105 l 428 105 l 428 107 m 490 107 l 492 107 q 494 105 494 107 l 490 105 l 490 107 m 573 107 l 574 107 q 583 106 575 107 l 583 104 l 575 105 l 573 105 l 573 107 m 587 107 l 587 105 l 585 105 q 587 107 585 107 m 657 107 l 661 107 q 659 105 661 105 l 657 105 l 657 107 m 682 107 l 682 105 l 677 104 l 677 106 q 682 107 680 106 m 688 107 l 690 107 q 692 105 692 107 l 688 105 l 688 107 m 269 106 l 271 106 l 271 104 l 269 104 l 269 106 m 340 106 q 342 104 342 106 l 340 104 l 340 106 m 353 106 l 354 106 q 357 103 355 106 l 356 103 q 353 104 354 104 l 353 106 m 412 106 l 414 106 q 416 104 416 106 l 416 103 q 412 104 414 104 l 412 106 m 486 106 l 488 106 l 488 104 l 486 104 l 486 106 m 499 106 l 502 106 q 501 102 501 104 l 500 102 l 499 106 m 511 106 l 513 106 l 513 104 l 511 104 l 511 106 m 664 106 l 665 106 q 667 104 667 106 l 665 103 l 664 105 l 664 106 m 250 105 l 251 105 q 252 102 251 104 q 251 101 251 102 q 254 99 254 101 l 254 96 q 250 91 250 93 l 248 92 l 249 94 q 247 97 248 97 q 250 105 250 102 m 255 105 l 258 105 l 258 103 l 257 103 q 255 105 255 103 m 312 105 l 315 105 l 315 104 q 312 101 315 103 l 311 101 l 311 102 q 312 105 312 104 m 444 105 l 446 105 l 446 103 l 444 103 l 444 105 m 395 104 q 397 102 397 104 l 397 100 l 395 100 q 395 101 395 101 l 395 103 l 395 104 m 651 104 l 653 104 l 653 103 l 651 103 l 651 104 m 671 104 l 672 104 l 672 102 l 671 102 l 671 104 m 507 103 q 511 100 509 103 l 511 99 q 507 102 509 99 l 507 103 m 612 103 l 614 103 l 614 102 l 612 102 l 612 103 m 253 102 l 255 102 l 255 101 l 253 101 l 253 102 m 326 102 l 328 102 l 328 101 q 325 98 328 100 l 323 98 q 326 102 326 100 m 339 102 q 336 90 336 93 l 334 90 l 335 92 l 335 94 l 330 97 l 330 99 l 339 102 m 526 102 l 527 102 q 529 100 529 102 l 528 100 q 526 102 526 100 m 545 102 q 550 98 549 100 l 550 97 q 547 94 550 96 l 546 94 q 543 98 545 94 l 545 102 m 612 102 q 614 100 614 102 l 614 99 q 612 101 612 99 l 612 102 m 696 102 q 698 100 698 102 l 696 100 l 696 102 m 255 101 l 257 101 l 257 100 l 255 100 l 255 101 m 292 101 q 300 100 297 100 l 300 98 l 298 99 q 296 94 296 97 l 292 94 q 290 97 291 94 l 290 99 q 292 101 290 101 m 376 101 l 378 101 q 381 98 380 101 l 381 97 q 377 94 381 94 q 374 95 375 95 l 374 99 q 376 101 374 101 m 410 101 l 412 101 l 412 100 l 410 100 l 410 101 m 418 101 l 420 101 q 422 99 422 101 l 422 96 q 420 94 422 94 l 418 94 q 416 97 417 94 l 416 98 q 418 101 416 100 m 461 101 l 463 101 q 467 96 465 100 q 463 94 465 96 l 461 94 q 458 99 459 94 l 461 101 m 503 101 l 504 101 q 509 97 505 101 l 511 98 l 511 95 l 511 95 l 508 96 q 502 94 505 94 q 500 99 500 97 q 503 101 500 99 m 581 101 l 581 101 l 581 99 l 578 99 q 581 101 578 101 m 587 101 l 589 101 q 591 99 591 101 l 591 96 q 589 94 591 94 l 587 94 q 585 96 585 94 l 585 99 q 587 101 586 101 m 630 101 l 631 101 q 634 98 633 101 l 634 97 q 631 94 634 96 q 627 97 627 96 l 627 98 q 630 101 627 100 m 667 101 l 668 101 l 668 99 l 667 99 l 667 101 m 672 101 l 674 101 q 676 99 676 101 l 676 95 q 673 94 675 95 q 668 98 668 96 q 672 101 669 98 m 429 100 q 431 98 431 100 l 431 97 l 429 97 l 429 100 m 513 99 l 515 99 l 515 97 q 513 95 515 95 l 513 96 l 515 98 q 513 99 513 98 m 614 99 l 614 99 l 614 95 l 612 94 l 612 95 q 614 99 614 97 m 259 98 q 261 96 261 98 l 261 95 q 259 97 259 95 l 259 98 m 340 98 l 342 98 l 342 96 l 340 96 l 340 98 m 414 98 l 414 96 q 410 94 413 96 l 409 96 q 414 98 412 98 m 346 97 l 346 95 l 344 95 q 346 97 344 97 m 368 97 l 371 97 l 371 95 q 368 97 368 95 m 424 97 l 426 97 l 426 93 l 424 93 q 425 94 424 94 l 424 96 l 424 97 m 494 97 l 494 97 l 494 95 l 494 95 l 494 97 m 596 97 l 598 97 l 598 94 q 596 96 596 94 l 596 97 m 682 97 l 684 97 l 684 95 l 682 95 l 682 97 m 479 96 q 481 94 481 96 l 481 93 q 479 95 479 93 l 479 96 m 528 96 l 529 96 l 529 94 l 528 94 l 528 96 m 698 96 l 698 95 q 697 92 697 93 l 695 92 l 695 93 q 698 96 695 94 m 648 95 l 650 95 l 650 93 l 648 93 l 648 95 m 666 95 q 668 93 668 94 l 666 93 l 666 95 m 678 95 l 680 95 q 682 93 682 94 l 678 93 l 678 95 m 256 94 l 257 94 q 259 92 259 94 l 259 91 l 257 91 q 256 94 257 92 m 614 94 l 616 92 l 614 91 l 612 91 l 612 92 q 614 94 613 94 m 252 93 l 253 93 q 256 90 254 93 l 252 87 l 252 87 q 254 91 254 90 q 252 93 252 91 m 356 93 l 359 93 q 357 91 359 91 l 356 91 l 356 93 m 397 93 l 397 92 q 395 90 397 90 l 395 91 q 397 93 395 93 m 700 93 l 702 93 l 702 91 l 700 91 l 700 93 m 272 92 l 273 92 q 271 90 273 90 l 269 90 q 272 92 270 92 m 313 92 l 315 92 l 315 90 q 313 92 313 90 m 338 92 l 340 92 l 340 90 l 338 90 l 338 92 m 342 92 q 346 89 344 92 l 346 87 l 344 87 q 342 92 342 92 m 439 92 l 441 92 l 441 90 l 439 90 l 439 92 m 482 92 l 484 92 q 486 90 486 92 l 482 90 l 482 92 m 507 92 l 508 90 l 508 89 l 507 89 q 505 91 505 89 l 507 92 m 526 92 l 526 90 l 521 89 q 526 92 521 91 m 569 92 l 570 92 l 570 90 l 569 90 l 569 92 m 649 92 l 652 92 q 650 90 652 90 l 649 90 l 649 92 m 352 91 l 355 91 l 355 89 l 352 89 l 352 91 m 400 91 l 402 91 l 402 90 l 400 90 l 400 91 m 414 91 l 416 91 q 418 90 418 90 l 418 87 l 416 87 q 414 89 416 89 l 414 91 m 581 91 l 583 91 l 583 89 l 581 89 l 581 91 m 604 91 l 606 91 q 608 89 608 90 l 604 89 l 604 91 m 664 91 l 668 91 l 668 89 q 664 87 666 89 l 664 87 l 665 90 q 664 91 664 90 m 677 91 l 678 91 l 678 89 l 677 89 l 677 91 m 269 90 l 269 90 q 267 87 269 87 l 267 87 q 269 90 267 90 m 329 90 l 329 87 l 327 87 q 329 90 327 90 m 331 90 l 334 90 q 332 87 334 87 l 331 90 m 359 90 q 361 87 361 90 l 359 87 l 359 90 m 402 90 l 404 90 l 404 89 l 402 89 l 402 90 m 408 90 l 410 90 l 410 89 l 408 89 l 408 90 m 430 90 l 430 87 l 428 87 q 430 90 429 90 m 488 90 l 492 90 l 492 87 l 490 87 q 488 90 488 87 m 501 90 l 502 90 q 504 87 504 90 l 504 87 l 503 87 q 501 89 501 87 l 501 90 m 511 90 l 515 90 l 515 87 l 513 87 q 511 90 513 87 m 573 90 l 574 90 q 576 87 576 90 l 573 87 l 573 90 m 585 90 q 587 87 587 90 l 585 87 l 585 90 m 587 90 l 589 90 l 589 89 l 587 89 l 587 90 m 674 90 l 676 90 l 676 87 l 673 87 q 674 90 674 89 m 682 90 l 682 87 l 680 87 q 682 90 681 90 m 247 89 l 249 89 l 249 87 l 247 87 l 247 89 m 264 89 l 264 87 q 259 85 262 87 l 259 87 l 264 89 m 336 89 l 337 89 l 337 87 l 336 87 l 336 89 m 410 89 l 412 89 l 412 87 q 409 85 412 86 l 406 85 l 406 87 l 407 87 l 409 85 q 410 89 410 87 m 422 89 l 422 89 q 420 87 422 87 l 420 87 q 422 89 420 89 m 519 89 l 521 89 q 519 87 521 87 l 519 89 m 579 89 l 581 89 l 581 87 l 579 87 l 579 89 m 612 89 l 612 85 l 610 85 l 610 87 q 612 89 611 89 m 649 89 l 650 89 l 650 87 l 649 87 l 649 89 m 657 89 l 661 89 l 661 87 l 657 87 l 657 89 m 349 87 l 350 85 l 350 85 l 347 85 l 347 85 q 349 87 347 87 m 688 87 l 694 87 l 694 85 l 688 85 l 688 87 m 696 87 l 698 87 q 696 85 698 85 l 696 87 m 292 87 l 292 87 l 292 85 l 292 85 l 292 87 m 321 87 l 321 85 l 317 85 l 317 85 l 321 87 m 381 87 l 383 87 l 383 85 l 381 85 l 381 87 m 402 87 l 404 87 l 404 85 l 402 85 l 402 87 m 484 87 l 488 87 l 488 85 l 484 85 l 484 87 m 490 87 l 492 87 l 492 85 l 490 85 l 490 87 m 596 87 l 598 87 l 598 85 l 596 85 l 596 87 m 599 87 l 600 87 l 600 85 l 599 85 l 599 87 m 655 87 l 657 87 l 657 85 l 655 85 l 655 87 m 661 87 l 664 87 l 664 85 l 661 85 l 661 87 m 277 58 l 277 53 q 311 24 277 28 l 463 24 l 463 58 l 277 58 m 488 58 l 488 24 l 637 24 q 674 51 669 24 q 675 58 674 56 l 673 58 l 488 58 z "}}}
